<svg width="470" height="362" viewBox="0 0 470 362" fill="none" xmlns="http://www.w3.org/2000/svg">
<ellipse cx="52.2162" cy="45.7238" rx="18.1439" ry="18.8845" fill="#60B175"/>
<path d="M67.6384 46.0943C67.6384 54.8271 60.7228 61.8868 52.2162 61.8868C43.7095 61.8868 36.7939 54.8271 36.7939 46.0943C36.7939 37.3614 43.7095 30.3018 52.2162 30.3018C60.7228 30.3018 67.6384 37.3614 67.6384 46.0943Z" stroke="#2D7E42"/>
<g filter="url(#filter0_f_3_799)">
<path d="M58.1896 55.6833C54.1106 55.6833 50.0316 55.6833 45.9532 55.6833C44.815 55.3506 44.5712 54.5796 44.5739 53.6595C44.5922 48.3343 44.5821 43.009 44.5834 37.6838C44.5834 36.5618 45.2619 35.8877 46.3859 35.8877C50.1839 35.887 53.9813 35.887 57.7793 35.8877C58.9134 35.8877 59.5865 36.5659 59.5865 37.7048C59.5865 41.0138 59.5865 44.3234 59.5865 47.6324C59.5865 49.753 59.5879 51.8736 59.5858 53.9936C59.5852 54.6514 59.296 55.1528 58.7252 55.478C58.5607 55.5715 58.369 55.6162 58.1896 55.6833ZM52.0839 47.5585C54.4654 47.5585 56.4067 45.6154 56.4027 43.2353C56.3986 40.82 54.4552 38.927 51.9729 38.9203C49.7126 38.9142 47.7788 40.9 47.772 43.2347C47.7659 45.6209 49.6978 47.5585 52.0839 47.5585ZM52.0738 51.3099C52.1943 51.3099 52.3142 51.3099 52.4347 51.3099C53.1883 51.3099 53.942 51.3126 54.6956 51.3086C55.0152 51.3065 55.1981 51.1114 55.1554 50.8336C55.1215 50.6114 54.9495 50.4895 54.6536 50.4888C53.7876 50.4868 52.9216 50.4881 52.0562 50.4881C51.2145 50.4881 50.3722 50.4895 49.5305 50.4874C49.3362 50.4868 49.1601 50.5193 49.0552 50.7049C48.8933 50.9908 49.0944 51.3059 49.452 51.3086C50.3261 51.3133 51.2003 51.3093 52.0738 51.3099Z" fill="#8F8F8F"/>
<path d="M48.6996 44.0605C48.7186 43.8667 48.8093 43.6926 49.0192 43.6777C49.3686 43.6526 49.7241 43.6472 50.0708 43.6865C50.1819 43.6994 50.3457 43.8681 50.3633 43.9839C50.4771 44.7421 50.6735 45.4704 50.9944 46.1676C51.0263 46.236 51.0026 46.3661 50.9531 46.4243C50.9145 46.4697 50.7825 46.4819 50.7168 46.4528C49.6896 45.9962 49.0179 45.2258 48.7084 44.1425C48.703 44.1194 48.7037 44.0951 48.6996 44.0605Z" fill="#8F8F8F"/>
<path d="M54.6224 43.6539C54.7667 43.6539 54.9116 43.6438 55.0544 43.656C55.351 43.6817 55.521 43.887 55.4431 44.1682C55.1425 45.2454 54.464 46.0035 53.4442 46.4541C53.3792 46.4826 53.2479 46.4676 53.2093 46.4209C53.1619 46.364 53.1429 46.2366 53.1741 46.1675C53.4781 45.4907 53.6846 44.7888 53.7848 44.0537C53.8241 43.765 53.9649 43.6621 54.2615 43.6519C54.3814 43.6478 54.5019 43.6512 54.6218 43.6512C54.6224 43.6519 54.6224 43.6533 54.6224 43.6539Z" fill="#8F8F8F"/>
<path d="M49.5542 42.8221C49.3944 42.8221 49.2332 42.8329 49.0741 42.8194C48.8181 42.7977 48.6455 42.5714 48.7159 42.3268C49.0233 41.2543 49.691 40.4881 50.7107 40.0362C50.7811 40.005 50.9199 40.0219 50.9667 40.0728C51.0147 40.1243 51.0229 40.2611 50.9897 40.3329C50.6762 41.0152 50.4751 41.7266 50.3776 42.4705C50.3478 42.6961 50.1974 42.8214 49.9625 42.8255C49.8264 42.8282 49.6903 42.8262 49.5542 42.8262C49.5542 42.8248 49.5542 42.8235 49.5542 42.8221Z" fill="#8F8F8F"/>
<path d="M54.6049 42.8276C54.0306 42.8262 53.8573 42.9285 53.7178 42.1087C53.6169 41.5166 53.3657 40.9508 53.193 40.3702C53.1653 40.276 53.1544 40.1243 53.2073 40.0735C53.2621 40.0206 53.4199 40.0213 53.5052 40.0599C54.4708 40.4969 55.1093 41.232 55.4289 42.2402C55.54 42.5904 55.3612 42.8181 54.9901 42.8276C54.8615 42.8296 54.7328 42.8269 54.6049 42.8276Z" fill="#8F8F8F"/>
<path d="M52.1042 43.6519C52.2403 43.6519 52.3771 43.6444 52.5125 43.6532C52.8098 43.6729 52.9763 43.8551 52.935 44.1444C52.8368 44.8314 52.6161 45.4812 52.2782 46.0882C52.1699 46.2827 51.9952 46.2854 51.8895 46.0936C51.5469 45.4717 51.3201 44.8077 51.226 44.1024C51.1948 43.8694 51.3553 43.6851 51.6004 43.66C51.767 43.6431 51.9363 43.6566 52.1042 43.6566C52.1042 43.6559 52.1042 43.6539 52.1042 43.6519Z" fill="#8F8F8F"/>
<path d="M52.0866 42.8255C51.9342 42.8255 51.7812 42.8329 51.6289 42.8241C51.3627 42.8092 51.1921 42.6175 51.2287 42.36C51.3269 41.6703 51.5462 41.0185 51.8814 40.4081C51.9959 40.2001 52.1699 40.1974 52.2836 40.4034C52.6161 41.0057 52.8355 41.65 52.9344 42.3309C52.979 42.6392 52.8125 42.816 52.4956 42.8268C52.3595 42.8316 52.2227 42.8275 52.0859 42.8275C52.0866 42.8261 52.0866 42.8255 52.0866 42.8255Z" fill="#8F8F8F"/>
</g>
<path d="M58.1896 55.6833C54.1106 55.6833 50.0316 55.6833 45.9532 55.6833C44.815 55.3506 44.5712 54.5796 44.5739 53.6595C44.5922 48.3343 44.5821 43.009 44.5834 37.6838C44.5834 36.5618 45.2619 35.8877 46.3859 35.8877C50.1839 35.887 53.9813 35.887 57.7793 35.8877C58.9134 35.8877 59.5865 36.5659 59.5865 37.7048C59.5865 41.0138 59.5865 44.3234 59.5865 47.6324C59.5865 49.753 59.5879 51.8736 59.5858 53.9936C59.5852 54.6514 59.296 55.1528 58.7252 55.478C58.5607 55.5715 58.369 55.6162 58.1896 55.6833ZM52.0839 47.5585C54.4654 47.5585 56.4067 45.6154 56.4027 43.2353C56.3986 40.82 54.4552 38.927 51.9729 38.9203C49.7126 38.9142 47.7788 40.9 47.772 43.2347C47.7659 45.6209 49.6978 47.5585 52.0839 47.5585ZM52.0738 51.3099C52.1943 51.3099 52.3142 51.3099 52.4347 51.3099C53.1883 51.3099 53.942 51.3126 54.6956 51.3086C55.0152 51.3065 55.1981 51.1114 55.1554 50.8336C55.1215 50.6114 54.9495 50.4895 54.6536 50.4888C53.7876 50.4868 52.9216 50.4881 52.0562 50.4881C51.2145 50.4881 50.3722 50.4895 49.5305 50.4874C49.3362 50.4868 49.1601 50.5193 49.0552 50.7049C48.8933 50.9908 49.0944 51.3059 49.452 51.3086C50.3261 51.3133 51.2003 51.3093 52.0738 51.3099Z" fill="#DBF3F7"/>
<path d="M48.6996 44.0605C48.7186 43.8667 48.8093 43.6926 49.0192 43.6777C49.3686 43.6526 49.7241 43.6472 50.0708 43.6865C50.1819 43.6994 50.3457 43.8681 50.3633 43.9839C50.4771 44.7421 50.6735 45.4704 50.9944 46.1676C51.0263 46.236 51.0026 46.3661 50.9531 46.4243C50.9145 46.4697 50.7825 46.4819 50.7168 46.4528C49.6896 45.9962 49.0179 45.2258 48.7084 44.1425C48.703 44.1194 48.7037 44.0951 48.6996 44.0605Z" fill="#DBF3F7"/>
<path d="M54.6224 43.6539C54.7667 43.6539 54.9116 43.6438 55.0544 43.656C55.351 43.6817 55.521 43.887 55.4431 44.1682C55.1425 45.2454 54.464 46.0035 53.4442 46.4541C53.3792 46.4826 53.2479 46.4676 53.2093 46.4209C53.1619 46.364 53.1429 46.2366 53.1741 46.1675C53.4781 45.4907 53.6846 44.7888 53.7848 44.0537C53.8241 43.765 53.9649 43.6621 54.2615 43.6519C54.3814 43.6478 54.5019 43.6512 54.6218 43.6512C54.6224 43.6519 54.6224 43.6533 54.6224 43.6539Z" fill="#DBF3F7"/>
<path d="M49.5542 42.8221C49.3944 42.8221 49.2332 42.8329 49.0741 42.8194C48.8181 42.7977 48.6455 42.5714 48.7159 42.3268C49.0233 41.2543 49.691 40.4881 50.7107 40.0362C50.7811 40.005 50.9199 40.0219 50.9667 40.0728C51.0147 40.1243 51.0229 40.2611 50.9897 40.3329C50.6762 41.0152 50.4751 41.7266 50.3776 42.4705C50.3478 42.6961 50.1974 42.8214 49.9625 42.8255C49.8264 42.8282 49.6903 42.8262 49.5542 42.8262C49.5542 42.8248 49.5542 42.8235 49.5542 42.8221Z" fill="#DBF3F7"/>
<path d="M54.6049 42.8276C54.0306 42.8262 53.8573 42.9285 53.7178 42.1087C53.6169 41.5166 53.3657 40.9508 53.193 40.3702C53.1653 40.276 53.1544 40.1243 53.2073 40.0735C53.2621 40.0206 53.4199 40.0213 53.5052 40.0599C54.4708 40.4969 55.1093 41.232 55.4289 42.2402C55.54 42.5904 55.3612 42.8181 54.9901 42.8276C54.8615 42.8296 54.7328 42.8269 54.6049 42.8276Z" fill="#DBF3F7"/>
<path d="M52.1042 43.6519C52.2403 43.6519 52.3771 43.6444 52.5125 43.6532C52.8098 43.6729 52.9763 43.8551 52.935 44.1444C52.8368 44.8314 52.6161 45.4812 52.2782 46.0882C52.1699 46.2827 51.9952 46.2854 51.8895 46.0936C51.5469 45.4717 51.3201 44.8077 51.226 44.1024C51.1948 43.8694 51.3553 43.6851 51.6004 43.66C51.767 43.6431 51.9363 43.6566 52.1042 43.6566C52.1042 43.6559 52.1042 43.6539 52.1042 43.6519Z" fill="#DBF3F7"/>
<path d="M52.0866 42.8255C51.9342 42.8255 51.7812 42.8329 51.6289 42.8241C51.3627 42.8092 51.1921 42.6175 51.2287 42.36C51.3269 41.6703 51.5462 41.0185 51.8814 40.4081C51.9959 40.2001 52.1699 40.1974 52.2836 40.4034C52.6161 41.0057 52.8355 41.65 52.9344 42.3309C52.979 42.6392 52.8125 42.816 52.4956 42.8268C52.3595 42.8316 52.2227 42.8275 52.0859 42.8275C52.0866 42.8261 52.0866 42.8255 52.0866 42.8255Z" fill="#DBF3F7"/>
<circle cx="107.105" cy="45.6245" r="18.7851" fill="#60B175"/>
<path d="M123.601 46.0717C123.601 54.9227 116.228 62.1205 107.105 62.1205C97.9821 62.1205 90.6092 54.9227 90.6092 46.0717C90.6092 37.2207 97.9821 30.0229 107.105 30.0229C116.228 30.0229 123.601 37.2207 123.601 46.0717Z" stroke="#2D7E42"/>
<g filter="url(#filter1_f_3_799)">
<path d="M116.887 43.6823C116.823 44.0431 116.781 44.4094 116.689 44.7631C116.572 45.2127 116.413 45.6513 116.268 46.1104C115.978 45.9524 115.72 45.8101 115.461 45.6702C114.539 45.1734 113.563 44.8315 112.538 44.6232C112.41 44.5972 112.286 44.5249 112.175 44.451C111.746 44.1633 111.321 43.8662 110.873 43.5573C109.977 46.0184 109.104 48.4206 108.218 50.8527C110.716 51.0862 113.032 51.8274 115.198 53.1205C115.077 53.1811 114.971 53.2251 114.873 53.284C114.615 53.442 114.357 53.6 114.106 53.769C113.653 54.0732 113.367 54.0795 112.915 53.762C112.378 53.3846 111.819 53.0561 111.167 52.9201C109.957 52.6685 108.813 52.8187 107.761 53.5002C107.606 53.6 107.455 53.7054 107.302 53.8083C106.934 54.0575 106.606 54.0599 106.242 53.8099C105.802 53.5088 105.364 53.2023 104.847 53.0411C103.505 52.6229 102.225 52.7354 101.023 53.4963C100.857 53.6016 100.696 53.7171 100.532 53.8272C100.202 54.0489 99.871 54.0512 99.5355 53.8374C99.1545 53.5937 98.7719 53.3516 98.3767 53.1001C98.5943 52.9751 98.8198 52.8375 99.0531 52.7141C100.959 51.7072 102.98 51.072 105.13 50.8755C105.693 50.8244 106.26 50.8134 106.825 50.7922C106.93 50.7883 106.989 50.7686 107.029 50.6594C107.927 48.1809 108.829 45.7032 109.739 43.2028C109.671 43.1847 109.611 43.1634 109.55 43.154C109.212 43.1037 108.874 43.0204 108.536 43.018C108.162 43.0157 107.835 42.9347 107.508 42.7547C106.447 42.1722 105.292 41.8633 104.106 41.6629C104.08 41.6581 104.055 41.6518 104.014 41.6432C104.525 39.9178 105.479 38.5351 107.043 37.6162C108.598 36.7028 110.258 36.4819 112.029 36.9087C112.122 36.6438 112.212 36.386 112.303 36.1282C112.317 36.1282 112.33 36.1282 112.343 36.1282C112.697 36.2705 113.051 36.4127 113.413 36.5589C113.366 36.6926 113.323 36.8152 113.28 36.9386C113.237 37.0604 113.193 37.1831 113.146 37.3143C113.251 37.3709 113.343 37.4197 113.434 37.47C115.201 38.4416 116.298 39.917 116.736 41.8829C116.801 42.1762 116.837 42.4749 116.887 42.7712C116.887 43.0762 116.887 43.3796 116.887 43.6823Z" fill="#8F8F8F"/>
<path d="M116.887 55.1885C116.453 55.1531 116.073 55.2986 115.721 55.5383C115.282 55.8386 114.849 56.1522 114.312 56.267C113.382 56.4651 112.51 56.3558 111.709 55.8126C111.357 55.5737 111.023 55.2931 110.584 55.2184C110.012 55.1209 109.473 55.1877 108.984 55.532C108.543 55.8425 108.103 56.1554 107.557 56.2693C106.634 56.4627 105.768 56.355 104.972 55.8166C104.614 55.5745 104.277 55.2883 103.83 55.216C103.264 55.124 102.731 55.1877 102.247 55.5281C101.801 55.8425 101.355 56.1601 100.803 56.2733C99.8866 56.4611 99.0256 56.355 98.2352 55.8221C97.8715 55.5768 97.5297 55.286 97.0749 55.2144C96.946 55.194 96.8148 55.1846 96.6695 55.1689C96.6695 54.786 96.6695 54.4017 96.6695 54.0015C97.2886 53.9843 97.8511 54.1485 98.3664 54.4803C98.5322 54.5872 98.694 54.7004 98.8574 54.8112C99.5936 55.3088 100.467 55.3072 101.205 54.8025C101.656 54.4936 102.103 54.1784 102.656 54.0715C103.551 53.8978 104.394 54.0015 105.169 54.5172C105.518 54.7491 105.841 55.0313 106.268 55.1201C106.861 55.2443 107.418 55.1759 107.926 54.8206C108.379 54.5031 108.832 54.1839 109.39 54.0739C110.292 53.8962 111.141 54.0015 111.921 54.5227C112.264 54.7515 112.583 55.0281 113.002 55.1178C113.602 55.2459 114.165 55.1759 114.677 54.8151C115.124 54.5007 115.571 54.1776 116.125 54.0794C116.375 54.0353 116.633 54.0267 116.887 54.0023C116.887 54.3977 116.887 54.7931 116.887 55.1885Z" fill="#8F8F8F"/>
<path d="M101.002 41.7375C101.271 42.2461 101.516 42.7107 101.774 43.1981C102.237 42.9064 102.69 42.6227 103.142 42.3381C103.142 42.8828 103.142 43.4111 103.142 43.9401C103.656 43.9401 104.186 43.9401 104.743 43.9401C104.461 44.3889 104.179 44.8362 103.883 45.3079C104.361 45.5618 104.834 45.8125 105.343 46.0821C104.845 46.3455 104.373 46.5954 103.882 46.8548C104.173 47.317 104.457 47.7698 104.743 48.2242C104.195 48.2242 103.667 48.2242 103.142 48.2242C103.142 48.7398 103.142 49.2735 103.142 49.8262C102.694 49.544 102.245 49.2625 101.774 48.9662C101.52 49.4473 101.27 49.9197 101.001 50.4275C100.735 49.9236 100.485 49.4512 100.228 48.967C99.764 49.2586 99.3147 49.5408 98.859 49.8269C98.859 49.2783 98.859 48.7453 98.859 48.2249C98.3397 48.2249 97.8102 48.2249 97.2587 48.2249C97.5415 47.7745 97.8259 47.321 98.1182 46.8556C97.6319 46.5978 97.1574 46.347 96.6577 46.0821C97.1574 45.818 97.6272 45.5696 98.1182 45.3094C97.8306 44.8519 97.5486 44.4039 97.2579 43.9409C97.8079 43.9409 98.3389 43.9409 98.859 43.9409C98.859 43.415 98.859 42.886 98.859 42.3381C99.3099 42.6219 99.7633 42.9064 100.228 43.1988C100.487 42.7115 100.735 42.243 101.002 41.7375ZM98.8292 46.0766C98.8268 47.2746 99.7963 48.2509 100.995 48.2587C102.185 48.2658 103.17 47.2856 103.174 46.0892C103.178 44.8897 102.209 43.9165 101.008 43.9134C99.8049 43.911 98.8315 44.8771 98.8292 46.0766Z" fill="#8F8F8F"/>
</g>
<path d="M116.887 43.6823C116.823 44.0431 116.781 44.4094 116.689 44.7631C116.572 45.2127 116.413 45.6513 116.268 46.1104C115.978 45.9524 115.72 45.8101 115.461 45.6702C114.539 45.1734 113.563 44.8315 112.538 44.6232C112.41 44.5972 112.286 44.5249 112.175 44.451C111.746 44.1633 111.321 43.8662 110.873 43.5573C109.977 46.0184 109.104 48.4206 108.218 50.8527C110.716 51.0862 113.032 51.8274 115.198 53.1205C115.077 53.1811 114.971 53.2251 114.873 53.284C114.615 53.442 114.357 53.6 114.106 53.769C113.653 54.0732 113.367 54.0795 112.915 53.762C112.378 53.3846 111.819 53.0561 111.167 52.9201C109.957 52.6685 108.813 52.8187 107.761 53.5002C107.606 53.6 107.455 53.7054 107.302 53.8083C106.934 54.0575 106.606 54.0599 106.242 53.8099C105.802 53.5088 105.364 53.2023 104.847 53.0411C103.505 52.6229 102.225 52.7354 101.023 53.4963C100.857 53.6016 100.696 53.7171 100.532 53.8272C100.202 54.0489 99.871 54.0512 99.5355 53.8374C99.1545 53.5937 98.7719 53.3516 98.3767 53.1001C98.5943 52.9751 98.8198 52.8375 99.0531 52.7141C100.959 51.7072 102.98 51.072 105.13 50.8755C105.693 50.8244 106.26 50.8134 106.825 50.7922C106.93 50.7883 106.989 50.7686 107.029 50.6594C107.927 48.1809 108.829 45.7032 109.739 43.2028C109.671 43.1847 109.611 43.1634 109.55 43.154C109.212 43.1037 108.874 43.0204 108.536 43.018C108.162 43.0157 107.835 42.9347 107.508 42.7547C106.447 42.1722 105.292 41.8633 104.106 41.6629C104.08 41.6581 104.055 41.6518 104.014 41.6432C104.525 39.9178 105.479 38.5351 107.043 37.6162C108.598 36.7028 110.258 36.4819 112.029 36.9087C112.122 36.6438 112.212 36.386 112.303 36.1282C112.317 36.1282 112.33 36.1282 112.343 36.1282C112.697 36.2705 113.051 36.4127 113.413 36.5589C113.366 36.6926 113.323 36.8152 113.28 36.9386C113.237 37.0604 113.193 37.1831 113.146 37.3143C113.251 37.3709 113.343 37.4197 113.434 37.47C115.201 38.4416 116.298 39.917 116.736 41.8829C116.801 42.1762 116.837 42.4749 116.887 42.7712C116.887 43.0762 116.887 43.3796 116.887 43.6823Z" fill="#DBF3F7"/>
<path d="M116.887 55.1885C116.453 55.1531 116.073 55.2986 115.721 55.5383C115.282 55.8386 114.849 56.1522 114.312 56.267C113.382 56.4651 112.51 56.3558 111.709 55.8126C111.357 55.5737 111.023 55.2931 110.584 55.2184C110.012 55.1209 109.473 55.1877 108.984 55.532C108.543 55.8425 108.103 56.1554 107.557 56.2693C106.634 56.4627 105.768 56.355 104.972 55.8166C104.614 55.5745 104.277 55.2883 103.83 55.216C103.264 55.124 102.731 55.1877 102.247 55.5281C101.801 55.8425 101.355 56.1601 100.803 56.2733C99.8866 56.4611 99.0256 56.355 98.2352 55.8221C97.8715 55.5768 97.5297 55.286 97.0749 55.2144C96.946 55.194 96.8148 55.1846 96.6695 55.1689C96.6695 54.786 96.6695 54.4017 96.6695 54.0015C97.2886 53.9843 97.8511 54.1485 98.3664 54.4803C98.5322 54.5872 98.694 54.7004 98.8574 54.8112C99.5936 55.3088 100.467 55.3072 101.205 54.8025C101.656 54.4936 102.103 54.1784 102.656 54.0715C103.551 53.8978 104.394 54.0015 105.169 54.5172C105.518 54.7491 105.841 55.0313 106.268 55.1201C106.861 55.2443 107.418 55.1759 107.926 54.8206C108.379 54.5031 108.832 54.1839 109.39 54.0739C110.292 53.8962 111.141 54.0015 111.921 54.5227C112.264 54.7515 112.583 55.0281 113.002 55.1178C113.602 55.2459 114.165 55.1759 114.677 54.8151C115.124 54.5007 115.571 54.1776 116.125 54.0794C116.375 54.0353 116.633 54.0267 116.887 54.0023C116.887 54.3977 116.887 54.7931 116.887 55.1885Z" fill="#DBF3F7"/>
<path d="M101.002 41.7375C101.271 42.2461 101.516 42.7107 101.774 43.1981C102.237 42.9064 102.69 42.6227 103.142 42.3381C103.142 42.8828 103.142 43.4111 103.142 43.9401C103.656 43.9401 104.186 43.9401 104.743 43.9401C104.461 44.3889 104.179 44.8362 103.883 45.3079C104.361 45.5618 104.834 45.8125 105.343 46.0821C104.845 46.3455 104.373 46.5954 103.882 46.8548C104.173 47.317 104.457 47.7698 104.743 48.2242C104.195 48.2242 103.667 48.2242 103.142 48.2242C103.142 48.7398 103.142 49.2735 103.142 49.8262C102.694 49.544 102.245 49.2625 101.774 48.9662C101.52 49.4473 101.27 49.9197 101.001 50.4275C100.735 49.9236 100.485 49.4512 100.228 48.967C99.764 49.2586 99.3147 49.5408 98.859 49.8269C98.859 49.2783 98.859 48.7453 98.859 48.2249C98.3397 48.2249 97.8102 48.2249 97.2587 48.2249C97.5415 47.7745 97.8259 47.321 98.1182 46.8556C97.6319 46.5978 97.1574 46.347 96.6577 46.0821C97.1574 45.818 97.6272 45.5696 98.1182 45.3094C97.8306 44.8519 97.5486 44.4039 97.2579 43.9409C97.8079 43.9409 98.3389 43.9409 98.859 43.9409C98.859 43.415 98.859 42.886 98.859 42.3381C99.3099 42.6219 99.7633 42.9064 100.228 43.1988C100.487 42.7115 100.735 42.243 101.002 41.7375ZM98.8292 46.0766C98.8268 47.2746 99.7963 48.2509 100.995 48.2587C102.185 48.2658 103.17 47.2856 103.174 46.0892C103.178 44.8897 102.209 43.9165 101.008 43.9134C99.8049 43.911 98.8315 44.8771 98.8292 46.0766Z" fill="#DBF3F7"/>
<ellipse cx="163.083" cy="45.6245" rx="19.2324" ry="18.7851" fill="#60B175"/>
<circle cx="162.917" cy="45.9062" r="16.0488" stroke="#2D7E42"/>
<g filter="url(#filter2_f_3_799)">
<path d="M174.508 43.1629C174.512 43.4207 174.577 43.6982 174.501 43.9298C174.431 44.1458 174.244 44.359 174.053 44.4948C172.17 45.8348 170.275 47.1576 168.384 48.4851C164.788 51.0105 161.185 53.5286 157.599 56.0692C156.985 56.5039 156.3 56.3531 155.897 55.7725C154.089 53.162 152.254 50.5698 150.43 47.9704C149.977 47.3242 150.077 46.7456 150.722 46.2925C156.156 42.4771 161.593 38.6655 167.021 34.8395C167.555 34.4627 168.052 34.3635 168.603 34.7528C170.572 37.5568 172.54 40.3602 174.508 43.1629ZM164.984 49.1565C167.046 47.7105 167.547 44.863 166.103 42.8C164.66 40.7412 161.8 40.2366 159.743 41.678C157.686 43.1198 157.184 45.9796 158.628 48.0379C160.074 50.1013 162.922 50.6021 164.984 49.1565ZM170.414 39.7758C169.825 38.9379 169.237 38.0988 168.648 37.2618C168.47 37.0085 168.325 36.9782 168.054 37.1282C167.753 37.2937 167.403 37.2379 167.174 36.9885C166.933 36.7274 166.814 36.7133 166.52 36.92C165.353 37.7385 164.186 38.5584 163.019 39.3776C162.96 39.4195 162.895 39.4593 162.849 39.5142C162.733 39.6525 162.713 39.8098 162.825 39.9569C162.942 40.1116 163.102 40.1364 163.275 40.0503C163.34 40.0182 163.397 39.9704 163.457 39.928C164.505 39.1926 165.553 38.4595 166.598 37.7202C166.721 37.6327 166.817 37.6145 166.951 37.7031C167.278 37.9191 167.642 37.9762 168.022 37.8865C168.16 37.8537 168.237 37.8929 168.315 38.004C169.326 39.4487 170.338 40.8926 171.356 42.3319C171.449 42.4635 171.439 42.5597 171.357 42.6863C171.159 42.9944 171.091 43.3381 171.178 43.694C171.223 43.8801 171.157 43.9699 171.015 44.0691C169.946 44.8119 168.882 45.5618 167.818 46.3105C167.594 46.4682 167.538 46.6739 167.664 46.8513C167.788 47.0284 167.996 47.0425 168.223 46.8831C169.42 46.0436 170.617 45.203 171.813 44.3622C172.062 44.1876 172.092 44.0502 171.948 43.7884C171.774 43.4735 171.826 43.1353 172.086 42.8892C172.343 42.6474 172.355 42.5394 172.155 42.2543C171.575 41.4278 170.994 40.6017 170.414 39.7758ZM154.316 51.0621C154.909 51.9064 155.501 52.7511 156.095 53.5945C156.251 53.815 156.405 53.8558 156.618 53.7434C157.021 53.5291 157.303 53.579 157.611 53.9191C157.756 54.0798 157.922 54.1118 158.098 53.9895C159.338 53.1225 160.577 52.2525 161.814 51.3804C161.988 51.2568 162.025 51.0612 161.922 50.8999C161.822 50.7444 161.618 50.6981 161.436 50.7954C161.372 50.8298 161.314 50.8753 161.254 50.9176C160.213 51.6486 159.17 52.3771 158.132 53.1132C157.999 53.2074 157.9 53.2162 157.761 53.1261C157.448 52.9219 157.097 52.8627 156.732 52.9506C156.58 52.9874 156.493 52.946 156.404 52.8186C155.399 51.3787 154.39 49.9421 153.378 48.5071C153.295 48.3897 153.281 48.3003 153.364 48.1736C153.574 47.854 153.642 47.498 153.553 47.1249C153.513 46.9621 153.562 46.871 153.694 46.779C154.452 46.2549 155.204 45.7227 155.958 45.1935C156.293 44.9582 156.63 44.7256 156.962 44.4866C157.157 44.3459 157.188 44.113 157.043 43.9551C156.906 43.8071 156.71 43.8073 156.488 43.9632C155.303 44.7943 154.118 45.6264 152.934 46.4587C152.668 46.6458 152.64 46.7773 152.796 47.0679C152.957 47.3706 152.897 47.7208 152.645 47.9461C152.394 48.1698 152.379 48.3014 152.577 48.5833C153.156 49.4101 153.737 50.2362 154.316 51.0621ZM157.226 50.3112C157.697 49.9785 157.813 49.3274 157.485 48.8546C157.153 48.3767 156.483 48.2576 156.01 48.5927C155.543 48.9229 155.427 49.5828 155.753 50.0531C156.087 50.5341 156.746 50.6501 157.226 50.3112ZM168.714 42.2451C169.187 41.9139 169.307 41.264 168.981 40.7894C168.651 40.3091 167.983 40.187 167.507 40.5189C167.039 40.8459 166.92 41.507 167.243 41.9773C167.575 42.4619 168.234 42.5812 168.714 42.2451Z" fill="#8F8F8F"/>
<path d="M164.58 48.5825C162.833 49.8061 160.423 49.3791 159.199 47.6293C157.979 45.8857 158.411 43.4636 160.158 42.2462C161.895 41.036 164.308 41.4644 165.527 43.2006C166.751 44.9461 166.327 47.3574 164.58 48.5825ZM162.859 43.6787C162.566 43.324 162.158 43.1044 161.658 43.1687C161.369 43.2055 161.169 43.1954 161.019 42.9081C160.933 42.7421 160.699 42.729 160.552 42.8313C160.407 42.9311 160.365 43.1324 160.455 43.3024C160.479 43.3472 160.506 43.3937 160.541 43.4294C160.677 43.5669 160.656 43.6845 160.556 43.8491C160.088 44.6221 160.476 45.6226 161.339 45.8946C161.769 46.0301 162.173 45.9618 162.554 45.7173C162.96 45.4567 163.457 45.6006 163.619 46.0159C163.745 46.3403 163.631 46.6937 163.338 46.8791C163.054 47.0597 162.677 47.0031 162.442 46.7437C162.422 46.7224 162.407 46.6963 162.387 46.675C162.248 46.5237 162.038 46.497 161.895 46.6111C161.752 46.7251 161.715 46.9409 161.838 47.1049C162.173 47.555 162.632 47.7562 163.18 47.6619C163.414 47.6217 163.538 47.6657 163.658 47.8614C163.795 48.0864 163.998 48.1293 164.177 48.0069C164.353 47.8859 164.374 47.6814 164.232 47.466C164.211 47.4357 164.193 47.403 164.168 47.3769C164.06 47.264 164.071 47.1667 164.156 47.0313C164.537 46.4223 164.413 45.6647 163.874 45.2066C163.404 44.8082 162.748 44.7754 162.177 45.1219C161.763 45.3739 161.27 45.2346 161.11 44.8219C160.986 44.5 161.108 44.1278 161.394 43.9575C161.701 43.7752 162.066 43.8448 162.32 44.1344C162.485 44.3213 162.674 44.3544 162.837 44.2255C162.989 44.1036 163.008 43.8974 162.859 43.6787Z" fill="#8F8F8F"/>
<path d="M156.824 49.7336C156.667 49.8486 156.451 49.8164 156.337 49.6605C156.225 49.5085 156.259 49.2828 156.411 49.1708C156.561 49.0596 156.789 49.0957 156.9 49.2471C157.014 49.4029 156.98 49.6191 156.824 49.7336Z" fill="#8F8F8F"/>
<path d="M167.911 41.0972C168.064 40.9894 168.291 41.0302 168.398 41.1843C168.508 41.3422 168.469 41.558 168.311 41.6683C168.152 41.7801 167.937 41.7425 167.826 41.5844C167.717 41.4301 167.757 41.2044 167.911 41.0972Z" fill="#8F8F8F"/>
</g>
<path d="M174.508 43.1629C174.512 43.4207 174.577 43.6982 174.501 43.9298C174.431 44.1458 174.244 44.359 174.053 44.4948C172.17 45.8348 170.275 47.1576 168.384 48.4851C164.788 51.0105 161.185 53.5286 157.599 56.0692C156.985 56.5039 156.3 56.3531 155.897 55.7725C154.089 53.162 152.254 50.5698 150.43 47.9704C149.977 47.3242 150.077 46.7456 150.722 46.2925C156.156 42.4771 161.593 38.6655 167.021 34.8395C167.555 34.4627 168.052 34.3635 168.603 34.7528C170.572 37.5568 172.54 40.3602 174.508 43.1629ZM164.984 49.1565C167.046 47.7105 167.547 44.863 166.103 42.8C164.66 40.7412 161.8 40.2366 159.743 41.678C157.686 43.1198 157.184 45.9796 158.628 48.0379C160.074 50.1013 162.922 50.6021 164.984 49.1565ZM170.414 39.7758C169.825 38.9379 169.237 38.0988 168.648 37.2618C168.47 37.0085 168.325 36.9782 168.054 37.1282C167.753 37.2937 167.403 37.2379 167.174 36.9885C166.933 36.7274 166.814 36.7133 166.52 36.92C165.353 37.7385 164.186 38.5584 163.019 39.3776C162.96 39.4195 162.895 39.4593 162.849 39.5142C162.733 39.6525 162.713 39.8098 162.825 39.9569C162.942 40.1116 163.102 40.1364 163.275 40.0503C163.34 40.0182 163.397 39.9704 163.457 39.928C164.505 39.1926 165.553 38.4595 166.598 37.7202C166.721 37.6327 166.817 37.6145 166.951 37.7031C167.278 37.9191 167.642 37.9762 168.022 37.8865C168.16 37.8537 168.237 37.8929 168.315 38.004C169.326 39.4487 170.338 40.8926 171.356 42.3319C171.449 42.4635 171.439 42.5597 171.357 42.6863C171.159 42.9944 171.091 43.3381 171.178 43.694C171.223 43.8801 171.157 43.9699 171.015 44.0691C169.946 44.8119 168.882 45.5618 167.818 46.3105C167.594 46.4682 167.538 46.6739 167.664 46.8513C167.788 47.0284 167.996 47.0425 168.223 46.8831C169.42 46.0436 170.617 45.203 171.813 44.3622C172.062 44.1876 172.092 44.0502 171.948 43.7884C171.774 43.4735 171.826 43.1353 172.086 42.8892C172.343 42.6474 172.355 42.5394 172.155 42.2543C171.575 41.4278 170.994 40.6017 170.414 39.7758ZM154.316 51.0621C154.909 51.9064 155.501 52.7511 156.095 53.5945C156.251 53.815 156.405 53.8558 156.618 53.7434C157.021 53.5291 157.303 53.579 157.611 53.9191C157.756 54.0798 157.922 54.1118 158.098 53.9895C159.338 53.1225 160.577 52.2525 161.814 51.3804C161.988 51.2568 162.025 51.0612 161.922 50.8999C161.822 50.7444 161.618 50.6981 161.436 50.7954C161.372 50.8298 161.314 50.8753 161.254 50.9176C160.213 51.6486 159.17 52.3771 158.132 53.1132C157.999 53.2074 157.9 53.2162 157.761 53.1261C157.448 52.9219 157.097 52.8627 156.732 52.9506C156.58 52.9874 156.493 52.946 156.404 52.8186C155.399 51.3787 154.39 49.9421 153.378 48.5071C153.295 48.3897 153.281 48.3003 153.364 48.1736C153.574 47.854 153.642 47.498 153.553 47.1249C153.513 46.9621 153.562 46.871 153.694 46.779C154.452 46.2549 155.204 45.7227 155.958 45.1935C156.293 44.9582 156.63 44.7256 156.962 44.4866C157.157 44.3459 157.188 44.113 157.043 43.9551C156.906 43.8071 156.71 43.8073 156.488 43.9632C155.303 44.7943 154.118 45.6264 152.934 46.4587C152.668 46.6458 152.64 46.7773 152.796 47.0679C152.957 47.3706 152.897 47.7208 152.645 47.9461C152.394 48.1698 152.379 48.3014 152.577 48.5833C153.156 49.4101 153.737 50.2362 154.316 51.0621ZM157.226 50.3112C157.697 49.9785 157.813 49.3274 157.485 48.8546C157.153 48.3767 156.483 48.2576 156.01 48.5927C155.543 48.9229 155.427 49.5828 155.753 50.0531C156.087 50.5341 156.746 50.6501 157.226 50.3112ZM168.714 42.2451C169.187 41.9139 169.307 41.264 168.981 40.7894C168.651 40.3091 167.983 40.187 167.507 40.5189C167.039 40.8459 166.92 41.507 167.243 41.9773C167.575 42.4619 168.234 42.5812 168.714 42.2451Z" fill="#DBF3F7"/>
<path d="M164.58 48.5825C162.833 49.8061 160.423 49.3791 159.199 47.6293C157.979 45.8857 158.411 43.4636 160.158 42.2462C161.895 41.036 164.308 41.4644 165.527 43.2006C166.751 44.9461 166.327 47.3574 164.58 48.5825ZM162.859 43.6787C162.566 43.324 162.158 43.1044 161.658 43.1687C161.369 43.2055 161.169 43.1954 161.019 42.9081C160.933 42.7421 160.699 42.729 160.552 42.8313C160.407 42.9311 160.365 43.1324 160.455 43.3024C160.479 43.3472 160.506 43.3937 160.541 43.4294C160.677 43.5669 160.656 43.6845 160.556 43.8491C160.088 44.6221 160.476 45.6226 161.339 45.8946C161.769 46.0301 162.173 45.9618 162.554 45.7173C162.96 45.4567 163.457 45.6006 163.619 46.0159C163.745 46.3403 163.631 46.6937 163.338 46.8791C163.054 47.0597 162.677 47.0031 162.442 46.7437C162.422 46.7224 162.407 46.6963 162.387 46.675C162.248 46.5237 162.038 46.497 161.895 46.6111C161.752 46.7251 161.715 46.9409 161.838 47.1049C162.173 47.555 162.632 47.7562 163.18 47.6619C163.414 47.6217 163.538 47.6657 163.658 47.8614C163.795 48.0864 163.998 48.1293 164.177 48.0069C164.353 47.8859 164.374 47.6814 164.232 47.466C164.211 47.4357 164.193 47.403 164.168 47.3769C164.06 47.264 164.071 47.1667 164.156 47.0313C164.537 46.4223 164.413 45.6647 163.874 45.2066C163.404 44.8082 162.748 44.7754 162.177 45.1219C161.763 45.3739 161.27 45.2346 161.11 44.8219C160.986 44.5 161.108 44.1278 161.394 43.9575C161.701 43.7752 162.066 43.8448 162.32 44.1344C162.485 44.3213 162.674 44.3544 162.837 44.2255C162.989 44.1036 163.008 43.8974 162.859 43.6787Z" fill="#DBF3F7"/>
<path d="M156.824 49.7336C156.667 49.8486 156.451 49.8164 156.337 49.6605C156.225 49.5085 156.259 49.2828 156.411 49.1708C156.561 49.0596 156.789 49.0957 156.9 49.2471C157.014 49.4029 156.98 49.6191 156.824 49.7336Z" fill="#DBF3F7"/>
<path d="M167.911 41.0972C168.064 40.9894 168.291 41.0302 168.398 41.1843C168.508 41.3422 168.469 41.558 168.311 41.6683C168.152 41.7801 167.937 41.7425 167.826 41.5844C167.717 41.4301 167.757 41.2044 167.911 41.0972Z" fill="#DBF3F7"/>
<circle cx="219.579" cy="45.3041" r="19.3041" fill="#60B175"/>
<g filter="url(#filter3_f_3_799)">
<path d="M212.097 45.4892C212.097 42.6587 212.093 39.8276 212.098 36.9971C212.1 35.5994 212.97 34.4707 214.311 34.1771C214.749 34.0809 215.215 34.1083 215.669 34.0907C215.958 34.0795 216.247 34.0858 216.537 34.0893C217.031 34.095 217.318 34.3288 217.427 34.8107C217.618 35.6535 218.183 36.1985 218.982 36.3088C219.91 36.4366 220.779 35.8403 220.995 34.9279C221.152 34.2663 221.375 34.0844 222.054 34.0907C222.676 34.0964 223.304 34.0626 223.917 34.1399C225.283 34.3127 226.288 35.4505 226.356 36.8243C226.36 36.9121 226.361 36.9992 226.361 37.087C226.361 42.696 226.363 48.3043 226.361 53.9133C226.36 55.2751 225.625 56.3539 224.404 56.755C224.117 56.8491 223.806 56.8912 223.503 56.906C223.005 56.9306 222.504 56.9137 222.004 56.913C221.382 56.9123 221.137 56.7149 220.999 56.1067C220.701 54.7905 219.157 54.2363 218.098 55.0672C217.739 55.3496 217.529 55.7232 217.431 56.1671C217.314 56.6939 217.044 56.9158 216.512 56.9123C215.854 56.9074 215.189 56.9573 214.543 56.8667C213.07 56.6602 212.1 55.4964 212.097 54.0081C212.093 51.1678 212.097 48.3281 212.097 45.4892ZM220.481 48.0423C220.586 48.0872 220.666 48.1167 220.743 48.1533C221.271 48.4068 221.795 48.6716 222.33 48.9118C222.5 48.9884 222.699 49.0417 222.883 49.0375C223.29 49.0277 223.574 48.8001 223.716 48.4223C223.866 48.0275 223.76 47.6785 223.458 47.3947C222.543 46.5385 221.627 45.6838 220.701 44.8389C220.539 44.6907 220.46 44.5474 220.47 44.3226C220.489 43.9033 220.483 43.4819 220.473 43.0612C220.458 42.4024 219.921 41.8538 219.275 41.8236C218.622 41.7934 218.037 42.2872 217.988 42.9537C217.953 43.4334 217.985 43.9174 217.961 44.3978C217.955 44.5277 217.889 44.6878 217.795 44.7763C216.879 45.6437 215.949 46.4964 215.027 47.3575C214.63 47.729 214.561 48.2249 214.84 48.6358C215.116 49.0424 215.605 49.1562 216.098 48.923C216.636 48.6688 217.171 48.4082 217.708 48.1526C217.781 48.1181 217.858 48.0922 217.963 48.0507C217.963 48.7081 217.971 49.3199 217.956 49.9316C217.954 50.0405 217.876 50.1613 217.803 50.2512C217.61 50.4886 217.404 50.7168 217.195 50.9402C216.989 51.1593 216.912 51.4052 217.035 51.6854C217.16 51.9705 217.408 52.0576 217.701 52.0576C218.718 52.0562 219.734 52.0562 220.751 52.0576C221.045 52.0576 221.289 51.967 221.416 51.6826C221.544 51.3981 221.453 51.1558 221.253 50.9381C221.052 50.7183 220.849 50.4998 220.659 50.2709C220.583 50.1795 220.491 50.0637 220.489 49.9569C220.473 49.329 220.481 48.7011 220.481 48.0423ZM216.559 39.0887C216.344 39.0915 216.159 39.279 216.159 39.496C216.158 39.7229 216.358 39.9154 216.583 39.9041C216.802 39.8936 216.975 39.7054 216.968 39.4855C216.961 39.2678 216.773 39.0859 216.559 39.0887ZM219.071 39.0887C218.853 39.0943 218.678 39.2783 218.68 39.5003C218.682 39.7222 218.86 39.9034 219.079 39.9055C219.309 39.9076 219.491 39.7159 219.482 39.4806C219.474 39.2615 219.287 39.0831 219.071 39.0887ZM223.708 39.5031C223.711 39.7222 223.894 39.9048 224.112 39.9041C224.328 39.9041 224.516 39.7194 224.519 39.5038C224.523 39.279 224.324 39.0817 224.1 39.0887C223.884 39.0957 223.705 39.2846 223.708 39.5031ZM221.593 39.0887C221.377 39.0901 221.2 39.2713 221.199 39.4925C221.198 39.718 221.365 39.8929 221.589 39.8971C221.819 39.902 222.006 39.7138 221.999 39.4834C221.992 39.2664 221.808 39.0873 221.593 39.0887ZM214.039 39.0887C213.826 39.095 213.642 39.286 213.644 39.4989C213.646 39.7229 213.848 39.9104 214.074 39.8971C214.292 39.8845 214.468 39.6906 214.457 39.4778C214.445 39.2643 214.25 39.0831 214.039 39.0887Z" fill="#8F8F8F"/>
<path d="M220.316 51.2136C219.583 51.2136 218.865 51.2136 218.093 51.2136C218.173 51.1146 218.221 51.0366 218.285 50.9776C218.689 50.6075 218.817 50.151 218.812 49.608C218.794 47.5052 218.805 45.4016 218.805 43.2988C218.805 42.8718 218.944 42.6618 219.222 42.6632C219.498 42.6646 219.636 42.8781 219.636 43.3023C219.636 45.3876 219.647 47.4736 219.629 49.5589C219.624 50.118 219.745 50.5963 220.167 50.979C220.218 51.0261 220.259 51.0837 220.303 51.1385C220.312 51.1504 220.309 51.1708 220.316 51.2136Z" fill="#8F8F8F"/>
<path d="M220.476 45.7648C221.08 46.3246 221.63 46.8345 222.179 47.3437C222.403 47.5516 222.63 47.7574 222.849 47.9716C222.89 48.0123 222.898 48.0875 222.921 48.1472C222.852 48.1563 222.767 48.1942 222.714 48.1689C222.003 47.8339 221.295 47.4926 220.59 47.1442C220.536 47.1175 220.482 47.0283 220.481 46.9665C220.471 46.5929 220.476 46.2185 220.476 45.7648Z" fill="#8F8F8F"/>
<path d="M217.968 45.7682C217.968 46.2247 217.973 46.5998 217.963 46.9741C217.961 47.0352 217.904 47.123 217.848 47.1497C217.144 47.4974 216.436 47.838 215.726 48.1737C215.677 48.1969 215.601 48.1653 215.538 48.1597C215.556 48.0986 215.555 48.0171 215.595 47.9799C216.364 47.2579 217.137 46.5408 217.968 45.7682Z" fill="#8F8F8F"/>
</g>
<path d="M212.097 45.4892C212.097 42.6587 212.093 39.8276 212.098 36.9971C212.1 35.5994 212.97 34.4707 214.311 34.1771C214.749 34.0809 215.215 34.1083 215.669 34.0907C215.958 34.0795 216.247 34.0858 216.537 34.0893C217.031 34.095 217.318 34.3288 217.427 34.8107C217.618 35.6535 218.183 36.1985 218.982 36.3088C219.91 36.4366 220.779 35.8403 220.995 34.9279C221.152 34.2663 221.375 34.0844 222.054 34.0907C222.676 34.0964 223.304 34.0626 223.917 34.1399C225.283 34.3127 226.288 35.4505 226.356 36.8243C226.36 36.9121 226.361 36.9992 226.361 37.087C226.361 42.696 226.363 48.3043 226.361 53.9133C226.36 55.2751 225.625 56.3539 224.404 56.755C224.117 56.8491 223.806 56.8912 223.503 56.906C223.005 56.9306 222.504 56.9137 222.004 56.913C221.382 56.9123 221.137 56.7149 220.999 56.1067C220.701 54.7905 219.157 54.2363 218.098 55.0672C217.739 55.3496 217.529 55.7232 217.431 56.1671C217.314 56.6939 217.044 56.9158 216.512 56.9123C215.854 56.9074 215.189 56.9573 214.543 56.8667C213.07 56.6602 212.1 55.4964 212.097 54.0081C212.093 51.1678 212.097 48.3281 212.097 45.4892ZM220.481 48.0423C220.586 48.0872 220.666 48.1167 220.743 48.1533C221.271 48.4068 221.795 48.6716 222.33 48.9118C222.5 48.9884 222.699 49.0417 222.883 49.0375C223.29 49.0277 223.574 48.8001 223.716 48.4223C223.866 48.0275 223.76 47.6785 223.458 47.3947C222.543 46.5385 221.627 45.6838 220.701 44.8389C220.539 44.6907 220.46 44.5474 220.47 44.3226C220.489 43.9033 220.483 43.4819 220.473 43.0612C220.458 42.4024 219.921 41.8538 219.275 41.8236C218.622 41.7934 218.037 42.2872 217.988 42.9537C217.953 43.4334 217.985 43.9174 217.961 44.3978C217.955 44.5277 217.889 44.6878 217.795 44.7763C216.879 45.6437 215.949 46.4964 215.027 47.3575C214.63 47.729 214.561 48.2249 214.84 48.6358C215.116 49.0424 215.605 49.1562 216.098 48.923C216.636 48.6688 217.171 48.4082 217.708 48.1526C217.781 48.1181 217.858 48.0922 217.963 48.0507C217.963 48.7081 217.971 49.3199 217.956 49.9316C217.954 50.0405 217.876 50.1613 217.803 50.2512C217.61 50.4886 217.404 50.7168 217.195 50.9402C216.989 51.1593 216.912 51.4052 217.035 51.6854C217.16 51.9705 217.408 52.0576 217.701 52.0576C218.718 52.0562 219.734 52.0562 220.751 52.0576C221.045 52.0576 221.289 51.967 221.416 51.6826C221.544 51.3981 221.453 51.1558 221.253 50.9381C221.052 50.7183 220.849 50.4998 220.659 50.2709C220.583 50.1795 220.491 50.0637 220.489 49.9569C220.473 49.329 220.481 48.7011 220.481 48.0423ZM216.559 39.0887C216.344 39.0915 216.159 39.279 216.159 39.496C216.158 39.7229 216.358 39.9154 216.583 39.9041C216.802 39.8936 216.975 39.7054 216.968 39.4855C216.961 39.2678 216.773 39.0859 216.559 39.0887ZM219.071 39.0887C218.853 39.0943 218.678 39.2783 218.68 39.5003C218.682 39.7222 218.86 39.9034 219.079 39.9055C219.309 39.9076 219.491 39.7159 219.482 39.4806C219.474 39.2615 219.287 39.0831 219.071 39.0887ZM223.708 39.5031C223.711 39.7222 223.894 39.9048 224.112 39.9041C224.328 39.9041 224.516 39.7194 224.519 39.5038C224.523 39.279 224.324 39.0817 224.1 39.0887C223.884 39.0957 223.705 39.2846 223.708 39.5031ZM221.593 39.0887C221.377 39.0901 221.2 39.2713 221.199 39.4925C221.198 39.718 221.365 39.8929 221.589 39.8971C221.819 39.902 222.006 39.7138 221.999 39.4834C221.992 39.2664 221.808 39.0873 221.593 39.0887ZM214.039 39.0887C213.826 39.095 213.642 39.286 213.644 39.4989C213.646 39.7229 213.848 39.9104 214.074 39.8971C214.292 39.8845 214.468 39.6906 214.457 39.4778C214.445 39.2643 214.25 39.0831 214.039 39.0887Z" fill="#DBF3F7"/>
<path d="M220.316 51.2136C219.583 51.2136 218.865 51.2136 218.093 51.2136C218.173 51.1146 218.221 51.0366 218.285 50.9776C218.689 50.6075 218.817 50.151 218.812 49.608C218.794 47.5052 218.805 45.4016 218.805 43.2988C218.805 42.8718 218.944 42.6618 219.222 42.6632C219.498 42.6646 219.636 42.8781 219.636 43.3023C219.636 45.3876 219.647 47.4736 219.629 49.5589C219.624 50.118 219.745 50.5963 220.167 50.979C220.218 51.0261 220.259 51.0837 220.303 51.1385C220.312 51.1504 220.309 51.1708 220.316 51.2136Z" fill="#DBF3F7"/>
<path d="M220.476 45.7648C221.08 46.3246 221.63 46.8345 222.179 47.3437C222.403 47.5516 222.63 47.7574 222.849 47.9716C222.89 48.0123 222.898 48.0875 222.921 48.1472C222.852 48.1563 222.767 48.1942 222.714 48.1689C222.003 47.8339 221.295 47.4926 220.59 47.1442C220.536 47.1175 220.482 47.0283 220.481 46.9665C220.471 46.5929 220.476 46.2185 220.476 45.7648Z" fill="#DBF3F7"/>
<path d="M217.968 45.7682C217.968 46.2247 217.973 46.5998 217.963 46.9741C217.961 47.0352 217.904 47.123 217.848 47.1497C217.144 47.4974 216.436 47.838 215.726 48.1737C215.677 48.1969 215.601 48.1653 215.538 48.1597C215.556 48.0986 215.555 48.0171 215.595 47.9799C216.364 47.2579 217.137 46.5408 217.968 45.7682Z" fill="#DBF3F7"/>
<path d="M235.355 45.6826C235.355 54.6155 228.281 61.8372 219.579 61.8372C210.877 61.8372 203.803 54.6155 203.803 45.6826C203.803 36.7498 210.877 29.5281 219.579 29.5281C228.281 29.5281 235.355 36.7498 235.355 45.6826Z" stroke="#2D7E42"/>
<path d="M75.5732 306.123L75.5732 139.01H8.54681L8.54681 306.123H75.5732Z" fill="#F0F0F0"/>
<path d="M71.8928 192.394L71.8928 143.202H12.2198L12.2198 192.394H71.8928Z" fill="#E6E6E6"/>
<path d="M71.9011 246.002L71.9011 196.81H12.2282L12.2282 246.002H71.9011Z" fill="#E6E6E6"/>
<path d="M71.8975 299.61L71.8975 250.417H12.2245L12.2245 299.61H71.8975Z" fill="#E6E6E6"/>
<path d="M35.6918 192.395L35.6918 143.203H12.2186L12.2186 192.395H35.6918Z" fill="#E0E0E0"/>
<path d="M35.6882 246.003L35.6882 196.811H12.2151L12.2151 246.003H35.6882Z" fill="#E0E0E0"/>
<path d="M35.6967 299.611L35.6967 250.418H12.2236L12.2236 299.611H35.6967Z" fill="#E0E0E0"/>
<path d="M93.775 306.118L93.775 139.005H75.5785L75.5785 306.118H93.775Z" fill="#F5F5F5"/>
<path d="M147.237 306.122L147.237 139.009H80.2109L80.2109 306.122H147.237Z" fill="#F0F0F0"/>
<path d="M143.557 192.393V143.201H83.8838V192.393H143.557Z" fill="#E6E6E6"/>
<path d="M143.565 246.001V196.809H83.8924V246.001H143.565Z" fill="#E6E6E6"/>
<path d="M143.562 299.609V250.417H83.8888V299.609H143.562Z" fill="#E6E6E6"/>
<path d="M107.356 192.394L107.356 143.202H83.8829L83.8829 192.394H107.356Z" fill="#E0E0E0"/>
<path d="M107.352 246.002L107.352 196.81H83.8792L83.8792 246.002H107.352Z" fill="#E0E0E0"/>
<path d="M107.361 299.61L107.361 250.417H83.8876L83.8876 299.61H107.361Z" fill="#E0E0E0"/>
<path d="M165.439 306.129L165.439 139.016H147.243L147.243 306.129H165.439Z" fill="#F5F5F5"/>
<path d="M61.1611 236.335C61.1611 241.672 54.2665 245.995 45.7539 245.995C37.2412 245.995 30.3466 241.672 30.3466 236.335H61.1611Z" fill="#F0F0F0"/>
<path d="M61.1611 229.115C61.1611 234.452 54.2665 238.774 45.7539 238.774C37.2412 238.774 30.3466 234.452 30.3466 229.115H61.1611Z" fill="#F0F0F0"/>
<path d="M134.78 182.724C134.78 188.061 126.159 192.384 115.509 192.384C104.871 192.384 96.238 188.061 96.238 182.724H134.78Z" fill="#FAFAFA"/>
<path d="M134.78 175.503C134.78 180.84 126.159 185.163 115.509 185.163C104.871 185.163 96.238 180.84 96.238 175.503H134.78Z" fill="#FAFAFA"/>
<path d="M87.9403 299.604H136.396V257.499H87.9403V299.604Z" fill="#F0F0F0"/>
<path d="M143.559 257.514H136.386V299.619H143.559V257.514Z" fill="#E0E0E0"/>
<path d="M16.275 192.395H64.7307V150.291H16.275L16.275 192.395Z" fill="#F0F0F0"/>
<path d="M71.8955 150.292H64.7232V192.396H71.8955V150.292Z" fill="#E0E0E0"/>
<path d="M256.278 306.119H265.684V217.673H256.278V306.119Z" fill="#E6E6E6"/>
<path d="M253.758 306.119H259.3V217.673H253.758V306.119Z" fill="#F0F0F0"/>
<path d="M385.559 217.668H252.049V227.461H385.559V217.668Z" fill="#F0F0F0"/>
<path d="M445.259 306.119H454.665V217.673H445.259V306.119Z" fill="#E6E6E6"/>
<path d="M443.497 306.119H449.039V217.673H443.497V306.119Z" fill="#F0F0F0"/>
<path d="M456.341 217.668H389.58V227.461H456.341V217.668Z" fill="#E6E6E6"/>
<path d="M386.352 306.119H395.758V217.673H386.352V306.119Z" fill="#E6E6E6"/>
<path d="M383.844 306.119H389.386V217.673H383.844V306.119Z" fill="#F0F0F0"/>
<path d="M235 361.296C364.787 361.296 470 355.028 470 347.296C470 339.564 364.787 333.296 235 333.296C105.213 333.296 0 339.564 0 347.296C0 355.028 105.213 361.296 235 361.296Z" fill="#F5F5F5"/>
<path d="M293.936 334.176L276.863 332.208V234.271H262.228V332.208L245.155 334.176L243.67 339.03H295.422L293.936 334.176Z" fill="#263238"/>
<path opacity="0.4" d="M293.936 334.176L276.863 332.208V234.271H262.228V332.208L245.155 334.176L243.67 339.03H295.422L293.936 334.176Z" fill="#090909"/>
<path d="M264.697 102.296C290.135 102.296 315.562 102.296 341 102.296C327.917 143.7 321.279 185.88 321.303 227.296C295.865 227.296 270.439 227.296 245 227.296C244.976 185.892 251.614 143.712 264.697 102.296Z" fill="#2D2D2D"/>
<path opacity="0.3" d="M264.697 102.296C290.135 102.296 315.562 102.296 341 102.296C327.917 143.7 321.279 185.88 321.303 227.296C295.865 227.296 270.439 227.296 245 227.296C244.976 185.892 251.614 143.712 264.697 102.296Z" fill="black"/>
<path d="M260.697 102.296C286.135 102.296 311.562 102.296 337 102.296C323.917 143.7 317.279 185.88 317.303 227.296C291.865 227.296 266.439 227.296 241 227.296C240.964 185.892 247.614 143.712 260.697 102.296Z" fill="#8F8F8F"/>
<path d="M304.152 238.69H196.47C200.998 228.837 209.221 222.8 218.12 222.8H296.846L304.152 238.69Z" fill="#407BFF"/>
<path d="M326.031 238.69H274.037C278.565 228.837 286.788 222.8 295.687 222.8H314.089C322.976 222.8 327.383 227.931 326.031 238.69Z" fill="#407BFF"/>
<path opacity="0.3" d="M326.031 238.69H274.037C278.565 228.837 286.788 222.8 295.687 222.8H314.089C322.976 222.8 327.383 227.931 326.031 238.69Z" fill="black"/>
<path d="M219.846 328.96L210.102 330.24L203.763 308.167L213.507 306.887L219.846 328.96Z" fill="#FFC3BD"/>
<path d="M208.883 327.692L219.822 326.255C220.221 326.207 220.559 326.436 220.631 326.823L222.298 335.408C222.467 336.301 221.742 337.255 220.824 337.364C217.009 337.799 215.161 337.811 210.356 338.451C207.397 338.837 197.219 340.262 193.101 340.286C189.068 340.31 189.08 336.229 190.819 335.855C198.643 334.152 204.826 331.037 207.289 328.525C207.723 328.054 208.291 327.764 208.883 327.692Z" fill="#453F55"/>
<path opacity="0.2" d="M213.507 306.887L203.763 308.167L207.035 319.542L216.779 318.262L213.507 306.887Z" fill="black"/>
<path d="M251.808 187.433C251.808 187.433 175.424 192.903 178.503 220.88C182.934 261.1 200.285 313.915 200.285 313.915L218.011 310.872C218.011 310.872 210.549 262.151 206.6 230.817C225.654 222.92 277.334 230.479 283.407 214.021C288.37 200.558 285.69 187.433 285.69 187.433H251.808Z" fill="#263238"/>
<path opacity="0.3" d="M214.594 210.725C214.594 210.725 216.453 219.044 217.721 228.076C217.673 228.088 217.601 228.088 217.552 228.1C216.888 228.197 216.224 228.293 215.596 228.402C215.27 228.475 214.92 228.523 214.606 228.583C214.22 228.644 213.857 228.728 213.483 228.801C211.853 229.127 210.332 229.513 208.943 229.96C208.581 230.068 208.255 230.189 207.929 230.298C207.482 230.443 207.047 230.612 206.637 230.793C207.083 234.379 208.629 239.137 208.641 243.266C191.628 223.198 205.635 210.725 214.594 210.725Z" fill="black"/>
<path d="M220.74 314.893L199.959 317.622L197.158 310.147L217.963 305.487L220.74 314.893Z" fill="#171717"/>
<path d="M205.647 329.841C206.54 329.721 207.518 329.407 208.194 329.153C208.279 329.117 208.339 329.044 208.339 328.948C208.339 328.863 208.291 328.779 208.219 328.731C207.881 328.549 204.874 327.028 203.751 327.656C203.485 327.801 203.34 328.042 203.304 328.368C203.256 328.9 203.401 329.298 203.751 329.564C204.198 329.902 204.898 329.938 205.647 329.841ZM207.53 328.9C205.84 329.479 204.548 329.588 204.029 329.201C203.811 329.044 203.727 328.779 203.763 328.417C203.775 328.248 203.848 328.139 203.968 328.066C204.584 327.728 206.311 328.332 207.53 328.9Z" fill="#407BFF"/>
<path d="M208.146 329.165C208.182 329.165 208.219 329.153 208.243 329.129C208.303 329.081 208.339 329.008 208.339 328.936C208.327 328.815 208.182 325.989 207.084 325.168C206.782 324.951 206.444 324.891 206.081 324.975C205.635 325.084 205.381 325.374 205.345 325.772C205.26 326.859 206.975 328.706 208.025 329.153C208.062 329.165 208.11 329.165 208.146 329.165ZM206.299 325.398C206.492 325.374 206.661 325.422 206.818 325.531C207.482 326.014 207.772 327.607 207.868 328.537C206.927 327.933 205.755 326.521 205.816 325.796C205.828 325.663 205.876 325.494 206.202 325.41C206.226 325.41 206.262 325.398 206.299 325.398Z" fill="#407BFF"/>
<path d="M262 111.822C261.159 115.653 260.164 119.215 259.157 122.875C258.115 126.498 257.001 130.11 255.781 133.696C254.573 137.283 253.258 140.846 251.837 144.384C250.427 147.934 248.852 151.435 247.158 154.925L246.862 155.547L246.732 155.73C245.452 157.596 244.197 158.682 243 159.609C241.792 160.524 240.643 161.232 239.494 161.866C237.22 163.135 234.969 164.05 232.742 164.88C230.504 165.685 228.277 166.356 226.026 166.929C223.764 167.491 221.56 167.966 219.191 168.296L217 161.195L222.615 157.938C224.474 156.852 226.322 155.766 228.075 154.632C229.84 153.534 231.522 152.35 232.979 151.204C233.702 150.63 234.377 150.045 234.863 149.496C235.348 148.971 235.692 148.459 235.633 148.41L235.206 149.215C236.485 145.97 237.67 142.639 238.819 139.284C239.932 135.905 241.01 132.489 242.041 129.048C243.048 125.596 244.054 122.143 245.014 118.666C245.997 115.226 246.909 111.651 247.798 108.296L262 111.822Z" fill="#FFC3BD"/>
<path d="M246.423 109.286C238.441 118.45 233.165 131.262 233.165 131.262L254.03 143.831C260.055 136.49 267.577 117.062 267.879 110.505C268.35 100.435 255.02 99.4206 246.423 109.286Z" fill="#407BFF"/>
<path opacity="0.5" d="M246.423 109.286C238.441 118.45 233.165 131.262 233.165 131.262L254.03 143.831C260.055 136.49 267.577 117.062 267.879 110.505C268.35 100.435 255.02 99.4206 246.423 109.286Z" fill="white"/>
<path opacity="0.5" d="M253.976 118.378C249.535 122.314 246.378 130.498 245 138.434L254.224 144.296C257.134 140.558 260.397 133.789 263 127.071C260.915 120.389 257.899 114.888 253.976 118.378Z" fill="#407BFF"/>
<path d="M250.83 334.828H241.013L236.509 312.104H246.326L250.83 334.828Z" fill="#FFC3BD"/>
<path d="M240.699 332.45H251.723C252.122 332.45 252.424 332.727 252.448 333.126L252.979 341.856C253.04 342.761 252.182 343.619 251.265 343.607C247.425 343.546 245.59 343.317 240.736 343.317C237.753 343.317 227.634 343.631 223.505 343.631C219.472 343.631 219.496 339.562 221.247 339.187C229.071 337.533 236.22 335.251 238.985 333.078C239.516 332.655 240.12 332.45 240.699 332.45Z" fill="#453F55"/>
<path opacity="0.2" d="M246.326 312.104H236.509L238.84 323.828H248.657L246.326 312.104Z" fill="black"/>
<path d="M271.043 187.433C271.043 187.433 206.311 192.903 207.904 221C209.643 251.779 234.565 320.991 234.565 320.991H252.544C252.544 320.991 244.418 258.372 240.47 227.038C258.715 227.038 296.557 230.467 302.63 214.021C307.593 200.558 304.357 187.94 304.357 187.94L271.043 187.433Z" fill="#263238"/>
<path d="M253.583 321.281L232.018 322.259L230.351 312.985L252.919 313.07L253.583 321.281Z" fill="#171717"/>
<path d="M237.222 334.152C238.127 334.152 239.13 333.971 239.842 333.802C239.926 333.778 239.999 333.705 240.011 333.621C240.023 333.536 239.987 333.44 239.914 333.391C239.6 333.174 236.823 331.278 235.628 331.749C235.35 331.858 235.169 332.087 235.097 332.401C234.976 332.92 235.072 333.343 235.386 333.645C235.773 334.019 236.461 334.152 237.222 334.152ZM239.214 333.476C237.463 333.826 236.159 333.766 235.712 333.319C235.519 333.126 235.471 332.86 235.555 332.498C235.592 332.329 235.676 332.232 235.809 332.172C236.437 331.918 238.067 332.751 239.214 333.476Z" fill="#407BFF"/>
<path d="M239.794 333.814C239.83 333.814 239.866 333.802 239.902 333.79C239.975 333.754 240.023 333.681 240.023 333.609C240.035 333.488 240.253 330.663 239.262 329.709C238.997 329.455 238.671 329.346 238.297 329.395C237.85 329.443 237.548 329.697 237.463 330.083C237.234 331.158 238.695 333.198 239.673 333.79C239.709 333.802 239.745 333.814 239.794 333.814ZM238.441 329.829C238.635 329.829 238.792 329.89 238.936 330.035C239.528 330.602 239.613 332.22 239.576 333.15C238.719 332.425 237.753 330.868 237.898 330.167C237.922 330.035 238.007 329.878 238.333 329.829C238.381 329.829 238.417 329.829 238.441 329.829Z" fill="#407BFF"/>
<path d="M221.352 161.111L210 158.296L210.799 170.296C210.799 170.296 222.013 170.321 223 167.024L221.352 161.111Z" fill="#FFC3BD"/>
<path d="M202 163.98L204.551 171.296L211 169.953L210.237 158.296L202 163.98Z" fill="#FFC3BD"/>
<path d="M251.868 187.94H304.369C304.743 183.255 303.656 167.993 304.465 148.576C305.009 135.536 306.409 120.612 309.682 105.748C309.923 104.685 310.153 103.647 310.406 102.584C310.406 102.584 307.75 102.041 303.934 101.485C300.771 101.026 296.798 100.543 292.898 100.362C286.196 100.048 276.488 99.831 270.584 100.362C267.155 100.676 263.81 101.256 261.129 101.763C257.712 102.451 255.696 103.043 255.696 103.043C255.696 103.043 242.776 132.735 251.868 187.94Z" fill="#653EC9"/>
<path opacity="0.5" d="M251.868 187.94H304.369C304.743 183.255 303.656 167.993 304.465 148.576C305.009 135.536 306.409 120.612 309.682 105.748C309.923 104.685 310.153 103.647 310.406 102.584C310.406 102.584 307.75 102.041 303.934 101.485C300.771 101.026 296.798 100.543 292.898 100.362C286.196 100.048 276.488 99.831 270.584 100.362C267.155 100.676 263.81 101.256 261.129 101.763C257.712 102.451 255.696 103.043 255.696 103.043C255.696 103.043 242.776 132.735 251.868 187.94Z" fill="#304A8B"/>
<path opacity="0.5" d="M304.806 148.296C305.347 135.227 306.742 120.269 310 105.373C306.501 105.07 300.538 105.409 299.54 111.097C298.482 117.196 298.398 131.451 304.806 148.296Z" fill="black"/>
<path d="M313.515 109.296C314.014 110.221 314.379 110.918 314.78 111.723C315.17 112.504 315.523 113.285 315.876 114.066C316.582 115.628 317.251 117.203 317.884 118.789C319.138 121.973 320.245 125.217 321.158 128.546C322.083 131.875 322.826 135.275 323.325 138.772C323.836 142.269 324.092 145.849 323.97 149.514L323.958 149.863L323.921 150.548C323.897 151.028 323.812 151.509 323.727 151.978C323.532 152.915 323.228 153.804 322.85 154.573C322.096 156.147 321.134 157.349 320.185 158.286C318.274 160.149 316.411 161.23 314.622 162.156C311.044 163.958 307.623 164.919 304.227 165.784C300.832 166.59 297.472 167.166 294.125 167.575C290.753 167.971 287.467 168.248 283.998 168.296L283 161.026C289.013 159.272 295.196 157.409 300.795 155.15C303.582 154.045 306.284 152.747 308.366 151.377C309.4 150.704 310.24 149.959 310.557 149.478C310.715 149.25 310.715 149.13 310.63 149.226C310.593 149.274 310.52 149.394 310.484 149.538C310.447 149.611 310.447 149.695 310.423 149.779C310.411 149.803 310.411 149.911 310.411 149.863L310.399 149.599C310.07 144.083 308.707 138.351 306.893 132.704C305.968 129.88 304.946 127.056 303.814 124.268C303.254 122.874 302.67 121.48 302.061 120.123L301.124 118.092L300.235 116.205L313.515 109.296Z" fill="#FFC3BD"/>
<path d="M310.418 102.584C300.867 99.5657 294.745 107.209 297.39 120.455C300.034 133.713 303.439 138.639 303.439 138.639L325.801 135.476C323.954 122.483 320.199 105.675 310.418 102.584Z" fill="#181818"/>
<path opacity="0.5" d="M310.418 102.584C300.867 99.5657 294.745 107.209 297.39 120.455C300.034 133.713 303.439 138.639 303.439 138.639L325.801 135.476C323.954 122.483 320.199 105.675 310.418 102.584Z" fill="#5132A1"/>
<path d="M292.631 75.2959L286.582 80.2312L278.357 86.9601C278.602 88.0555 278.785 89.1629 278.883 90.2342C279.323 94.6278 278.174 98.6242 271.612 100.165C271.612 100.165 265.159 106.111 278.076 106.292C290.994 106.473 294 100.297 294 100.297C289.075 95.5186 290.957 82.4581 292.631 75.2959Z" fill="#FFC3BD"/>
<path d="M292.862 96.8364C292.862 96.8364 286.185 103.804 277.394 106.424C280.787 107.04 283.093 110.155 283.154 113.173C289.469 111.302 296.967 101.799 296.762 100.036C294.854 98.708 292.862 96.8364 292.862 96.8364Z" fill="white"/>
<path d="M274.569 98.8047C274.569 98.8047 268.604 103.816 277.394 106.424C274.001 107.04 271.731 108.778 270.572 112.509C265.802 106.822 268.543 101.063 269.594 99.6378C271.912 99.4326 274.569 98.8047 274.569 98.8047Z" fill="white"/>
<path opacity="0.2" d="M278 87.0267C278.266 88.1204 278.465 89.2262 278.571 90.2959C281.907 89.6949 286.372 86.4738 286.837 83.3848C287.01 82.231 287.037 81.1012 286.957 80.2959L278 87.0267Z" fill="black"/>
<path d="M270.722 53.2632C266.653 56.568 267.398 69.4013 271.284 68.2193C275.182 67.0493 277.418 47.8235 270.722 53.2632Z" fill="#263238"/>
<path d="M294.685 65.0143C292.636 74.5327 291.922 80.1884 286.361 84.5205C278.001 91.0546 266.915 85.2545 266.093 75.4112C265.367 66.5546 268.832 52.4875 278.739 49.792C288.504 47.1446 296.733 55.5079 294.685 65.0143Z" fill="#FFC3BD"/>
<path d="M292 71.2959C290.449 69.4065 290.34 64.5568 291.443 63.0164C289.783 61.6926 288.123 57.4686 289.407 55.82C286.16 55.6033 269.356 59.6107 266 47.6247C267.745 48.1783 271.27 47.6247 271.27 47.6247C271.27 47.6247 267.854 41.9807 273.912 40.2959C274.796 43.16 282.102 43.4488 285.724 43.3044C293.163 43.0156 301.632 46.0843 298.203 51.8126C303.656 54.1472 304.54 64.6049 292 71.2959Z" fill="#263238"/>
<path d="M297 51.1533C297 51.1533 300.323 51.9083 299.683 47.2959C302.387 49.8321 300.649 54.4445 297 51.1533Z" fill="#263238"/>
<path d="M296.06 73.9797C294.667 75.8206 292.624 76.9227 290.846 77.2376C288.155 77.71 287.35 75.2272 288.527 72.8049C289.596 70.6248 292.276 67.7544 294.763 68.3842C297.214 68.9898 297.658 71.8723 296.06 73.9797Z" fill="#FFC3BD"/>
<path d="M290.429 68.2959C290.429 68.2959 288.798 74.1177 285.619 77.8451C282.441 81.5726 279.322 82.3062 275.905 82.247C272.489 82.1879 273.013 77.4902 273.013 77.4902L271.334 77.1115C271.334 77.1115 271.513 82.886 268.18 80.4484C267.454 79.9159 266.763 78.212 266.311 76.8748C265.965 75.8454 265.763 74.7804 265.704 73.7036C264.894 74.9816 264.597 80.6377 265.835 83.3357C266.704 85.229 269.037 86.8619 271.168 87.5246C274.727 88.6369 279.881 88.5895 283.679 87.0986C289.762 84.7083 290.643 78.9101 290.857 75.5969C291.071 72.2836 292 68.3077 292 68.3077H290.429V68.2959Z" fill="#263238"/>
<path d="M278.973 65.9168C278.847 66.7441 278.303 67.355 277.773 67.2913C277.229 67.2277 276.901 66.5023 277.027 65.675C277.153 64.8477 277.697 64.2368 278.227 64.3005C278.771 64.3641 279.099 65.0895 278.973 65.9168Z" fill="#263238"/>
<path d="M269.973 64.9168C269.847 65.7441 269.303 66.355 268.773 66.2913C268.229 66.2277 267.901 65.5023 268.027 64.675C268.153 63.8477 268.697 63.2368 269.227 63.3005C269.771 63.3768 270.099 64.0895 269.973 64.9168Z" fill="#263238"/>
<path d="M272 65.2959C272 65.2959 270.495 68.8525 269 70.5122C269.889 71.6074 271.56 71.2348 271.56 71.2348L272 65.2959Z" fill="#ED847E"/>
<path d="M272.027 75.2213C274.956 75.687 276.843 73.824 276.924 73.7441C277.015 73.651 277.027 73.4913 276.946 73.3848C276.866 73.2783 276.729 73.265 276.638 73.3582C276.615 73.3848 274.464 75.5007 271.272 74.5293C271.158 74.4893 271.032 74.5692 271.009 74.7156C270.974 74.8486 271.043 74.995 271.169 75.0216C271.466 75.1148 271.752 75.1813 272.027 75.2213Z" fill="#263238"/>
<path d="M283.674 61.281C283.739 61.2655 283.805 61.2192 283.86 61.1419C284.035 60.9256 284.046 60.5392 283.893 60.3074C282.36 57.8812 280.434 58.3139 280.346 58.3448C280.128 58.3602 279.963 58.7002 280.007 59.0247C280.051 59.3493 280.27 59.5656 280.489 59.5038C280.565 59.4884 282.054 59.1793 283.258 61.0956C283.367 61.2655 283.532 61.3274 283.674 61.281Z" fill="#263238"/>
<path d="M266.362 59.28C266.518 59.316 266.687 59.292 266.816 59.1958C268.567 57.8491 270.357 58.294 270.37 58.294C270.643 58.3661 270.915 58.2218 270.98 57.9693C271.058 57.7288 270.902 57.4643 270.643 57.4042C270.552 57.3801 268.321 56.827 266.181 58.4743C265.973 58.6427 265.934 58.9313 266.116 59.1237C266.181 59.2078 266.272 59.2559 266.362 59.28Z" fill="#263238"/>
<path d="M285.143 161.307L276 161.296L280.425 170.296C280.425 170.296 289.435 170.172 288.984 165.897L285.143 161.307Z" fill="#FFC3BD"/>
<path d="M268 167.279L272.634 173.296L281 170.571L276.619 161.296L268 167.279Z" fill="#FFC3BD"/>
<path d="M352.553 345.352H356.96V177.2H352.553V345.352Z" fill="#389E52"/>
<path d="M378.582 345.352H382.989V177.2H378.582V345.352Z" fill="#389E52"/>
<path opacity="0.2" d="M378.582 345.352H382.989V177.2H378.582V345.352Z" fill="black"/>
<path d="M102.117 345.352H106.524L106.524 177.2H102.117L102.117 345.352Z" fill="#389E52"/>
<path opacity="0.2" d="M102.118 177.205H106.525V290.176L102.118 280.323V177.205Z" fill="black"/>
<path d="M76.0999 345.352H80.5071L80.5071 177.2H76.0999L76.0999 345.352Z" fill="#389E52"/>
<path d="M76.0958 275.562L356.964 275.562V177.202L76.0958 177.202V275.562Z" fill="#60B175"/>
<path d="M73.2806 177.209L356.963 177.209V170.024L73.2806 170.024V177.209Z" fill="#389E52"/>
<path d="M382.975 177.205H356.954V275.566H382.975V177.205Z" fill="#389E52"/>
<path opacity="0.2" d="M382.975 177.205H356.954V275.566H382.975V177.205Z" fill="black"/>
<path d="M385.788 170.021H356.954V177.205H385.788V170.021Z" fill="#389E52"/>
<path opacity="0.2" d="M385.788 170.021H356.954V177.205H385.788V170.021Z" fill="black"/>
<path opacity="0.2" d="M76.0999 182.206L382.989 182.206V177.207L76.0999 177.207V182.206Z" fill="black"/>
<path d="M251.76 150.726H147.374C143.402 150.726 139.997 147.478 139.816 143.505L137.051 82.8422C136.869 78.8697 139.973 75.6216 143.945 75.6216H248.331C252.303 75.6216 255.708 78.8697 255.889 82.8422L258.654 143.505C258.836 147.466 255.732 150.726 251.76 150.726Z" fill="#389E52"/>
<path d="M250.359 150.726H145.974C142.001 150.726 138.596 147.478 138.415 143.505L135.65 82.8422C135.469 78.8697 138.572 75.6216 142.544 75.6216H246.93C250.903 75.6216 254.308 78.8697 254.489 82.8422L257.254 143.505C257.435 147.466 254.332 150.726 250.359 150.726Z" fill="#389E52"/>
<path opacity="0.2" d="M250.359 150.726H145.974C142.001 150.726 138.596 147.478 138.415 143.505L135.65 82.8422C135.469 78.8697 138.572 75.6216 142.544 75.6216H246.93C250.903 75.6216 254.308 78.8697 254.489 82.8422L257.254 143.505C257.435 147.466 254.332 150.726 250.359 150.726Z" fill="white"/>
<path d="M207.542 114.067H187.607V150.726H207.542V114.067Z" fill="#389E52"/>
<path d="M186.979 110.155L178.177 170.009H199.742L208.545 110.155H186.979ZM199.646 129.173L198.221 138.845C198.003 140.33 196.736 141.429 195.238 141.429H191.99C190.143 141.429 188.73 139.786 188.996 137.963L190.421 128.291C190.638 126.806 191.906 125.707 193.403 125.707H196.651C198.498 125.707 199.911 127.35 199.646 129.173Z" fill="#389E52"/>
<path opacity="0.2" d="M186.979 110.155L178.177 170.009H199.742L208.545 110.155H186.979ZM199.646 129.173L198.221 138.845C198.003 140.33 196.736 141.429 195.238 141.429H191.99C190.143 141.429 188.73 139.786 188.996 137.963L190.421 128.291C190.638 126.806 191.906 125.707 193.403 125.707H196.651C198.498 125.707 199.911 127.35 199.646 129.173Z" fill="white"/>
<path d="M212.034 165.638H174.289L169.664 170.021H222.068L212.034 165.638Z" fill="#389E52"/>
<path opacity="0.2" d="M212.034 165.638H174.289L169.664 170.021H222.068L212.034 165.638Z" fill="white"/>
<path d="M100.561 156.594C98.4356 155.423 99.1601 143.771 100.09 137.13C101.225 129.1 104.606 114.888 115.34 107.016C120.46 103.26 125.35 100.073 126.207 96.0276C127.777 99.6138 136.7 125.309 123.973 136.828C113.215 146.584 105.234 144.411 100.561 156.594Z" fill="#389E52"/>
<g opacity="0.2">
<path d="M100.561 156.594C98.4356 155.423 99.1601 143.771 100.09 137.13C101.225 129.1 104.606 114.888 115.34 107.016C120.46 103.26 125.35 100.073 126.207 96.0276C127.777 99.6138 136.7 125.309 123.973 136.828C113.215 146.584 105.234 144.411 100.561 156.594Z" fill="black"/>
</g>
<path d="M103.362 150.013C105.849 148.625 103.012 135.089 100.742 127.386C98.0009 118.064 91.4082 101.594 76.6288 92.5864C69.5772 88.2878 62.912 84.6533 61.1732 79.9563C59.7967 84.1462 55.3895 117.146 73.272 130.38C88.3774 141.561 95.4773 135.898 103.362 150.013Z" fill="#389E52"/>
<path d="M102.118 146.983C101.973 146.983 101.841 146.886 101.804 146.741C101.768 146.608 97.7594 132.831 88.0031 113.645C78.935 95.8224 66.7638 92.9365 66.643 92.9124C66.4619 92.8762 66.3532 92.695 66.3894 92.5139C66.4257 92.3328 66.5947 92.2241 66.7879 92.2604C66.9087 92.2845 79.3697 95.2307 88.5948 113.343C98.3873 132.59 102.408 146.427 102.444 146.56C102.493 146.741 102.396 146.922 102.215 146.971C102.179 146.983 102.143 146.983 102.118 146.983Z" fill="white"/>
<path d="M63.6606 104.613C63.5761 104.613 63.4916 104.588 63.4312 104.516C63.2984 104.395 63.2984 104.178 63.4191 104.045C63.4916 103.973 70.5915 96.6434 80.5048 101.522C80.6738 101.606 80.7342 101.799 80.6497 101.968C80.5651 102.137 80.3719 102.198 80.2029 102.113C70.7364 97.4524 63.9625 104.432 63.89 104.504C63.8417 104.576 63.7451 104.613 63.6606 104.613Z" fill="white"/>
<path d="M76.4234 126.649C76.363 126.649 76.3027 126.637 76.2544 126.601C76.0974 126.504 76.0491 126.311 76.1336 126.142C76.194 126.045 82.1951 116.072 91.0096 118.523C91.1907 118.571 91.2873 118.752 91.239 118.933C91.1907 119.114 90.9975 119.211 90.8285 119.163C82.4849 116.857 76.7494 126.383 76.7011 126.48C76.6528 126.589 76.5321 126.649 76.4234 126.649Z" fill="white"/>
<path d="M85.9986 109.72C85.8537 109.72 85.7209 109.624 85.6847 109.479C85.6605 109.394 85.1413 107.414 85.9986 106.05C86.373 105.446 86.9646 105.047 87.7374 104.902C87.9306 104.866 88.0876 104.987 88.1238 105.156C88.16 105.337 88.0393 105.506 87.8702 105.542C87.2785 105.663 86.8439 105.941 86.5662 106.388C85.8658 107.511 86.3247 109.286 86.3367 109.298C86.385 109.479 86.2764 109.66 86.1073 109.708C86.0469 109.72 86.0228 109.72 85.9986 109.72Z" fill="white"/>
<path d="M119.602 143.831H89.0415L91.8549 169.997H116.789L119.602 143.831Z" fill="#389E52"/>
<path opacity="0.7" d="M119.602 143.831H89.0415L91.8549 169.997H116.789L119.602 143.831Z" fill="white"/>
<path d="M361.796 146.283V144.653C361.796 143.928 361.204 143.336 360.48 143.336H344.227C343.503 143.336 342.911 143.928 342.911 144.653V170.021H361.796V167.075C365.901 167.075 369.125 162.511 369.125 156.679C369.125 150.859 365.901 146.283 361.796 146.283ZM361.796 164.431V148.927C364.332 148.927 366.481 152.477 366.481 156.679C366.481 160.881 364.332 164.431 361.796 164.431Z" fill="#389E52"/>
<path opacity="0.2" d="M361.796 146.283V144.653C361.796 143.928 361.204 143.336 360.48 143.336H344.227C343.503 143.336 342.911 143.928 342.911 144.653V170.021H361.796V167.075C365.901 167.075 369.125 162.511 369.125 156.679C369.125 150.859 365.901 146.283 361.796 146.283ZM361.796 164.431V148.927C364.332 148.927 366.481 152.477 366.481 156.679C366.481 160.881 364.332 164.431 361.796 164.431Z" fill="white"/>
<path opacity="0.3" d="M361.796 148.939H359.647L361.796 154.892V148.939Z" fill="black"/>
<path opacity="0.3" d="M361.796 167.087H359.647L361.796 168.077V167.087Z" fill="black"/>
<defs>
<filter id="filter0_f_3_799" x="9.57391" y="0.887207" width="85.0131" height="89.7961" filterUnits="userSpaceOnUse" color-interpolation-filters="sRGB">
<feFlood flood-opacity="0" result="BackgroundImageFix"/>
<feBlend mode="normal" in="SourceGraphic" in2="BackgroundImageFix" result="shape"/>
<feGaussianBlur stdDeviation="17.5" result="effect1_foregroundBlur_3_799"/>
</filter>
<filter id="filter1_f_3_799" x="76.6577" y="16.1282" width="60.2297" height="60.2312" filterUnits="userSpaceOnUse" color-interpolation-filters="sRGB">
<feFlood flood-opacity="0" result="BackgroundImageFix"/>
<feBlend mode="normal" in="SourceGraphic" in2="BackgroundImageFix" result="shape"/>
<feGaussianBlur stdDeviation="10" result="effect1_foregroundBlur_3_799"/>
</filter>
<filter id="filter2_f_3_799" x="125.151" y="9.50464" width="74.3868" height="71.8152" filterUnits="userSpaceOnUse" color-interpolation-filters="sRGB">
<feFlood flood-opacity="0" result="BackgroundImageFix"/>
<feBlend mode="normal" in="SourceGraphic" in2="BackgroundImageFix" result="shape"/>
<feGaussianBlur stdDeviation="12.5" result="effect1_foregroundBlur_3_799"/>
</filter>
<filter id="filter3_f_3_799" x="182.095" y="4.08447" width="74.2668" height="82.8372" filterUnits="userSpaceOnUse" color-interpolation-filters="sRGB">
<feFlood flood-opacity="0" result="BackgroundImageFix"/>
<feBlend mode="normal" in="SourceGraphic" in2="BackgroundImageFix" result="shape"/>
<feGaussianBlur stdDeviation="15" result="effect1_foregroundBlur_3_799"/>
</filter>
</defs>
</svg>
