<svg width="204" height="47" viewBox="0 0 197 47" fill="" xmlns="http://www.w3.org/2000/svg">
<path d="M47.0294 17.1861H49.2183C49.5284 17.1861 49.7801 17.4338 49.7801 17.7389V19.3706C50.6936 17.7212 51.9072 16.8965 53.4218 16.8965C55.0747 16.8965 56.1972 17.7212 56.786 19.3706C57.6647 17.7212 58.9131 16.8965 60.5323 16.8965C61.7919 16.8965 62.7549 17.2237 63.4201 17.8782C64.0852 18.5327 64.4178 19.4967 64.4178 20.7702V34.2951C64.4178 34.6003 64.1662 34.8479 63.856 34.8479H61.6492C61.3391 34.8479 61.0874 34.6003 61.0874 34.2951V23.2278C61.0874 21.8967 60.9604 21.0035 60.7053 20.5491C60.4626 20.0826 59.9884 19.8493 59.2828 19.8493C58.485 19.8493 57.9411 20.0881 57.6524 20.5657C57.3748 21.0322 57.2366 21.92 57.2366 23.2278V34.2951C57.2366 34.6003 56.9849 34.8479 56.6748 34.8479H54.3646C54.0545 34.8479 53.8028 34.6003 53.8028 34.2951V23.2278C53.8028 22.6021 53.7713 22.0736 53.7072 21.6414C53.6432 21.2091 53.5364 20.862 53.3859 20.6C53.2353 20.338 53.0387 20.1478 52.796 20.0284C52.5533 19.909 52.2521 19.8493 51.8937 19.8493C51.1307 19.8493 50.5869 20.1058 50.2633 20.6177C49.9397 21.1295 49.7778 21.9996 49.7778 23.2289V34.2962C49.7778 34.6014 49.5261 34.849 49.216 34.849H47.0272C46.717 34.849 46.4653 34.6014 46.4653 34.2962V17.7389C46.4676 17.4338 46.7193 17.1861 47.0294 17.1861Z" fill="#ffffff"/>
<path d="M67.1017 16.8965H69.6872C69.9568 16.8965 70.191 17.0911 70.2459 17.3619L72.8314 29.9609L75.8636 17.342C75.9265 17.0805 76.155 16.8965 76.4177 16.8965H78.6308C79.0113 16.8965 79.2855 17.2705 79.1792 17.6456L72.051 42.874C71.9802 43.1249 71.7563 43.2972 71.5026 43.2972H69.165C68.7789 43.2972 68.5047 42.9127 68.6201 42.5352L71.1907 34.1226L66.5521 17.6444C66.4481 17.2716 66.7223 16.8965 67.1017 16.8965Z" fill="#ffffff"/>
<path d="M81.7418 11.6165H84.0741C84.4046 11.6165 84.6728 11.8709 84.6728 12.1845V16.7013H85.9958C86.3263 16.7013 86.5945 16.9557 86.5945 17.2693V18.7983C86.5945 19.1119 86.3263 19.3664 85.9958 19.3664H84.6728V34.2811C84.6728 34.5947 84.4046 34.8491 84.0741 34.8491H81.7418C81.4113 34.8491 81.1431 34.5947 81.1431 34.2811V19.3675H79.8009C79.4705 19.3675 79.2023 19.113 79.2023 18.7995V17.2704C79.2023 16.9569 79.4705 16.7024 79.8009 16.7024H81.1431V12.1856C81.1431 11.8709 81.4101 11.6165 81.7418 11.6165Z" fill="#ffffff"/>
<path d="M90.2571 16.2038H92.1839C92.4569 16.2038 92.6784 16.4652 92.6784 16.7873V18.5274C93.177 17.5424 93.6705 16.8515 94.1591 16.4559C94.5251 16.1594 94.9781 15.9575 95.5211 15.849C95.8228 15.7883 96.0988 16.0637 96.0988 16.4255V18.7375C96.0988 19.0643 95.8713 19.3234 95.5953 19.3211C95.5904 19.3211 95.5844 19.3211 95.5795 19.3211C94.531 19.3211 93.7833 19.6397 93.3352 20.2757C92.897 20.9001 92.6784 21.9937 92.6784 23.5541V34.2656C92.6784 34.5877 92.4569 34.8491 92.1839 34.8491H90.2571C89.9841 34.8491 89.7626 34.5877 89.7626 34.2656V16.7873C89.7626 16.4652 89.9831 16.2038 90.2571 16.2038Z" fill="#ffffff"/>
<path d="M109.827 17.7284V34.0356C109.827 34.3361 109.584 34.58 109.284 34.58H107.169C106.869 34.58 106.626 34.3361 106.626 34.0356V32.3444C106.167 33.2972 105.709 33.9528 105.251 34.3111C104.792 34.6693 104.189 34.849 103.44 34.849C101.999 34.849 100.943 34.1096 100.272 32.6297C99.6024 31.1509 99.2668 28.8314 99.2668 25.6713C99.2668 22.6571 99.6024 20.441 100.272 19.0232C100.943 17.6054 101.999 16.8965 103.44 16.8965C104.759 16.8965 105.821 17.6479 106.626 19.1484V17.7263C106.626 17.4257 106.869 17.1818 107.169 17.1818H109.284C109.584 17.184 109.827 17.4279 109.827 17.7284ZM102.586 25.8074C102.586 28.0931 102.737 29.6906 103.039 30.5977C103.351 31.5048 103.899 31.9589 104.682 31.9589C105.396 31.9589 105.916 31.4885 106.24 30.5465C106.564 29.5382 106.727 27.9864 106.727 25.8913C106.727 23.7852 106.565 22.2269 106.24 21.2185C105.915 20.2777 105.396 19.8062 104.682 19.8062C103.921 19.8062 103.38 20.2548 103.056 21.151C102.742 21.9808 102.586 23.5326 102.586 25.8074Z" fill="#ffffff"/>
<path d="M113.592 17.1861H115.91C116.238 17.1861 116.505 17.4338 116.505 17.7389V19.3706C117.472 17.7212 118.757 16.8965 120.361 16.8965C122.111 16.8965 123.3 17.7212 123.923 19.3706C124.853 17.7212 126.175 16.8965 127.89 16.8965C129.223 16.8965 130.243 17.2237 130.947 17.8782C131.652 18.5327 132.004 19.4967 132.004 20.7702V34.2951C132.004 34.6003 131.737 34.8479 131.409 34.8479H129.072C128.744 34.8479 128.477 34.6003 128.477 34.2951V23.2278C128.477 21.8967 128.343 21.0035 128.073 20.5491C127.816 20.0826 127.314 19.8493 126.567 19.8493C125.722 19.8493 125.146 20.0881 124.84 20.5657C124.546 21.0322 124.4 21.92 124.4 23.2278V34.2951C124.4 34.6003 124.134 34.8479 123.805 34.8479H121.359C121.031 34.8479 120.764 34.6003 120.764 34.2951V23.2278C120.764 22.6021 120.731 22.0736 120.663 21.6414C120.595 21.2091 120.482 20.862 120.323 20.6C120.163 20.338 119.955 20.1478 119.698 20.0284C119.441 19.909 119.122 19.8493 118.743 19.8493C117.935 19.8493 117.359 20.1058 117.017 20.6177C116.674 21.1295 116.503 21.9996 116.503 23.2289V34.2962C116.503 34.6014 116.236 34.849 115.908 34.849H113.59C113.262 34.849 112.995 34.6014 112.995 34.2962V17.7389C112.998 17.4338 113.263 17.1861 113.592 17.1861Z" fill="#ffffff"/>
<path d="M143.745 16.9862V18.7826C143.745 19.203 143.273 19.4837 142.867 19.3004C142.249 19.0209 141.609 18.8811 140.951 18.8811C140.62 18.8811 140.316 18.9338 140.038 19.0404C139.76 19.1469 139.516 19.2913 139.306 19.4734C139.097 19.6567 138.932 19.8744 138.812 20.1276C138.692 20.3808 138.631 20.6489 138.631 20.9318C138.631 21.8048 139.48 22.8416 141.178 24.0445C141.863 24.5395 142.433 24.9989 142.889 25.4239C143.345 25.8478 143.693 26.2488 143.935 26.6268C144.429 27.3692 144.676 28.3063 144.676 29.4382C144.676 31.0765 144.163 32.3917 143.137 33.3816C142.123 34.3599 140.761 34.8491 139.049 34.8491C138.106 34.8491 137.152 34.6166 136.189 34.1526C135.985 34.054 135.855 33.857 135.855 33.6428V31.7628C135.855 31.3263 136.358 31.0536 136.769 31.2621C137.487 31.6264 138.178 31.8074 138.84 31.8074C140.5 31.8074 141.33 31.0467 141.33 29.5265C141.33 28.9605 141.178 28.4713 140.874 28.0589C140.735 27.8584 140.513 27.6258 140.209 27.36C139.905 27.0943 139.531 26.7975 139.087 26.4676C137.554 25.3597 136.514 24.4283 135.97 23.6734C135.438 22.8955 135.172 21.9583 135.172 20.8619C135.172 19.3886 135.66 18.18 136.636 17.2371C137.625 16.3057 138.911 15.8406 140.495 15.8406C141.488 15.8406 142.454 16.0502 143.397 16.4707C143.61 16.5635 143.745 16.7651 143.745 16.9862Z" fill="#ffffff"/>
<path d="M148.405 30.625C148.823 30.625 149.187 30.8375 149.494 31.2602C149.802 31.6719 149.956 32.1702 149.956 32.7543C149.956 33.3384 149.803 33.8356 149.494 34.2484C149.17 34.6489 148.798 34.8491 148.379 34.8491C148.156 34.8491 147.949 34.7946 147.757 34.6856C147.564 34.5766 147.395 34.4275 147.25 34.2395C147.105 34.0504 146.992 33.8267 146.91 33.5698C146.829 33.3117 146.788 33.0347 146.788 32.7365C146.788 32.1524 146.942 31.6552 147.25 31.2424C147.567 30.8308 147.951 30.625 148.405 30.625Z" fill="#ffffff"/>
<path d="M160.517 17.8668V19.6702C160.517 20.0699 160.063 20.3356 159.671 20.1614C159.39 20.0361 159.087 19.9741 158.761 19.9741C156.835 19.9741 155.872 21.8907 155.872 25.723C155.872 29.7905 156.829 31.8248 158.742 31.8248C159.041 31.8248 159.357 31.7573 159.69 31.6211C160.078 31.4621 160.515 31.73 160.515 32.121V33.8384C160.515 34.0497 160.383 34.2435 160.174 34.3317C159.358 34.6769 158.534 34.849 157.7 34.849C153.945 34.849 152.068 31.913 152.068 26.041C152.068 22.9144 152.532 20.609 153.458 19.1235C154.384 17.6392 155.822 16.8965 157.773 16.8965C158.588 16.8965 159.384 17.0533 160.162 17.3648C160.378 17.4541 160.517 17.6512 160.517 17.8668Z" fill="#ffffff"/>
<path d="M174.245 26.0236C174.245 31.9065 172.309 34.849 168.437 34.849C164.565 34.849 162.629 31.8629 162.629 25.8896C162.629 19.8946 164.559 16.8965 168.419 16.8965C169.42 16.8965 170.287 17.0762 171.02 17.4345C171.753 17.7927 172.358 18.3482 172.835 19.0985C173.311 19.8499 173.666 20.7963 173.898 21.9387C174.129 23.0821 174.245 24.4445 174.245 26.0236ZM170.706 25.9397C170.706 23.6539 170.545 22.0628 170.224 21.1654C169.902 20.2583 169.33 19.8042 168.507 19.8042C167.697 19.8042 167.119 20.2528 166.774 21.1491C166.452 22.0454 166.291 23.6092 166.291 25.8384C166.291 28.0688 166.452 29.6261 166.774 30.5114C167.119 31.4077 167.697 31.8564 168.507 31.8564C169.318 31.8564 169.884 31.4142 170.205 30.5289C170.54 29.7001 170.706 28.17 170.706 25.9397Z" fill="#ffffff"/>
<path d="M177.977 17.1861H180.166C180.476 17.1861 180.728 17.4338 180.728 17.7389V19.3706C181.641 17.7212 182.855 16.8965 184.37 16.8965C186.022 16.8965 187.145 17.7212 187.734 19.3706C188.612 17.7212 189.861 16.8965 191.48 16.8965C192.74 16.8965 193.703 17.2237 194.368 17.8782C195.033 18.5327 195.366 19.4967 195.366 20.7702V34.2951C195.366 34.6003 195.114 34.8479 194.804 34.8479H192.597C192.287 34.8479 192.035 34.6003 192.035 34.2951V23.2278C192.035 21.8967 191.908 21.0035 191.653 20.5491C191.41 20.0826 190.936 19.8493 190.231 19.8493C189.433 19.8493 188.889 20.0881 188.6 20.5657C188.323 21.0322 188.184 21.92 188.184 23.2278V34.2951C188.184 34.6003 187.933 34.8479 187.623 34.8479H185.312C185.002 34.8479 184.751 34.6003 184.751 34.2951V23.2278C184.751 22.6021 184.719 22.0736 184.655 21.6414C184.591 21.2091 184.484 20.862 184.334 20.6C184.183 20.338 183.986 20.1478 183.744 20.0284C183.501 19.909 183.2 19.8493 182.841 19.8493C182.078 19.8493 181.535 20.1058 181.211 20.6177C180.887 21.1295 180.726 21.9996 180.726 23.2289V34.2962C180.726 34.6014 180.474 34.849 180.164 34.849H177.975C177.665 34.849 177.413 34.6014 177.413 34.2962V17.7389C177.415 17.4338 177.666 17.1861 177.977 17.1861Z" fill="#ffffff"/>
<path d="M105.611 45.3094C105.166 45.3094 104.812 45.258 104.55 45.1541C104.287 45.0502 104.092 44.9017 103.966 44.7099C103.839 44.5169 103.758 44.2885 103.722 44.0236C103.685 43.7587 103.667 43.4675 103.667 43.1512V41.0547C103.667 40.7646 103.69 40.4963 103.734 40.2496C103.779 40.003 103.869 39.786 104.004 39.5999C104.139 39.4137 104.337 39.2699 104.6 39.1671C104.863 39.0643 105.21 39.0129 105.642 39.0129C106.079 39.0129 106.42 39.0655 106.669 39.1705C106.917 39.2756 107.097 39.4229 107.211 39.6113C107.325 39.7997 107.396 40.0212 107.426 40.2747C107.456 40.5282 107.471 40.8034 107.471 41.0981V42.1589H104.726V43.3967C104.726 43.842 104.771 44.1743 104.864 44.3947C104.955 44.6151 105.203 44.7247 105.605 44.7247C105.865 44.7247 106.051 44.6722 106.163 44.5672C106.274 44.4621 106.345 44.3114 106.374 44.1161C106.404 43.9208 106.419 43.6879 106.419 43.4173V43.1638C106.419 43.0439 106.516 42.9468 106.636 42.9468H107.227C107.347 42.9468 107.444 43.0439 107.444 43.1638C107.444 43.4778 107.432 43.7655 107.406 44.0259C107.38 44.2862 107.313 44.5123 107.203 44.7042C107.094 44.896 106.913 45.0433 106.661 45.1484C106.411 45.2569 106.06 45.3094 105.611 45.3094ZM104.72 41.637H106.419V40.8548C106.419 40.5819 106.409 40.3512 106.387 40.164C106.365 39.9767 106.301 39.8351 106.195 39.7403C106.088 39.6444 105.906 39.5964 105.65 39.5964C105.381 39.5964 105.18 39.6501 105.048 39.7563C104.915 39.8625 104.827 40.0121 104.785 40.2051C104.742 40.3981 104.721 40.6242 104.721 40.8834V41.637H104.72Z" fill="#ffffff"/>
<path d="M113.119 45.2842C112.589 45.2842 112.195 45.1449 111.939 44.8662C111.682 44.5876 111.554 44.1925 111.554 43.6821V42.949C111.554 42.7138 111.626 42.5162 111.769 42.3563C111.912 42.1965 112.113 42.0583 112.372 41.943C112.63 41.8265 112.931 41.7192 113.276 41.621C113.62 41.5228 113.993 41.42 114.395 41.3138V40.8799C114.395 40.5795 114.383 40.3352 114.356 40.1468C114.331 39.9583 114.262 39.8202 114.149 39.7311C114.036 39.642 113.848 39.5975 113.588 39.5975C113.331 39.5975 113.143 39.6409 113.02 39.7288C112.898 39.8168 112.819 39.9561 112.783 40.149C112.746 40.342 112.728 40.5967 112.728 40.913C112.728 41.0055 112.653 41.0808 112.56 41.0808H111.839C111.746 41.0808 111.671 41.0055 111.671 40.913C111.671 40.6618 111.688 40.422 111.722 40.1936C111.756 39.9652 111.835 39.7631 111.96 39.5872C112.084 39.4114 112.274 39.2721 112.531 39.1693C112.787 39.0665 113.141 39.0151 113.595 39.0151C114.044 39.0151 114.394 39.062 114.646 39.1567C114.899 39.2515 115.083 39.3897 115.198 39.5724C115.313 39.7551 115.385 39.9823 115.413 40.253C115.44 40.5236 115.454 40.8353 115.454 41.187V44.7566C115.454 45.0215 115.239 45.2362 114.974 45.2362H114.874C114.609 45.2362 114.394 45.0215 114.394 44.7566C114.364 44.8137 114.299 44.8857 114.199 44.9702C114.098 45.0547 113.958 45.1289 113.779 45.1917C113.599 45.2545 113.379 45.2842 113.119 45.2842ZM113.349 44.7269C113.594 44.7269 113.811 44.6801 114.004 44.5876C114.195 44.4951 114.327 44.4061 114.395 44.3216V41.8174C114.015 41.927 113.707 42.0206 113.471 42.1006C113.236 42.1794 113.057 42.2616 112.932 42.3461C112.808 42.4306 112.722 42.5345 112.676 42.6555C112.629 42.7766 112.605 42.933 112.605 43.1248V43.6376C112.605 44.0281 112.654 44.3079 112.752 44.4757C112.851 44.6424 113.05 44.7269 113.349 44.7269Z" fill="#ffffff"/>
<path d="M121.549 45.3173C120.873 45.3173 120.372 45.1791 120.045 44.9039C119.719 44.6276 119.554 44.18 119.554 43.5599V43.408C119.554 43.2093 119.715 43.0472 119.915 43.0472H120.24C120.438 43.0472 120.6 43.2082 120.6 43.408V43.4823C120.6 43.8785 120.672 44.1834 120.815 44.3958C120.958 44.6093 121.177 44.7155 121.473 44.7155C121.772 44.7155 121.988 44.6539 122.12 44.5305C122.253 44.4072 122.319 44.1834 122.319 43.8579C122.319 43.7049 122.297 43.5565 122.255 43.4137C122.213 43.2699 122.126 43.1237 121.996 42.9753C121.866 42.8268 121.666 42.6715 121.396 42.5105L120.698 42.0846C120.266 41.8219 119.958 41.5536 119.774 41.2772C119.59 41.0009 119.497 40.7086 119.497 40.4003C119.497 39.9309 119.669 39.5815 120.01 39.3554C120.352 39.1282 120.807 39.0151 121.376 39.0151C121.756 39.0151 122.084 39.0734 122.357 39.191C122.631 39.3086 122.842 39.5062 122.992 39.7848C123.141 40.0634 123.217 40.4448 123.217 40.9278C123.217 41.1265 123.056 41.2887 122.856 41.2887H122.576C122.377 41.2887 122.215 41.1277 122.215 40.9278V40.8136C122.215 40.4071 122.151 40.1057 122.023 39.9115C121.895 39.7174 121.685 39.6203 121.394 39.6203C121.087 39.6203 120.869 39.698 120.74 39.8522C120.612 40.0063 120.546 40.2198 120.541 40.4939C120.541 40.6195 120.565 40.7428 120.612 40.865C120.659 40.9872 120.748 41.1117 120.878 41.2396C121.008 41.3686 121.2 41.5102 121.452 41.6655L122.132 42.088C122.581 42.3643 122.904 42.6498 123.1 42.9444C123.296 43.239 123.395 43.5519 123.395 43.8831C123.395 44.3124 123.246 44.6584 122.949 44.9222C122.654 45.186 122.187 45.3173 121.549 45.3173Z" fill="#ffffff"/>
<path d="M127.215 45.9489C127.215 45.7947 127.34 45.6702 127.494 45.6702H127.593C127.777 45.6702 127.944 45.6657 128.093 45.6577C128.243 45.6497 128.335 45.6348 128.368 45.612C128.437 45.5652 128.464 45.4944 128.452 45.3973C128.439 45.3003 128.418 45.1895 128.388 45.0639L126.885 39.4389C126.838 39.2619 126.971 39.0883 127.155 39.0883H127.622C127.752 39.0883 127.864 39.1785 127.893 39.3041L128.588 42.321L128.889 43.9928H128.979L129.249 42.321L129.87 39.3098C129.896 39.1808 130.011 39.0872 130.143 39.0872H130.604C130.786 39.0872 130.918 39.2573 130.875 39.4343L129.41 45.2591C129.354 45.4967 129.291 45.6862 129.22 45.829C129.15 45.9705 129.034 46.0722 128.874 46.1338C128.714 46.1955 128.471 46.2263 128.147 46.2263H127.496C127.34 46.2275 127.215 46.1019 127.215 45.9489Z" fill="#ffffff"/>
<path d="M142.234 45.3173C141.809 45.3173 141.45 45.2214 141.156 45.0296C140.861 44.8377 140.714 44.5203 140.714 44.0761C140.714 43.7564 140.775 43.472 140.9 43.2254C141.024 42.9787 141.189 42.7492 141.393 42.538C141.598 42.3267 141.821 42.1154 142.062 41.9053C141.835 41.5308 141.647 41.1939 141.495 40.8936C141.343 40.5933 141.268 40.3603 141.268 40.1936C141.268 39.7962 141.397 39.4971 141.655 39.2961C141.913 39.0951 142.274 38.9946 142.738 38.9946C143.108 38.9946 143.39 39.0426 143.586 39.1396C143.781 39.2367 143.918 39.3772 143.994 39.5599C144.071 39.7437 144.11 39.9641 144.11 40.221C144.11 40.4551 144.053 40.6744 143.937 40.8799C143.822 41.0855 143.673 41.283 143.49 41.4703C143.307 41.6587 143.115 41.8437 142.913 42.0264L143.834 43.4366C143.944 43.2756 144.066 43.1112 144.202 42.9456C144.284 42.8451 144.376 42.7458 144.477 42.6464C144.59 42.5357 144.774 42.5437 144.882 42.6613C144.984 42.7732 144.979 42.9445 144.872 43.053C144.753 43.1763 144.649 43.3007 144.561 43.4275C144.427 43.6193 144.306 43.8089 144.195 43.995L144.705 44.7453C144.85 44.9588 144.697 45.2465 144.439 45.2465C144.331 45.2465 144.23 45.1929 144.17 45.1027L143.733 44.4404C143.652 44.5968 143.551 44.7418 143.428 44.8754C143.306 45.009 143.147 45.1152 142.953 45.1963C142.765 45.2774 142.522 45.3173 142.234 45.3173ZM142.337 44.8263C142.513 44.8263 142.659 44.7886 142.776 44.7144C142.892 44.6402 142.999 44.5363 143.095 44.4038C143.189 44.2714 143.289 44.1206 143.39 43.9493L142.391 42.4066C142.219 42.5494 142.068 42.7127 141.939 42.8954C141.809 43.0792 141.706 43.2688 141.632 43.4629C141.556 43.6582 141.518 43.8454 141.514 44.0259C141.507 44.2577 141.567 44.4484 141.696 44.5991C141.825 44.7498 142.038 44.8263 142.337 44.8263ZM142.613 41.5262C142.828 41.3344 143.01 41.1266 143.156 40.9039C143.302 40.6812 143.375 40.4334 143.375 40.1617C143.375 39.923 143.339 39.7449 143.266 39.6272C143.193 39.5096 143.023 39.4502 142.755 39.4502C142.573 39.4502 142.433 39.4765 142.339 39.5279C142.244 39.5793 142.176 39.6444 142.139 39.7243C142.1 39.8042 142.078 39.8853 142.073 39.9698C142.067 40.0543 142.065 40.1285 142.065 40.1948C142.065 40.3284 142.117 40.5122 142.223 40.7486C142.328 40.9838 142.459 41.243 142.613 41.5262Z" fill="#ffffff"/>
<path d="M155.974 45.3173C155.298 45.3173 154.797 45.1791 154.47 44.9039C154.144 44.6276 153.979 44.18 153.979 43.5599V43.408C153.979 43.2093 154.14 43.0472 154.34 43.0472H154.664C154.863 43.0472 155.025 43.2082 155.025 43.408V43.4823C155.025 43.8785 155.097 44.1834 155.24 44.3958C155.383 44.6093 155.602 44.7155 155.898 44.7155C156.197 44.7155 156.413 44.6539 156.545 44.5305C156.677 44.4072 156.744 44.1834 156.744 43.8579C156.744 43.7049 156.722 43.5565 156.68 43.4137C156.638 43.2699 156.551 43.1237 156.421 42.9753C156.29 42.8268 156.091 42.6715 155.821 42.5105L155.122 42.0846C154.691 41.8219 154.382 41.5536 154.198 41.2772C154.015 41.0009 153.922 40.7086 153.922 40.4003C153.922 39.9309 154.093 39.5815 154.435 39.3554C154.776 39.1282 155.232 39.0151 155.8 39.0151C156.181 39.0151 156.508 39.0734 156.781 39.191C157.055 39.3086 157.267 39.5062 157.416 39.7848C157.566 40.0634 157.64 40.4448 157.64 40.9278C157.64 41.1265 157.479 41.2887 157.279 41.2887H156.999C156.801 41.2887 156.639 41.1277 156.639 40.9278V40.8136C156.639 40.4071 156.575 40.1057 156.447 39.9115C156.319 39.7174 156.109 39.6203 155.819 39.6203C155.51 39.6203 155.293 39.698 155.164 39.8522C155.037 40.0063 154.97 40.2198 154.966 40.4939C154.966 40.6195 154.99 40.7428 155.037 40.865C155.083 40.9872 155.172 41.1117 155.303 41.2396C155.433 41.3686 155.625 41.5102 155.877 41.6655L156.556 42.088C157.005 42.3643 157.328 42.6498 157.525 42.9444C157.721 43.239 157.819 43.5519 157.819 43.8831C157.819 44.3124 157.671 44.6584 157.374 44.9222C157.078 45.186 156.611 45.3173 155.974 45.3173Z" fill="#ffffff"/>
<path d="M163.596 45.3094C163.152 45.3094 162.798 45.258 162.535 45.1541C162.273 45.0502 162.078 44.9017 161.952 44.7099C161.825 44.5169 161.744 44.2885 161.708 44.0236C161.671 43.7587 161.653 43.4675 161.653 43.1512V41.0547C161.653 40.7646 161.676 40.4963 161.72 40.2496C161.765 40.003 161.855 39.786 161.99 39.5999C162.124 39.4137 162.323 39.2699 162.586 39.1671C162.848 39.0643 163.195 39.0129 163.628 39.0129C164.064 39.0129 164.406 39.0655 164.655 39.1705C164.903 39.2756 165.083 39.4229 165.197 39.6113C165.31 39.7997 165.382 40.0212 165.412 40.2747C165.442 40.5282 165.456 40.8034 165.456 41.0981V42.1589H162.711V43.3967C162.711 43.842 162.757 44.1743 162.849 44.3947C162.941 44.6151 163.189 44.7247 163.591 44.7247C163.851 44.7247 164.037 44.6722 164.149 44.5672C164.26 44.4621 164.331 44.3114 164.36 44.1161C164.39 43.9208 164.405 43.6879 164.405 43.4173V43.1638C164.405 43.0439 164.502 42.9468 164.622 42.9468H165.213C165.333 42.9468 165.43 43.0439 165.43 43.1638C165.43 43.4778 165.418 43.7655 165.391 44.0259C165.366 44.2862 165.299 44.5123 165.189 44.7042C165.081 44.896 164.899 45.0433 164.647 45.1484C164.396 45.2569 164.046 45.3094 163.596 45.3094ZM162.706 41.637H164.405V40.8548C164.405 40.5819 164.394 40.3512 164.373 40.164C164.351 39.9767 164.287 39.8351 164.181 39.7403C164.074 39.6444 163.892 39.5964 163.636 39.5964C163.367 39.5964 163.166 39.6501 163.033 39.7563C162.901 39.8625 162.813 40.0121 162.771 40.2051C162.727 40.3981 162.707 40.6242 162.707 40.8834V41.637H162.706Z" fill="#ffffff"/>
<path d="M171.502 45.3093C171.058 45.3093 170.705 45.2568 170.443 45.1517C170.183 45.0467 169.989 44.8982 169.863 44.7052C169.736 44.5123 169.655 44.285 169.619 44.0212C169.582 43.7575 169.564 43.4663 169.564 43.1465V41.0477C169.564 40.6652 169.609 40.3203 169.699 40.0132C169.789 39.706 169.974 39.4628 170.257 39.2835C170.539 39.1042 170.969 39.0151 171.546 39.0151C171.978 39.0151 172.318 39.0631 172.566 39.159C172.814 39.2549 172.994 39.392 173.108 39.5712C173.221 39.7505 173.295 39.9629 173.327 40.2084C173.359 40.4539 173.375 40.7246 173.375 41.0203C173.375 41.1631 173.259 41.2784 173.116 41.2784H172.575C172.432 41.2784 172.317 41.1631 172.317 41.0203V40.8559C172.317 40.583 172.306 40.3557 172.282 40.173C172.258 39.9915 172.194 39.8544 172.089 39.7608C171.984 39.6683 171.803 39.6215 171.546 39.6215C171.272 39.6215 171.07 39.6729 170.94 39.7768C170.81 39.8807 170.724 40.0269 170.683 40.2153C170.642 40.4037 170.623 40.6275 170.623 40.8879V43.3955C170.623 43.6935 170.64 43.939 170.674 44.1331C170.708 44.3273 170.787 44.4711 170.911 44.5636C171.036 44.6561 171.232 44.703 171.502 44.703C171.762 44.703 171.948 44.6527 172.06 44.5511C172.171 44.4495 172.242 44.3033 172.271 44.1103C172.301 43.9173 172.316 43.6867 172.316 43.416V43.1614C172.316 43.0255 172.426 42.9159 172.561 42.9159H173.128C173.264 42.9159 173.373 43.0255 173.373 43.1614C173.373 43.4754 173.359 43.7643 173.329 44.0258C173.299 44.2884 173.227 44.5145 173.114 44.7064C173.001 44.8982 172.817 45.0455 172.563 45.1506C172.308 45.2568 171.955 45.3093 171.502 45.3093Z" fill="#ffffff"/>
<path d="M179.131 45.3173C178.908 45.3173 178.678 45.2785 178.438 45.2008C178.198 45.1232 177.996 44.9907 177.831 44.8057C177.667 44.6196 177.585 44.3649 177.585 44.0395V39.3063C177.585 39.1864 177.682 39.0894 177.802 39.0894H178.425C178.545 39.0894 178.642 39.1864 178.642 39.3063V43.9904C178.642 44.2313 178.722 44.4095 178.883 44.5271C179.044 44.6447 179.267 44.7029 179.553 44.7029C179.887 44.7029 180.144 44.6344 180.323 44.4985C180.502 44.3627 180.593 44.18 180.593 43.9539L180.58 39.3075C180.58 39.1876 180.677 39.0894 180.797 39.0894H181.426C181.546 39.0894 181.643 39.1864 181.643 39.3063V45.0193C181.643 45.1392 181.546 45.2362 181.426 45.2362H180.808C180.688 45.2362 180.591 45.1392 180.591 45.0193V44.6173C180.506 44.7977 180.336 44.9599 180.082 45.1026C179.829 45.2453 179.511 45.3173 179.131 45.3173Z" fill="#ffffff"/>
<path d="M186.233 45.018V39.3051C186.233 39.1852 186.33 39.0881 186.45 39.0881H187.074C187.194 39.0881 187.291 39.1852 187.291 39.3051V39.7721C187.402 39.5346 187.596 39.3485 187.871 39.2149C188.146 39.0813 188.498 39.0139 188.926 39.0139C188.934 39.0139 188.94 39.0425 188.942 39.0996C188.944 39.1567 188.945 39.224 188.945 39.3005C188.945 39.4581 188.822 39.586 188.666 39.5974C188.556 39.6054 188.447 39.6191 188.344 39.6363C188.152 39.6694 187.968 39.7276 187.795 39.811C187.622 39.8943 187.454 40.0097 187.292 40.157V45.018C187.292 45.1379 187.195 45.235 187.075 45.235H186.451C186.33 45.235 186.233 45.1379 186.233 45.018Z" fill="#ffffff"/>
<path d="M194.561 45.3094C194.117 45.3094 193.763 45.258 193.5 45.1541C193.238 45.0502 193.043 44.9017 192.917 44.7099C192.79 44.5169 192.709 44.2885 192.673 44.0236C192.636 43.7587 192.618 43.4675 192.618 43.1512V41.0547C192.618 40.7646 192.641 40.4963 192.685 40.2496C192.73 40.003 192.82 39.786 192.955 39.5999C193.089 39.4137 193.288 39.2699 193.551 39.1671C193.813 39.0643 194.16 39.0129 194.593 39.0129C195.029 39.0129 195.371 39.0655 195.62 39.1705C195.868 39.2756 196.048 39.4229 196.162 39.6113C196.275 39.7997 196.347 40.0212 196.377 40.2747C196.407 40.5282 196.421 40.8034 196.421 41.0981V42.1589H193.676V43.3967C193.676 43.842 193.722 44.1743 193.814 44.3947C193.906 44.6151 194.154 44.7247 194.556 44.7247C194.816 44.7247 195.002 44.6722 195.114 44.5672C195.225 44.4621 195.296 44.3114 195.325 44.1161C195.355 43.9208 195.37 43.6879 195.37 43.4173V43.1638C195.37 43.0439 195.467 42.9468 195.587 42.9468H196.178C196.298 42.9468 196.395 43.0439 196.395 43.1638C196.395 43.4778 196.383 43.7655 196.356 44.0259C196.331 44.2862 196.264 44.5123 196.154 44.7042C196.046 44.896 195.864 45.0433 195.612 45.1484C195.361 45.2569 195.01 45.3094 194.561 45.3094ZM193.671 41.637H195.37V40.8548C195.37 40.5819 195.359 40.3512 195.338 40.164C195.316 39.9767 195.252 39.8351 195.146 39.7403C195.039 39.6444 194.857 39.5964 194.601 39.5964C194.332 39.5964 194.131 39.6501 193.998 39.7563C193.866 39.8625 193.778 40.0121 193.736 40.2051C193.692 40.3981 193.672 40.6242 193.672 40.8834V41.637H193.671Z" fill="#ffffff"/>
<path d="M10.6909 33.7857L7.27158 33.793C6.75955 33.7942 6.34364 33.1851 6.34281 32.4322L6.33618 27.4568C8.00399 28.0623 9.7737 28.4533 11.6114 28.5983L11.6163 32.4212C11.618 33.1729 11.2029 33.7844 10.6909 33.7857Z" fill="#ffffff"/>
<path d="M11.6163 27.355C9.33412 27.5444 7.22868 27.4655 5.29406 27.1522L5.28015 18.2601C5.27916 17.5073 5.77771 16.8965 6.39246 16.8965H10.4891C11.1029 16.8965 11.6004 17.5036 11.6014 18.254L11.6163 27.355Z" fill="#ffffff"/>
<path d="M32.7369 22.8336C30.6928 24.4588 27.9747 23.1761 25.3888 24.2887L25.3752 16.757L25.3447 1.26256C25.3425 0.565244 25.9125 0 26.6146 0H31.0686C31.7696 0 32.3374 0.563005 32.3396 1.25809L32.3644 14.1792L32.3656 15.0019L32.7369 22.8336Z" fill="#ffffff"/>
<path d="M15.8887 27.4569L15.8405 8.72302C15.8393 7.98909 16.4211 7.39233 17.1406 7.39233H21.9142C22.6314 7.39233 23.212 7.98557 23.2143 8.71715L23.2327 25.5811" fill="#ffffff"/>
<path d="M21.9361 33.7852L17.1497 33.793C16.4324 33.7943 15.8496 33.137 15.8474 32.3235L15.8405 28.321C18.4003 28.2859 20.8763 27.9865 23.2246 27.4568L23.2327 32.3104C23.235 33.1239 22.6545 33.7839 21.9361 33.7852Z" fill="#ffffff"/>
<path d="M31.4029 33.7872L26.6931 33.7931C25.9558 33.7943 25.3566 33.2065 25.3554 32.4803L25.3447 27.3322C28.0331 26.566 30.5155 25.5348 32.7203 24.2888L32.7369 32.4685C32.7381 33.1959 32.1414 33.7861 31.4029 33.7872Z" fill="#ffffff"/>
<path d="M44.3446 11.9282L42.1118 20.1995C42.0631 20.3851 41.8204 20.4503 41.6752 20.3177L40.7197 19.4462L39.7048 18.5205C39.5249 18.3571 39.2369 18.367 39.0744 18.5459C37.6357 20.1156 35.8569 21.535 33.7727 22.7545C31.67 23.985 29.2537 25.0145 26.5564 25.7933C25.5556 26.0816 24.5152 26.3367 23.4389 26.5533C21.1155 27.0227 18.6214 27.3198 15.9718 27.4193C15.4713 27.438 14.9662 27.4491 14.4565 27.4546C14.0362 27.459 13.6194 27.4568 13.2037 27.4502C10.6365 27.4049 8.15981 27.1486 5.81902 26.7101C3.873 26.3456 2.01987 25.8573 0.282845 25.2598C-0.196693 25.0952 -0.0236877 24.4125 0.481395 24.4711C0.481395 24.4711 7.99494 25.4796 10.7723 25.5017C21.9143 25.5945 31.634 21.7471 36.6291 16.0098C36.6163 15.9766 36.6082 15.9424 36.6024 15.907C36.6186 15.791 36.5791 15.6695 36.4839 15.5823L34.8967 14.1363C34.7469 14.0005 34.8154 13.7597 35.0163 13.7133L39.3124 12.7169L42.87 11.8918L44.0288 11.6234C44.0509 11.6178 44.0729 11.6156 44.095 11.6167C44.2576 11.6178 44.3888 11.7659 44.3446 11.9282Z" fill="#ffffff"/>
</svg>
