<svg width="24" height="27" viewBox="0 0 24 27" fill="none" xmlns="http://www.w3.org/2000/svg">
<path d="M0.000151105 14.6438C0.000151105 11.2584 -0.000792921 7.87295 0.00203821 4.48753C0.00203821 4.1844 0.0133624 3.87938 0.0511108 3.58003C0.141707 2.87084 0.589025 2.34673 1.29964 2.27402C2.06121 2.19564 2.83883 2.1947 3.60229 2.25041C3.79386 2.26458 4.0213 2.60359 4.1185 2.83967C4.20909 3.06159 4.12322 3.34867 4.15719 3.60175C4.24778 4.27033 4.80268 4.75855 5.44535 4.76139C6.13143 4.76422 6.71087 4.27033 6.8024 3.59136C6.82411 3.43083 6.82505 3.26368 6.80995 3.1022C6.74861 2.43456 7.04399 2.16353 7.7112 2.20414C8.29252 2.23908 8.87762 2.22397 9.45989 2.20697C9.9827 2.19186 10.2545 2.39678 10.2224 2.94544C10.212 3.13053 10.2177 3.32034 10.2441 3.50354C10.3611 4.29394 10.8698 4.76044 11.5917 4.75289C12.3033 4.74533 12.8185 4.25239 12.9252 3.47899C13.0998 2.2117 13.0998 2.2117 14.4172 2.21075C14.5106 2.21075 14.604 2.20508 14.6975 2.2117C15.1589 2.24097 15.745 2.11537 16.0432 2.35146C16.3112 2.56487 16.2735 3.17491 16.3499 3.61403C16.466 4.28261 17.0577 4.78216 17.7315 4.76139C18.3902 4.74061 18.9196 4.25711 18.9998 3.58758C19.0225 3.40344 19.0234 3.21363 19.0093 3.02854C18.9621 2.4185 19.248 2.18242 19.8426 2.2117C20.4012 2.23908 20.9628 2.20131 21.5214 2.22492C22.4953 2.26552 23.0653 2.82268 23.1352 3.801C23.1663 4.24201 23.1493 4.68773 23.1493 5.13062C23.1503 11.7381 23.1503 18.3446 23.1503 24.9521C23.1503 26.4829 22.6312 26.9994 21.0873 26.9994C14.7192 27.0004 8.35103 27.0004 1.98194 26.9985C0.537121 26.9985 0.00203821 26.4593 0.00203821 25.0107C0.0010945 21.5554 0.00203821 18.1001 0.00203821 14.6447C0.00203821 14.6438 0.00109481 14.6438 0.000151105 14.6438ZM11.5861 12.401C9.04277 12.401 6.49947 12.3972 3.95524 12.4029C2.82939 12.4048 2.33772 12.8987 2.33583 14.0272C2.33111 17.0169 2.333 20.0057 2.33583 22.9955C2.33677 24.1523 2.82562 24.6565 3.99581 24.6584C9.05976 24.6669 14.1237 24.6669 19.1876 24.6584C20.3003 24.6565 20.8089 24.1296 20.8108 23.0219C20.8165 20.0322 20.8155 17.0433 20.8118 14.0536C20.8099 12.8836 20.3286 12.4039 19.1452 12.402C16.6264 12.3954 14.1058 12.3991 11.5861 12.401ZM11.5209 10.163C13.6434 10.163 15.7658 10.1658 17.8891 10.162C18.763 10.1601 19.0017 9.91743 19.0112 9.03637C19.0178 8.42917 19.0112 7.82291 19.0121 7.2157C19.0131 6.58394 18.6979 6.26382 18.0684 6.26287C13.7302 6.26098 9.39194 6.26098 5.05371 6.26287C4.45446 6.26287 4.15153 6.58111 4.14209 7.17321C4.1336 7.78041 4.13643 8.38667 4.13926 8.99387C4.14398 9.92215 4.37519 10.1592 5.29247 10.1611C7.36863 10.1648 9.44479 10.163 11.5209 10.163Z" fill="#DA554A"/>
<path d="M14.1841 18.1285C12.4156 18.1285 10.7028 18.1285 8.94934 18.1285C8.94934 16.4721 8.94934 14.8507 8.94934 13.167C10.6697 13.167 12.3995 13.167 14.1841 13.167C14.1841 14.796 14.1841 16.4334 14.1841 18.1285Z" fill="#DA554A"/>
<path d="M14.976 23.9406C14.976 22.2078 14.976 20.6015 14.976 18.9395C16.6661 18.9395 18.3308 18.9395 20.0909 18.9395C20.0909 20.4088 20.1173 21.8716 20.0616 23.3306C20.0531 23.5421 19.653 23.9047 19.4237 23.9132C17.96 23.9671 16.4944 23.9406 14.976 23.9406Z" fill="#DA554A"/>
<path d="M8.17081 13.1179C8.17081 14.8442 8.17081 16.4476 8.17081 18.1078C6.48629 18.1078 4.82442 18.1078 3.04553 18.1078C3.04553 17.204 3.04553 16.2824 3.04553 15.3607C3.04553 14.8479 2.97663 14.3219 3.07572 13.829C3.12952 13.5627 3.46076 13.1585 3.68064 13.1491C5.16038 13.0887 6.64483 13.1179 8.17081 13.1179Z" fill="#DA554A"/>
<path d="M14.1983 23.9056C12.4118 23.9056 10.6952 23.9056 8.94275 23.9056C8.94275 22.2416 8.94275 20.6155 8.94275 18.9355C10.6933 18.9355 12.426 18.9355 14.1983 18.9355C14.1983 20.5947 14.1983 22.218 14.1983 23.9056ZM11.5748 21.0197C11.2775 20.6401 11.1397 20.3719 10.9217 20.2151C10.7396 20.0829 10.4631 20.0801 10.229 20.0206C10.3045 20.2557 10.3404 20.5154 10.4668 20.7194C10.6084 20.9479 10.8311 21.1245 11.1397 21.4531C10.8717 21.6562 10.5876 21.8035 10.4064 22.032C10.2781 22.1935 10.2904 22.4655 10.2394 22.6883C10.4593 22.6411 10.7509 22.6638 10.8821 22.5297C11.102 22.304 11.2199 21.9782 11.3803 21.6949C11.8871 22.0972 12.0372 22.3512 12.2561 22.5117C12.426 22.6364 12.6827 22.643 12.9007 22.7025C12.8459 22.4655 12.861 22.1661 12.7195 22.0065C12.527 21.7903 12.2146 21.6807 11.9541 21.5258C11.9938 21.4191 12.0334 21.3134 12.074 21.2067C12.3448 20.9847 12.6402 20.7864 12.8733 20.5305C12.9667 20.4276 12.9233 20.2 12.9422 20.0291C12.7553 20.0366 12.5071 19.9724 12.3939 20.0678C12.1306 20.2888 11.9334 20.5881 11.5748 21.0197Z" fill="#DA554A"/>
<path d="M20.104 18.1379C18.3421 18.1379 16.6934 18.1379 14.9976 18.1379C14.9976 16.4731 14.9976 14.8337 14.9976 13.116C16.4952 13.116 17.9787 13.0867 19.4594 13.1471C19.6831 13.1566 20.0643 13.5768 20.0747 13.8186C20.1342 15.2341 20.104 16.6525 20.104 18.1379ZM17.0388 15.6477C16.7359 15.8885 16.4329 16.0783 16.2046 16.3343C16.1055 16.4447 16.1583 16.6912 16.1423 16.8763C16.3263 16.8584 16.5745 16.9084 16.6802 16.8083C16.9274 16.5722 17.1058 16.2634 17.3332 15.9565C17.6966 16.3012 17.873 16.5269 18.1014 16.6685C18.3034 16.7932 18.5638 16.8234 18.7979 16.8952C18.7233 16.6412 18.7101 16.338 18.5572 16.1473C18.3959 15.9461 18.1014 15.8526 17.8608 15.7091C18.293 15.2417 18.5601 15.0075 18.7507 14.7223C18.8375 14.592 18.7743 14.3606 18.779 14.1755C18.6129 14.2001 18.4081 14.1717 18.2883 14.2605C17.9976 14.4739 17.7475 14.7412 17.4682 14.998C17.1709 14.7223 16.9331 14.4645 16.6557 14.2605C16.5339 14.1708 16.3329 14.1897 16.1678 14.1585C16.1659 14.3464 16.0894 14.5863 16.1763 14.7119C16.3829 15.0112 16.6679 15.2568 17.0388 15.6477Z" fill="#DA554A"/>
<path d="M8.15666 18.9312C8.15666 20.5951 8.15666 22.2165 8.15666 23.9229C6.6269 23.9229 5.12074 23.9455 3.61647 23.8955C3.42112 23.8889 3.08328 23.5102 3.07573 23.2949C3.0276 21.8567 3.05025 20.4156 3.05025 18.9312C4.7744 18.9312 6.42023 18.9312 8.15666 18.9312ZM5.87005 21.4289C6.37304 20.9983 6.65238 20.8113 6.85622 20.562C6.95437 20.4411 6.91096 20.2041 6.93078 20.02C6.74204 20.0341 6.49384 19.9784 6.37776 20.0785C6.11824 20.3004 5.92384 20.5998 5.68414 20.8916C5.32553 20.5582 5.09149 20.2919 4.80838 20.0983C4.67154 20.0049 4.44316 20.0455 4.25631 20.0247C4.27612 20.2098 4.228 20.4647 4.33086 20.5677C4.57434 20.8094 4.88954 20.9785 5.17548 21.1777C5.16416 21.2891 5.15283 21.3996 5.14245 21.5111C4.86217 21.7198 4.55263 21.9011 4.3167 22.1513C4.21761 22.2561 4.27518 22.5083 4.26102 22.6934C4.4441 22.6726 4.69513 22.7189 4.79611 22.6159C5.03864 22.3695 5.2104 22.0541 5.41046 21.766C5.52371 21.7764 5.63601 21.7859 5.74925 21.7962C5.95593 22.0758 6.13523 22.3855 6.38343 22.6225C6.48912 22.7236 6.74109 22.6716 6.92606 22.6896C6.90907 22.5036 6.96286 22.2458 6.86094 22.1447C6.61463 21.8982 6.2966 21.7264 5.87005 21.4289Z" fill="#DA554A"/>
<path d="M18.2487 9.40172C13.7963 9.40172 9.3769 9.40172 4.90466 9.40172C4.90466 8.60282 4.90466 7.82847 4.90466 7.00879C9.35803 7.00879 13.7774 7.00879 18.2487 7.00879C18.2487 7.78975 18.2487 8.54805 18.2487 9.40172Z" fill="#DA554A"/>
<path d="M5.46705 4.02662H5.40288C5.07352 4.02662 4.80457 3.75749 4.80457 3.42792V0.598705C4.80457 0.269134 5.07352 0 5.40288 0H5.46705C5.7964 0 6.06536 0.269134 6.06536 0.598705V3.42792C6.06536 3.75655 5.7964 4.02662 5.46705 4.02662Z" fill="#DA554A"/>
<path d="M11.5983 4.02662H11.5341C11.2047 4.02662 10.9358 3.75749 10.9358 3.42792V0.598705C10.9358 0.269134 11.2047 0 11.5341 0H11.5983C11.9276 0 12.1966 0.269134 12.1966 0.598705V3.42792C12.1966 3.75655 11.9276 4.02662 11.5983 4.02662Z" fill="#DA554A"/>
<path d="M17.6814 4.02662H17.6172C17.2879 4.02662 17.0189 3.75749 17.0189 3.42792V0.598705C17.0189 0.269134 17.2879 0 17.6172 0H17.6814C18.0108 0 18.2797 0.269134 18.2797 0.598705V3.42792C18.2797 3.75655 18.0098 4.02662 17.6814 4.02662Z" fill="#DA554A"/>
</svg>
