<svg width="21" height="21" viewBox="0 0 21 21" fill="none" xmlns="http://www.w3.org/2000/svg">
<path d="M9.3853 0C12.7407 0 16.0961 0 19.4515 0C19.4695 0.00929688 19.4864 0.0229688 19.5054 0.0273438C20.5001 0.252656 20.9999 0.878281 20.9999 1.89875C20.9999 7.05688 20.9999 12.215 20.9999 17.3731C20.9999 18.3012 20.5676 18.9093 19.6949 19.2019C17.9026 19.8029 16.1092 20.4006 14.3163 21C14.1399 21 13.963 21 13.7866 21C13.7762 20.9918 13.767 20.9787 13.755 20.9754C12.7625 20.7074 12.3095 20.1146 12.309 19.081C12.309 18.8508 12.309 18.6205 12.309 18.375C12.2088 18.375 12.1353 18.375 12.0618 18.375C11.2876 18.375 10.5134 18.3772 9.73919 18.3745C8.24578 18.3695 7.1068 17.2331 7.09373 15.733C7.08883 15.1725 7.09101 14.612 7.09428 14.0514C7.09482 13.9502 7.10244 13.8447 7.13021 13.7484C7.24944 13.3361 7.65397 13.0741 8.06992 13.1305C8.49078 13.1873 8.812 13.5341 8.82017 13.9688C8.83051 14.5294 8.82289 15.0899 8.82506 15.6505C8.82724 16.2668 9.17459 16.6195 9.78274 16.6212C10.5569 16.6234 11.3311 16.6217 12.1053 16.6212C12.1652 16.6212 12.2246 16.6152 12.309 16.6108C12.309 16.5129 12.309 16.4265 12.309 16.3395C12.309 13.4345 12.309 10.5295 12.309 7.62453C12.309 6.26445 12.3062 4.90383 12.31 3.54375C12.3122 2.73492 12.7391 2.12188 13.4779 1.84242C13.522 1.82547 13.5639 1.8025 13.6075 1.78227C13.6047 1.77297 13.602 1.76312 13.5993 1.75383C13.559 1.75383 13.5193 1.75383 13.479 1.75383C12.236 1.75383 10.993 1.75164 9.75007 1.75492C9.18058 1.75656 8.83051 2.11586 8.82452 2.695C8.8218 2.96133 8.82833 3.2282 8.82234 3.49453C8.81145 3.99547 8.44123 4.37281 7.96267 4.37664C7.48682 4.38047 7.10408 4.00203 7.09373 3.50492C7.08665 3.17023 7.08285 2.83445 7.097 2.50031C7.1313 1.69367 7.48682 1.05055 8.10694 0.547969C8.48315 0.243906 8.92361 0.0973438 9.3853 0Z" fill="#3F9777"/>
<path d="M0 8.6224C0.174227 8.10797 0.534514 7.9152 1.06472 7.92603C2.05685 7.94661 3.04951 7.93198 4.04218 7.93198C4.11585 7.93198 4.18898 7.93198 4.29652 7.93198C4.29652 7.8513 4.29652 7.7809 4.29652 7.70997C4.29652 6.9524 4.30244 6.1943 4.29437 5.43674C4.29007 5.02357 4.43741 4.71058 4.81867 4.53784C5.16819 4.37972 5.51288 4.47178 5.83768 4.79885C6.93358 5.90351 8.02896 7.00872 9.1238 8.11447C9.55936 8.55471 9.55882 9.04098 9.12164 9.48231C8.01283 10.6027 6.90509 11.7241 5.79197 12.8402C5.29402 13.3394 4.5127 13.1548 4.33148 12.4996C4.29975 12.3848 4.29867 12.2586 4.29867 12.1378C4.29598 11.4003 4.29706 10.6628 4.29706 9.92526C4.29706 9.85161 4.29706 9.77797 4.29706 9.68104C4.2078 9.67617 4.1309 9.66859 4.054 9.66859C3.06833 9.6675 2.08212 9.65342 1.09699 9.674C0.565701 9.68483 0.187133 9.50776 0.000538263 8.98792C5.25146e-07 8.86608 0 8.74424 0 8.6224Z" fill="#3F9777"/>
</svg>
