<svg width="139" height="109" viewBox="0 0 139 109" fill="none" xmlns="http://www.w3.org/2000/svg">
<rect width="139" height="109" rx="5" fill="#3F9777"/>
<path d="M86.3701 98.3502C86.3701 75.2702 105.15 56.4902 128.23 56.4902C131.95 56.4902 135.56 56.9902 139 57.9002V41.5102C135.51 40.8502 131.91 40.4902 128.23 40.4902C96.3301 40.4902 70.3701 66.4502 70.3701 98.3502C70.3701 101.99 70.7201 105.55 71.3701 109H87.7501C86.8501 105.6 86.3701 102.03 86.3701 98.3502Z" fill="#58C49D"/>
<path d="M113.24 101.42C113.24 90.8297 121.86 82.2097 132.45 82.2097C134.75 82.2097 136.96 82.6397 139 83.3897V68.8697C136.88 68.4397 134.69 68.2197 132.45 68.2197C114.14 68.2197 99.24 83.1197 99.24 101.43C99.24 104.04 99.55 106.57 100.12 109.01H114.8C113.8 106.67 113.24 104.11 113.24 101.42Z" fill="#58C49D"/>
</svg>
