<svg width="139" height="109" viewBox="0 0 139 109" fill="none" xmlns="http://www.w3.org/2000/svg">
<rect width="139" height="109" rx="5" fill="#DA554A"/>
<path d="M86.8531 98.4293C86.8531 75.5211 105.461 56.8809 128.329 56.8809C132.015 56.8809 135.592 57.3772 139 58.2804V42.0124C135.542 41.3573 131.975 41 128.329 41C96.7217 41 71 66.7667 71 98.4293C71 102.042 71.3468 105.576 71.9908 109H88.2205C87.3287 105.625 86.8531 102.082 86.8531 98.4293Z" fill="#EF7368"/>
<path d="M113.732 101.371C113.732 90.7264 122.188 82.062 132.575 82.062C134.831 82.062 136.999 82.4942 139 83.2481V68.6533C136.921 68.2211 134.772 68 132.575 68C114.615 68 100 82.9767 100 101.381C100 104.004 100.304 106.547 100.863 109H115.263C114.282 106.648 113.732 104.075 113.732 101.371Z" fill="#EF7368"/>
</svg>
