<svg width="21" height="21" viewBox="0 0 21 21" fill="none" xmlns="http://www.w3.org/2000/svg">
<path d="M1.47688 0C4.88119 0 8.28494 0 11.6893 0C11.7411 0.0140954 11.7918 0.0321375 11.8448 0.0417224C12.9828 0.241877 13.937 1.25506 13.9793 2.37818C14.0159 3.35471 13.9934 4.33349 13.9906 5.31115C13.99 5.56543 13.8699 5.77292 13.6732 5.9291C13.3976 6.14786 13.0865 6.18901 12.7681 6.04581C12.4406 5.89921 12.2591 5.63422 12.2563 5.27169C12.2501 4.43047 12.254 3.58982 12.2529 2.74861C12.2518 2.10304 11.9091 1.75516 11.2711 1.7546C10.0542 1.75347 8.83787 1.75403 7.62099 1.7546C7.56181 1.7546 7.50319 1.75967 7.43725 1.76305C7.45134 1.78392 7.45585 1.79914 7.46487 1.80309C8.42304 2.21016 8.74712 2.69899 8.74712 3.74036C8.74712 7.9453 8.74712 12.1508 8.74712 16.3558C8.74712 16.4409 8.74712 16.526 8.74712 16.6264C8.84914 16.6264 8.91677 16.6264 8.98441 16.6264C9.74305 16.6264 10.5017 16.627 11.2603 16.6264C11.9119 16.6258 12.2523 16.2813 12.2529 15.6228C12.254 14.5358 12.2523 13.4482 12.2546 12.3611C12.2546 12.2461 12.2574 12.126 12.2867 12.0161C12.3955 11.6101 12.7996 11.3355 13.202 11.3823C13.6586 11.4353 13.9883 11.7731 13.9917 12.2292C14.0001 13.3985 14.0018 14.5679 13.9939 15.7367C13.9838 17.2404 12.8368 18.3753 11.3336 18.3799C10.5474 18.3821 9.76166 18.3804 8.9754 18.3804C8.90381 18.3804 8.83167 18.3804 8.74599 18.3804C8.74599 18.6567 8.74994 18.9025 8.74487 19.1472C8.74148 19.2972 8.74206 19.45 8.71162 19.596C8.49068 20.6628 7.44402 21.2497 6.38327 20.8979C4.70534 20.3419 3.03024 19.7798 1.35401 19.2194C0.420076 18.907 0.000735501 18.3218 0.000735501 17.3362C0.000735501 12.201 0.000735501 7.06631 0.000735501 1.93107C0.000735501 1.86285 -0.00151791 1.79406 0.00186386 1.72584C0.0390634 0.979349 0.400903 0.451053 1.07613 0.138135C1.20295 0.0789343 1.34273 0.0456691 1.47688 0Z" fill="#DA554A"/>
<path d="M20.9999 8.94575C20.8392 9.16548 20.703 9.40925 20.5145 9.60151C19.442 10.6985 18.3558 11.7828 17.2771 12.8735C17.0437 13.1092 16.774 13.238 16.4407 13.1773C16.003 13.0978 15.7151 12.7407 15.7129 12.2738C15.7089 11.483 15.7117 10.6916 15.7117 9.90078C15.7117 9.82525 15.7117 9.74972 15.7117 9.64271C15.6203 9.64271 15.5408 9.64271 15.4619 9.64271C14.3951 9.64271 13.3277 9.64443 12.2608 9.64157C11.7686 9.64042 11.4131 9.36461 11.3263 8.92744C11.2139 8.36037 11.6221 7.86597 12.2148 7.86368C13.2959 7.85968 14.3763 7.86254 15.4574 7.86254C15.5323 7.86254 15.6072 7.86254 15.7117 7.86254C15.7117 7.779 15.7117 7.70575 15.7117 7.63251C15.7117 6.84857 15.7151 6.06463 15.7106 5.28012C15.7083 4.86411 15.8701 4.54424 16.2545 4.38288C16.6378 4.22208 16.9784 4.3268 17.2702 4.62206C18.4126 5.7768 19.5606 6.92582 20.6973 8.0857C20.8273 8.21846 20.9006 8.40729 20.9999 8.5698C20.9999 8.69626 20.9999 8.82101 20.9999 8.94575Z" fill="#DA554A"/>
</svg>
