<svg width="15" height="11" viewBox="0 0 15 11" fill="none" xmlns="http://www.w3.org/2000/svg">
<path d="M14.1852 3.81779C13.8933 4.50756 13.3368 4.83849 12.6606 5.02285C11.6372 5.30206 10.6168 5.59435 9.59514 5.88093C9.54922 5.89401 9.50281 5.90544 9.42977 5.92472C9.4597 5.86568 9.47996 5.82455 9.5012 5.78437C9.66892 5.47116 9.83707 5.15765 10.0052 4.84451C10.0513 4.75852 10.0482 4.66738 9.96903 4.61969C9.91607 4.588 9.83043 4.58977 9.76727 4.60726C9.72789 4.61796 9.69702 4.68233 9.67241 4.72859C9.44676 5.14688 9.22313 5.5667 8.99889 5.98563C8.27545 7.33702 7.55231 8.68886 6.82714 10.0392C6.71729 10.2433 6.59753 10.4473 6.39213 10.5641C6.31129 10.6102 6.19896 10.6332 6.10902 10.6181C5.91007 10.5854 5.87515 10.5165 5.92848 10.3204C6.19331 9.34345 6.46074 8.36699 6.72736 7.39079C6.88488 6.8142 7.04233 6.23799 7.19948 5.66133C7.20781 5.63143 7.21517 5.60057 7.21942 5.56994C7.23364 5.46107 7.19058 5.38406 7.08582 5.35971C6.98545 5.33652 6.9149 5.38723 6.88624 5.48689C6.81449 5.73543 6.7457 5.9845 6.67648 6.23388C6.63807 6.37144 6.60658 6.511 6.56065 6.64565C6.54652 6.6867 6.50019 6.73461 6.45956 6.74588C5.06888 7.13957 3.67689 7.5299 2.28472 7.91901C2.10364 7.96945 1.98848 7.90208 1.93937 7.71616C1.83713 7.33026 1.73731 6.94361 1.64111 6.55604C1.59798 6.38175 1.66324 6.27639 1.83545 6.22204C1.89378 6.20369 1.953 6.18903 2.01181 6.17234C2.0662 6.15683 2.12066 6.14094 2.19845 6.11857C2.14778 6.08258 2.1123 6.05593 2.07524 6.03175C1.5883 5.71608 1.10117 5.40155 0.61423 5.08588C0.391048 4.94103 0.37122 4.8191 0.537561 4.60919C0.771374 4.31392 1.00593 4.01877 1.24109 3.72452C1.36624 3.56814 1.44697 3.54864 1.62809 3.63038C2.34609 3.95502 3.06295 4.28181 3.78294 4.6017C3.85141 4.63221 3.94441 4.64076 4.01671 4.62135C4.45964 4.50295 4.89956 4.37344 5.34035 4.2476C5.38143 4.23602 5.42209 4.2224 5.47793 4.20519C5.43089 4.15728 5.3953 4.12042 5.3589 4.0838C4.68059 3.40378 4.0038 2.72167 3.32179 2.04531C3.20064 1.92512 3.16192 1.80182 3.21784 1.63872C3.39246 1.1279 3.82964 0.79906 4.46034 1.09144C4.85333 1.27368 5.21883 1.51852 5.58994 1.74671C6.45547 2.27855 7.31763 2.81646 8.17935 3.35468C8.26383 3.40723 8.33798 3.41638 8.43456 3.38948C9.62837 3.05324 10.8243 2.72482 12.0175 2.38732C12.5064 2.24918 12.9903 2.22624 13.466 2.41012C13.9292 2.58905 14.1985 2.93027 14.229 3.4498C14.2301 3.46726 14.2367 3.48411 14.241 3.50133C14.2224 3.60669 14.2038 3.71243 14.1852 3.81779Z" fill="white" fill-opacity="0.8"/>
</svg>
