<svg width="11" height="11" viewBox="0 0 11 11" fill="none" xmlns="http://www.w3.org/2000/svg">
<path d="M8.52846 0.00111888C8.67988 0.0607923 8.8313 0.120466 8.98309 0.179766C9.02263 0.19543 9.06253 0.210349 9.11176 0.229743C9.06328 0.366991 9.01629 0.500511 8.96556 0.6441C9.983 1.15207 10.6372 1.95654 10.9057 3.0605C11.1026 3.86945 10.9792 4.65042 10.6484 5.41461C10.501 5.3348 10.3552 5.25573 10.209 5.17667C9.71447 4.90963 9.18971 4.72912 8.63997 4.61536C8.56724 4.60045 8.49638 4.55905 8.43335 4.5169C8.20212 4.36287 7.97461 4.20324 7.72995 4.03504C7.24324 5.37135 6.76846 6.67596 6.2866 7.99922C6.96128 8.06374 7.61433 8.19278 8.25098 8.3994C8.88799 8.60639 9.49405 8.88015 10.0621 9.22178C9.82747 9.36984 9.60034 9.52462 9.36202 9.65963C9.22029 9.74019 9.06365 9.72527 8.92267 9.63651C8.77424 9.54327 8.63587 9.43175 8.48072 9.35231C7.64977 8.92826 6.83112 8.95325 6.03224 9.44294C5.94385 9.49702 5.86031 9.55893 5.77378 9.61637C5.59103 9.73795 5.40567 9.73944 5.2233 9.6145C4.97789 9.44667 4.73472 9.27511 4.4468 9.18635C3.72065 8.96294 3.02769 9.02448 2.37762 9.43474C2.28401 9.49404 2.19413 9.5593 2.10126 9.6201C1.92448 9.73646 1.74695 9.73609 1.56867 9.62233C1.3587 9.48844 1.14798 9.3553 0.937256 9.22178C1.42509 8.92565 1.94499 8.68211 2.48765 8.48705C3.46666 8.13498 4.47663 7.96192 5.51682 7.9664C5.58096 7.96677 5.61901 7.95633 5.64437 7.88696C6.12847 6.54953 6.61518 5.21322 7.10152 3.87653C7.10375 3.86982 7.10487 3.86273 7.11159 3.83663C7.00082 3.81537 6.89117 3.79038 6.7804 3.77397C6.67075 3.75756 6.55961 3.73555 6.44996 3.74078C6.25415 3.7501 6.08259 3.69975 5.91103 3.60576C5.33108 3.28651 4.70078 3.11719 4.05221 3.00754C4.03841 3.0053 4.02461 3.00194 4.01081 2.99896C4.34498 1.52689 6.00875 -0.134638 8.36062 0.418833C8.40911 0.280465 8.45834 0.140232 8.50757 0C8.51391 0.00111888 8.521 0.00111888 8.52846 0.00111888Z" fill="white" fill-opacity="0.8"/>
<path d="M0 8.86806C0.339765 8.85501 0.65044 8.94638 0.934635 9.12988C1.02787 9.18992 1.1185 9.25407 1.21062 9.31561C1.59477 9.57258 2.07663 9.57258 2.46041 9.31188C2.70917 9.14293 2.95309 8.96652 3.25742 8.90648C3.74786 8.80988 4.20996 8.86694 4.63364 9.15039C4.81975 9.27496 4.99354 9.42526 5.22179 9.47375C5.54776 9.54312 5.85396 9.50507 6.13256 9.30852C6.37834 9.1351 6.62561 8.96317 6.92995 8.90461C7.41255 8.81212 7.86943 8.86396 8.2864 9.1433C8.37255 9.20111 8.45833 9.25967 8.54448 9.3171C8.92266 9.56997 9.409 9.57146 9.78569 9.31561C10.0404 9.14256 10.2899 8.95944 10.6025 8.90349C10.7282 8.88111 10.8557 8.87067 10.9911 8.85352C10.9911 9.07729 10.9911 9.28316 10.9911 9.4909C10.9874 9.49426 10.9818 9.50284 10.9765 9.50284C10.6625 9.49463 10.4179 9.65612 10.1773 9.82806C9.7249 10.1514 9.22215 10.226 8.69628 10.0828C8.48779 10.0261 8.29982 9.89332 8.1029 9.79449C7.92873 9.70684 7.76351 9.58563 7.57927 9.53678C7.2712 9.45472 6.96985 9.50992 6.70058 9.69976C6.46076 9.86871 6.22095 10.0384 5.92445 10.0999C5.42655 10.2033 4.95737 10.1481 4.52846 9.85677C4.4576 9.80866 4.38376 9.76391 4.31551 9.71207C3.95224 9.43608 3.38833 9.4372 3.0191 9.70946C2.78563 9.88176 2.54395 10.0429 2.25155 10.1022C1.75775 10.2025 1.29118 10.1473 0.865264 9.85901C0.747036 9.77883 0.627317 9.69976 0.504613 9.62666C0.349835 9.53416 0.179393 9.49985 0 9.51216C0 9.29771 0 9.08288 0 8.86806Z" fill="white" fill-opacity="0.8"/>
<path d="M0.328536 4.24419C0.628395 4.24419 0.915946 4.24419 1.19865 4.24419C1.19865 3.95962 1.19865 3.67207 1.19865 3.37296C1.44294 3.52662 1.68909 3.68139 1.9427 3.84102C2.08256 3.57734 2.2172 3.32298 2.36303 3.04736C2.50661 3.31925 2.64088 3.57286 2.7826 3.84027C3.03398 3.68289 3.28013 3.52848 3.52703 3.3737C3.52703 3.66834 3.52703 3.95514 3.52703 4.24381C3.80488 4.24381 4.09281 4.24381 4.39752 4.24381C4.24423 4.48698 4.09169 4.72941 3.92983 4.98712C4.18903 5.12437 4.446 5.26013 4.72385 5.40707C4.45085 5.55178 4.19202 5.68866 3.92983 5.8274C4.08908 6.08026 4.24274 6.32455 4.39789 6.57108C4.10064 6.57108 3.81384 6.57108 3.5274 6.57108C3.5274 6.85005 3.5274 7.14059 3.5274 7.44082C3.28237 7.28753 3.03584 7.13275 2.78335 6.97462C2.64424 7.23755 2.50923 7.49266 2.36377 7.76753C2.21944 7.4949 2.08331 7.2383 1.94345 6.97425C1.69245 7.13201 1.44816 7.28529 1.19939 7.44194C1.19939 7.14469 1.19939 6.85527 1.19939 6.57108C0.918557 6.57108 0.63026 6.57108 0.329655 6.57108C0.482568 6.32716 0.637346 6.08064 0.796599 5.82702C0.533663 5.68828 0.275949 5.55178 0.00219727 5.40707C0.273711 5.26348 0.528442 5.12885 0.796226 4.98712C0.638838 4.73799 0.484433 4.49258 0.328536 4.24419ZM1.18149 5.40558C1.18075 6.05639 1.70886 6.58711 2.36004 6.5901C3.0075 6.59308 3.54232 6.06012 3.54381 5.41043C3.54531 4.75887 3.01794 4.23039 2.36489 4.22964C1.71109 4.22852 1.18261 4.75365 1.18149 5.40558Z" fill="white" fill-opacity="0.8"/>
</svg>
