<svg width="12" height="12" viewBox="0 0 12 12" fill="none" xmlns="http://www.w3.org/2000/svg">
<path d="M3.33447 11.7304C3.33447 8.485 3.33447 5.23934 3.33447 1.98584C4.95595 1.98584 6.57141 1.98584 8.20102 1.98584C8.20102 5.23392 8.20102 8.48199 8.20102 11.7304C7.9533 11.7304 7.70528 11.7304 7.45755 11.7304C7.45093 11.3884 7.4705 11.0435 7.43227 10.7052C7.33986 9.88886 6.60934 9.2673 5.77347 9.26429C4.93458 9.26128 4.19774 9.88405 4.10352 10.7052C4.0647 11.0435 4.08486 11.3884 4.07824 11.7304C3.83022 11.7304 3.5825 11.7304 3.33447 11.7304ZM4.75097 3.09773C4.52071 3.09773 4.30188 3.09773 4.08516 3.09773C4.08516 3.39903 4.08516 3.691 4.08516 3.98206C4.31121 3.98206 4.52974 3.98206 4.75097 3.98206C4.75097 3.68377 4.75097 3.39481 4.75097 3.09773ZM5.43635 3.98176C5.6636 3.98176 5.88243 3.98176 6.09824 3.98176C6.09824 3.68046 6.09824 3.3891 6.09824 3.09412C5.8746 3.09412 5.65848 3.09412 5.43635 3.09412C5.43635 3.3918 5.43635 3.68347 5.43635 3.98176ZM6.78753 3.09472C6.78753 3.39602 6.78753 3.68769 6.78753 3.98387C7.01208 3.98387 7.2306 3.98387 7.45214 3.98387C7.45214 3.68468 7.45214 3.39271 7.45214 3.09472C7.2303 3.09472 7.01448 3.09472 6.78753 3.09472ZM4.08546 4.60694C4.08546 4.90733 4.08546 5.20171 4.08546 5.4988C4.30911 5.4988 4.52552 5.4988 4.74616 5.4988C4.74616 5.199 4.74616 4.90462 4.74616 4.60694C4.52251 4.60694 4.3064 4.60694 4.08546 4.60694ZM6.09975 4.60694C5.874 4.60694 5.65788 4.60694 5.43725 4.60694C5.43725 4.90763 5.43725 5.20201 5.43725 5.49849C5.66119 5.49849 5.87731 5.49849 6.09975 5.49849C6.09975 5.20111 6.09975 4.90914 6.09975 4.60694ZM6.78482 5.49518C7.01418 5.49518 7.23301 5.49518 7.45063 5.49518C7.45063 5.19479 7.45063 4.90312 7.45063 4.60995C7.22488 4.60995 7.00606 4.60995 6.78482 4.60995C6.78482 4.90794 6.78482 5.1972 6.78482 5.49518ZM4.08125 6.99717C4.31151 6.99717 4.53004 6.99717 4.74706 6.99717C4.74706 6.69587 4.74706 6.4042 4.74706 6.11283C4.52131 6.11283 4.30279 6.11283 4.08125 6.11283C4.08125 6.41112 4.08125 6.70008 4.08125 6.99717ZM6.09674 7.00289C6.09674 6.69767 6.09674 6.4033 6.09674 6.11073C5.87159 6.11073 5.65547 6.11073 5.43906 6.11073C5.43906 6.41173 5.43906 6.7058 5.43906 7.00289C5.6618 7.00289 5.8746 7.00289 6.09674 7.00289ZM6.78964 6.10922C6.78964 6.40902 6.78964 6.70309 6.78964 7.00048C7.01358 7.00048 7.2294 7.00048 7.45003 7.00048C7.45003 6.69978 7.45003 6.4054 7.45003 6.10922C7.22639 6.10922 7.01027 6.10922 6.78964 6.10922ZM4.74706 8.5139C4.74706 8.20929 4.74706 7.91732 4.74706 7.62535C4.52161 7.62535 4.30279 7.62535 4.08486 7.62535C4.08486 7.92575 4.08486 8.21712 4.08486 8.5139C4.3079 8.5139 4.52402 8.5139 4.74706 8.5139ZM6.10276 7.62475C5.8743 7.62475 5.65578 7.62475 5.43635 7.62475C5.43635 7.92485 5.43635 8.21621 5.43635 8.51059C5.6618 8.51059 5.88062 8.51059 6.10276 8.51059C6.10276 8.2132 6.10276 7.92424 6.10276 7.62475ZM7.45424 7.62565C7.22488 7.62565 7.00606 7.62565 6.78934 7.62565C6.78934 7.92635 6.78934 8.21772 6.78934 8.50969C7.01539 8.50969 7.23391 8.50969 7.45424 8.50969C7.45424 8.2114 7.45424 7.92244 7.45424 7.62565Z" fill="white" fill-opacity="0.8"/>
<path d="M0 11.7304V5.05902C0 4.93291 0.10234 4.83057 0.228458 4.83057H2.43026C2.55638 4.83057 2.65872 4.93291 2.65872 5.05902V11.7304H0ZM1.65971 6.75756C1.65971 6.45566 1.65971 6.16158 1.65971 5.86871C1.43336 5.86871 1.21483 5.86871 0.996908 5.86871C0.996908 6.16881 0.996908 6.46017 0.996908 6.75756C1.21814 6.75756 1.43426 6.75756 1.65971 6.75756ZM0.996306 8.26767C1.22416 8.26767 1.44269 8.26767 1.6582 8.26767C1.6582 7.96517 1.6582 7.67079 1.6582 7.37882C1.43305 7.37882 1.21724 7.37882 0.996306 7.37882C0.996306 7.67681 0.996306 7.96818 0.996306 8.26767ZM1.66181 8.87659C1.43366 8.87659 1.21784 8.87659 0.999617 8.87659C0.999617 9.17789 0.999617 9.47227 0.999617 9.76634C1.22416 9.76634 1.44028 9.76634 1.66181 9.76634C1.66181 9.46835 1.66181 9.17669 1.66181 8.87659Z" fill="white" fill-opacity="0.8"/>
<path d="M8.87695 11.7302V5.09256C8.87695 4.94327 8.99795 4.82227 9.14725 4.82227H11.2657C11.415 4.82227 11.536 4.94327 11.536 5.09256V11.7302H8.87695ZM10.5361 6.75829C10.5361 6.45428 10.5361 6.1602 10.5361 5.86944C10.3091 5.86944 10.0906 5.86944 9.87446 5.86944C9.87446 6.17014 9.87446 6.46181 9.87446 6.75829C10.0966 6.75829 10.3127 6.75829 10.5361 6.75829ZM10.5367 8.27051C10.5367 7.9677 10.5367 7.67363 10.5367 7.38166C10.31 7.38166 10.0915 7.38166 9.87416 7.38166C9.87416 7.68205 9.87416 7.97342 9.87416 8.27051C10.0957 8.27051 10.3118 8.27051 10.5367 8.27051ZM9.87506 8.87491C9.87506 9.17952 9.87506 9.47119 9.87506 9.76346C10.1005 9.76346 10.319 9.76346 10.5373 9.76346C10.5373 9.46306 10.5373 9.1717 10.5373 8.87491C10.3145 8.87491 10.0984 8.87491 9.87506 8.87491Z" fill="white" fill-opacity="0.8"/>
<path d="M4.75402 11.7302C4.75432 11.4596 4.7504 11.189 4.75582 10.9184C4.76395 10.5109 5.05532 10.1144 5.43006 10.0088C5.43006 10.5855 5.43006 11.158 5.43006 11.7302C5.20461 11.7302 4.97946 11.7302 4.75402 11.7302Z" fill="white" fill-opacity="0.8"/>
<path d="M6.10571 11.73C6.10571 11.159 6.10571 10.5883 6.10571 10.0005C6.15327 10.0201 6.1915 10.0315 6.22581 10.0505C6.57768 10.2428 6.76761 10.5396 6.77995 10.9411C6.78808 11.2039 6.78176 11.4673 6.78176 11.7303C6.55631 11.73 6.33116 11.73 6.10571 11.73Z" fill="white" fill-opacity="0.8"/>
<path d="M2.65361 2.95505V3.98326C2.65361 4.06964 2.58378 4.13948 2.49739 4.13948H0.165252C0.0788649 4.13948 0.0090332 4.06964 0.0090332 3.98326V2.95505C0.0090332 2.86866 0.0788649 2.79883 0.165252 2.79883H2.49739C2.58378 2.79883 2.65361 2.86866 2.65361 2.95505Z" fill="white" fill-opacity="0.8"/>
<path d="M11.5286 2.95505V3.98326C11.5286 4.06964 11.4588 4.13948 11.3724 4.13948H9.04025C8.95386 4.13948 8.88403 4.06964 8.88403 3.98326V2.95505C8.88403 2.86866 8.95386 2.79883 9.04025 2.79883H11.3724C11.4588 2.79883 11.5286 2.86866 11.5286 2.95505Z" fill="white" fill-opacity="0.8"/>
<path d="M8.20132 0.169462V1.28617C8.20132 1.37978 8.07279 1.45563 7.91387 1.45563H3.62193C3.4633 1.45563 3.33447 1.37978 3.33447 1.28617V0.169462C3.33447 0.0758517 3.463 0 3.62193 0H7.91387C8.07249 0 8.20132 0.0758517 8.20132 0.169462Z" fill="white" fill-opacity="0.8"/>
</svg>
