<svg width="20" height="20" viewBox="0 0 20 20" fill="none" xmlns="http://www.w3.org/2000/svg">
<path d="M18.8889 10.2501C16.1334 8.36929 12.8426 9.11121 11.0479 10.8378C9.91673 11.9258 9.23577 13.2423 9.05862 14.8158C8.88203 16.3859 9.24423 17.8286 10.1097 19.1502C7.21206 19.4455 3.39427 18.081 1.31077 14.4662C-0.807723 10.7909 -0.316893 6.18638 2.48369 3.12277C5.34294 -0.00595776 9.82759 -0.887803 13.5636 0.95185C17.3915 2.83605 19.1771 6.78037 18.8889 10.2501ZM8.56214 8.68799C8.45664 8.68799 8.37991 8.68799 8.30375 8.68799C7.36101 8.68799 6.41826 8.68685 5.47552 8.68856C4.91812 8.6897 4.51134 9.07694 4.51078 9.60182C4.51022 10.1153 4.91078 10.5151 5.45408 10.5174C6.77652 10.5236 8.09951 10.5236 9.42194 10.5174C9.98556 10.5145 10.3641 10.1307 10.3653 9.55841C10.3703 7.60339 10.3709 5.64893 10.3607 3.69391C10.3596 3.51743 10.3009 3.32381 10.2152 3.16903C10.0188 2.81378 9.5991 2.66585 9.21038 2.7778C8.82279 2.88974 8.5627 3.24271 8.56214 3.67678C8.55988 5.2537 8.56102 6.83006 8.56102 8.40699C8.56214 8.49209 8.56214 8.57662 8.56214 8.68799Z" fill="#337ABE"/>
<path d="M15.5219 19.9994C13.0153 20.0448 10.9162 18.1241 10.8143 15.5537C10.7148 13.0303 12.7201 10.9088 15.294 10.8141C17.7913 10.7222 19.9141 12.7164 19.9975 15.2822C20.0787 17.766 18.1447 19.9093 15.5219 19.9994ZM16.3234 14.2668C16.3234 13.9011 16.3234 13.5361 16.3234 13.1704C16.3234 13.1561 16.3234 13.1417 16.3229 13.1274C16.3096 12.5895 15.9172 12.1883 15.4056 12.19C14.8935 12.1917 14.4982 12.5918 14.4942 13.1314C14.4878 13.8833 14.4878 14.6359 14.4942 15.3878C14.4988 15.9314 14.8883 16.3206 15.4097 16.3194C15.9299 16.3189 16.3131 15.9297 16.3217 15.3838C16.328 15.0118 16.3229 14.6393 16.3234 14.2668ZM16.3217 17.6994C16.3177 17.1891 15.9109 16.7844 15.4033 16.7855C14.8987 16.7873 14.493 17.1988 14.4947 17.7074C14.4965 18.2154 14.9056 18.623 15.4125 18.623C15.916 18.623 16.3257 18.2068 16.3217 17.6994Z" fill="#337ABE"/>
</svg>
