<svg width="139" height="109" viewBox="0 0 139 109" fill="none" xmlns="http://www.w3.org/2000/svg">
<rect width="139" height="109" rx="5" fill="#337ABE"/>
<path d="M86.0863 98.2738C86.0863 75.0288 104.967 56.1144 128.172 56.1144C131.912 56.1144 135.541 56.618 139 57.5345V41.0273C135.491 40.3626 131.872 40 128.172 40C96.1 40 70 66.1457 70 98.2738C70 101.94 70.3519 105.525 71.0054 109H87.4737C86.5688 105.576 86.0863 101.98 86.0863 98.2738Z" fill="#4993DA"/>
<path d="M113.085 101.371C113.085 90.7264 121.757 82.062 132.41 82.062C134.724 82.062 136.948 82.4942 139 83.2481V68.6533C136.867 68.2211 134.664 68 132.41 68C113.99 68 99 82.9767 99 101.381C99 104.004 99.3119 106.547 99.8853 109H114.654C113.648 106.648 113.085 104.075 113.085 101.371Z" fill="#4993DA"/>
</svg>
