<svg width="90" height="89" viewBox="0 0 90 89" fill="none" xmlns="http://www.w3.org/2000/svg">
<path d="M0 33.5526C0.138539 32.9979 0.260641 32.4386 0.413268 31.8886C1.79631 26.9103 6.33991 23.3904 11.5856 23.3303C16.3311 23.2772 21.0767 23.3072 25.8222 23.3188C27.3673 23.3211 28.438 24.308 28.4192 25.6531C28.4004 27.0074 27.3485 27.9619 25.7799 27.9665C21.1823 27.9827 16.5824 27.9481 11.9848 27.9827C8.25127 28.0105 5.47345 30.3309 4.83477 33.8716C4.77841 34.1813 4.75258 34.5002 4.75258 34.8168C4.74554 38.5655 4.74554 42.3119 4.74554 46.0607C4.74554 46.2016 4.76198 46.3403 4.77372 46.5391C31.5939 46.5391 58.3741 46.5391 85.1966 46.5391C85.2154 46.3241 85.2506 46.1277 85.2506 45.9335C85.253 42.2426 85.2812 38.5517 85.2412 34.8631C85.2013 31.1028 82.2239 28.0705 78.4082 28.0058C73.7237 27.9273 69.0346 27.9735 64.3477 27.9758C63.2018 27.9758 62.2602 27.6337 61.7742 26.5382C61.0838 24.9736 62.2133 23.3396 64.0307 23.3257C67.9262 23.298 71.8218 23.2795 75.7173 23.3303C77.4948 23.3535 79.3216 23.3188 81.0358 23.7071C86.2744 24.8881 89.9703 29.5428 89.9797 34.8307C90.0056 48.9011 90.0079 62.9691 89.9797 77.0395C89.968 82.6834 85.7766 87.4444 80.1012 88.4058C79.9369 88.4336 79.7795 88.5145 79.6199 88.5699C56.5355 88.5699 33.4512 88.5699 10.3693 88.5699C10.2096 88.5145 10.0546 88.4405 9.89026 88.4058C5.05314 87.4444 1.90667 84.6317 0.427357 80.0094C0.253596 79.4709 0.140887 78.9116 0 78.3638C0 63.4221 0 48.4874 0 33.5526ZM4.74084 51.2978C4.74084 51.6352 4.74084 51.8917 4.74084 52.1506C4.74084 60.2813 4.73615 68.4096 4.74319 76.5403C4.74789 80.9477 7.75817 83.8991 12.2548 83.8991C34.0758 83.9037 55.8969 83.9037 77.7155 83.8991C82.2544 83.8991 85.2483 80.9454 85.2506 76.4756C85.2553 68.4027 85.253 60.3321 85.253 52.2592C85.253 51.9518 85.253 51.6467 85.253 51.2978C58.3835 51.2978 31.6267 51.2978 4.74084 51.2978Z" fill="#CC4236"/>
<path d="M47.7044 24.6432C47.8758 24.3728 48.0002 24.0585 48.2233 23.8389C51.2148 20.8737 54.1992 17.8992 57.2448 14.9871C57.7472 14.5064 58.5104 14.1621 59.2054 14.0326C60.0695 13.8732 60.7834 14.377 61.2272 15.1351C61.6897 15.9232 61.685 16.739 61.199 17.5109C60.9853 17.8484 60.6918 18.1419 60.403 18.4262C55.9956 22.7712 51.5858 27.1115 47.1737 31.4519C45.5817 33.0189 44.417 33.0212 42.8367 31.4634C38.3847 27.0815 33.9256 22.7064 29.4924 18.3083C29.0744 17.8946 28.694 17.3607 28.5156 16.8153C28.208 15.8677 28.6893 14.8647 29.5253 14.347C30.4082 13.8015 31.4718 13.8685 32.3007 14.5388C32.5496 14.7399 32.7727 14.9687 33.0005 15.1928C35.9215 18.0656 38.8402 20.9384 41.7613 23.8112C41.9867 24.033 42.2192 24.2434 42.6301 24.6293C42.6301 24.1024 42.6301 23.7765 42.6301 23.4506C42.6301 16.561 42.6277 9.67378 42.6324 2.78419C42.6324 1.29811 43.1349 0.49845 44.2573 0.124041C45.6216 -0.331258 47.0727 0.512317 47.2934 1.91057C47.3568 2.30578 47.3545 2.71486 47.3545 3.117C47.3568 9.91876 47.3568 16.7205 47.3568 23.5223C47.3568 23.825 47.3568 24.1278 47.3568 24.4306C47.4742 24.5045 47.5893 24.5739 47.7044 24.6432Z" fill="#CC4236"/>
<path d="M4.74082 51.2979C31.6267 51.2979 58.3835 51.2979 85.2506 51.2979C85.2506 51.6445 85.2506 51.9519 85.2506 52.2593C85.2506 60.3322 85.253 68.4028 85.2483 76.4757C85.2459 80.9478 82.2521 83.8992 77.7132 83.8992C55.8921 83.9038 34.0711 83.9038 12.2524 83.8992C7.7558 83.8992 4.74552 80.9455 4.74082 76.5404C4.73378 68.4097 4.73847 60.2814 4.73847 52.1507C4.74082 51.8941 4.74082 51.6353 4.74082 51.2979ZM63.9814 69.9027C65.5006 69.9027 67.0222 69.9166 68.5414 69.8981C69.9996 69.8819 70.9882 68.9713 71.021 67.654C71.0539 66.3343 70.1029 65.285 68.68 65.2619C65.5241 65.2134 62.3659 65.2157 59.2077 65.2619C57.7918 65.2827 56.7985 66.3597 56.8408 67.6447C56.883 68.9436 57.8998 69.8819 59.3298 69.8981C60.8819 69.9166 62.4316 69.9027 63.9814 69.9027ZM26.0429 69.9027C27.5621 69.9027 29.0837 69.9143 30.6029 69.9004C32.0917 69.8866 33.1272 68.9436 33.1483 67.6147C33.1694 66.2927 32.1433 65.2712 30.6616 65.255C27.5927 65.2226 24.5213 65.2249 21.4523 65.2527C19.9636 65.2665 18.9586 66.2626 18.968 67.6008C18.9751 68.9575 19.9754 69.8842 21.4829 69.9004C23.0021 69.9143 24.5237 69.9027 26.0429 69.9027Z" fill="#F79F97"/>
<path d="M63.9814 69.903C62.4316 69.903 60.8818 69.9169 59.3321 69.8984C57.8997 69.8822 56.8854 68.9462 56.8431 67.645C56.8008 66.36 57.7964 65.283 59.21 65.2622C62.3659 65.216 65.5264 65.216 68.6823 65.2622C70.1052 65.283 71.0562 66.3346 71.0234 67.6543C70.9905 68.9716 70.0019 69.8799 68.5437 69.8984C67.0222 69.9169 65.5006 69.903 63.9814 69.903Z" fill="#CC4236"/>
<path d="M26.0429 69.9027C24.5237 69.9027 23.0021 69.9142 21.4829 69.898C19.9754 69.8819 18.9751 68.9551 18.9681 67.5984C18.961 66.2603 19.966 65.2641 21.4524 65.2503C24.5213 65.2202 27.5927 65.2202 30.6617 65.2526C32.1433 65.2688 33.1694 66.2903 33.1483 67.6123C33.1272 68.9412 32.0917 69.8842 30.603 69.898C29.0837 69.9142 27.5622 69.9027 26.0429 69.9027Z" fill="#CC4236"/>
</svg>
