<svg width="90" height="90" viewBox="0 0 90 90" fill="none" xmlns="http://www.w3.org/2000/svg">
<path d="M0 34.1806C0.138539 33.6259 0.260641 33.0665 0.413268 32.5165C1.79631 27.538 6.33991 24.0179 11.5856 23.9578C16.3311 23.9046 21.0767 23.9347 25.8222 23.9462C27.3673 23.9485 28.438 24.9355 28.4192 26.2806C28.4004 27.635 27.3485 28.5896 25.7799 28.5942C21.1823 28.6104 16.5824 28.5757 11.9848 28.6104C8.25127 28.6381 5.47345 30.9587 4.83477 34.4995C4.77841 34.8093 4.75258 35.1282 4.75258 35.4449C4.74554 39.1938 4.74554 42.9403 4.74554 46.6892C4.74554 46.8302 4.76198 46.9689 4.77372 47.1677C31.5939 47.1677 58.3741 47.1677 85.1966 47.1677C85.2154 46.9527 85.2506 46.7563 85.2506 46.5621C85.253 42.871 85.2812 39.1799 85.2412 35.4911C85.2013 31.7306 82.2239 28.6982 78.4082 28.6335C73.7237 28.5549 69.0346 28.6012 64.3477 28.6035C63.2018 28.6035 62.2602 28.2614 61.7742 27.1658C61.0838 25.6011 62.2133 23.967 64.0307 23.9532C67.9262 23.9254 71.8218 23.9069 75.7173 23.9578C77.4948 23.9809 79.3216 23.9462 81.0358 24.3345C86.2744 25.5156 89.9704 30.1705 89.9797 35.4587C90.0056 49.5298 90.0079 63.5986 89.9797 77.6696C89.968 83.3138 85.7766 88.075 80.1012 89.0365C79.9369 89.0643 79.7795 89.1452 79.6199 89.2006C56.5355 89.2006 33.4512 89.2006 10.3693 89.2006C10.2096 89.1452 10.0546 89.0712 9.89026 89.0365C5.05314 88.075 1.90667 85.2622 0.427357 80.6396C0.253596 80.1011 0.140887 79.5418 0 78.994C0 64.0516 0 49.1161 0 34.1806ZM4.74084 51.9266C4.74084 52.264 4.74084 52.5206 4.74084 52.7795C4.74084 60.9105 4.73615 69.0393 4.74319 77.1704C4.74789 81.578 7.75817 84.5295 12.2548 84.5295C34.0758 84.5342 55.8969 84.5342 77.7155 84.5295C82.2544 84.5295 85.2483 81.5757 85.2506 77.1057C85.2553 69.0324 85.253 60.9614 85.253 52.8881C85.253 52.5807 85.253 52.2756 85.253 51.9266C58.3835 51.9266 31.6268 51.9266 4.74084 51.9266Z" fill="#3F9777"/>
<path d="M47.7044 25.2704C47.8758 25 48.0002 24.6857 48.2233 24.4661C51.2148 21.5007 54.1992 18.5261 57.2448 15.6139C57.7472 15.1331 58.5104 14.7887 59.2054 14.6593C60.0695 14.4998 60.7834 15.0037 61.2272 15.7618C61.6897 16.5499 61.685 17.3658 61.199 18.1378C60.9853 18.4752 60.6918 18.7688 60.403 19.0531C55.9956 23.3983 51.5858 27.7389 47.1737 32.0794C45.5817 33.6465 44.417 33.6488 42.8367 32.091C38.3847 27.7088 33.9256 23.3336 29.4924 18.9352C29.0744 18.5215 28.694 17.9876 28.5156 17.4421C28.208 16.4945 28.6893 15.4914 29.5253 14.9736C30.4082 14.4282 31.4718 14.4952 32.3007 15.1655C32.5496 15.3666 32.7727 15.5954 33.0005 15.8196C35.9215 18.6925 38.8402 21.5654 41.7613 24.4383C41.9867 24.6602 42.2192 24.8706 42.6301 25.2565C42.6301 24.7296 42.6301 24.4037 42.6301 24.0778C42.6301 17.1879 42.6277 10.3002 42.6324 3.41031C42.6324 1.92415 43.1349 1.12445 44.2573 0.750024C45.6216 0.294702 47.0727 1.13832 47.2934 2.53664C47.3568 2.93187 47.3545 3.34097 47.3545 3.74313C47.3568 10.5452 47.3568 17.3473 47.3568 24.1494C47.3568 24.4522 47.3568 24.755 47.3568 25.0578C47.4742 25.1317 47.5893 25.2011 47.7044 25.2704Z" fill="#3F9777"/>
<path d="M4.74094 51.9263C31.6268 51.9263 58.3836 51.9263 85.2507 51.9263C85.2507 52.273 85.2507 52.5804 85.2507 52.8878C85.2507 60.9611 85.2531 69.0321 85.2484 77.1054C85.246 81.5777 82.2522 84.5292 77.7133 84.5292C55.8923 84.5338 34.0712 84.5338 12.2526 84.5292C7.75592 84.5292 4.74564 81.5754 4.74094 77.1701C4.7339 69.039 4.73859 60.9102 4.73859 52.7791C4.74094 52.5226 4.74094 52.2637 4.74094 51.9263ZM63.9815 70.5321C65.5007 70.5321 67.0223 70.5459 68.5415 70.5275C69.9997 70.5113 70.9883 69.6006 71.0212 68.2832C71.054 66.9635 70.103 65.9141 68.6801 65.891C65.5242 65.8425 62.366 65.8448 59.2078 65.891C57.7919 65.9118 56.7986 66.9889 56.8409 68.274C56.8832 69.5729 57.8999 70.5113 59.3299 70.5275C60.882 70.5459 62.4318 70.5321 63.9815 70.5321ZM26.043 70.5321C27.5623 70.5321 29.0838 70.5436 30.6031 70.5298C32.0918 70.5159 33.1273 69.5729 33.1484 68.2439C33.1696 66.9219 32.1434 65.9003 30.6618 65.8841C27.5928 65.8517 24.5215 65.854 21.4525 65.8818C19.9638 65.8957 18.9588 66.8918 18.9682 68.23C18.9752 69.5868 19.9755 70.5136 21.483 70.5298C23.0022 70.5436 24.5238 70.5321 26.043 70.5321Z" fill="#1FC78A"/>
<path d="M63.9814 70.5322C62.4316 70.5322 60.8818 70.546 59.3321 70.5275C57.8997 70.5114 56.8854 69.5753 56.8431 68.274C56.8008 66.989 57.7964 65.9119 59.21 65.8911C62.3659 65.8449 65.5264 65.8449 68.6823 65.8911C70.1052 65.9119 71.0562 66.9636 71.0234 68.2833C70.9905 69.6007 70.0019 70.5091 68.5437 70.5275C67.0222 70.546 65.5006 70.5322 63.9814 70.5322Z" fill="#3F9777"/>
<path d="M26.0429 70.5323C24.5237 70.5323 23.0021 70.5438 21.4829 70.5277C19.9754 70.5115 18.9751 69.5847 18.9681 68.2279C18.961 66.8897 19.966 65.8935 21.4524 65.8797C24.5213 65.8496 27.5927 65.8496 30.6617 65.882C32.1433 65.8982 33.1694 66.9198 33.1483 68.2418C33.1272 69.5708 32.0917 70.5138 30.603 70.5277C29.0837 70.5438 27.5622 70.5323 26.0429 70.5323Z" fill="#3F9777"/>
</svg>
