<svg width="139" height="109" viewBox="0 0 139 109" fill="none" xmlns="http://www.w3.org/2000/svg">
<rect width="139" height="109" rx="5" fill="#E1A917"/>
<path d="M86.3701 97.86C86.3701 74.78 105.15 56 128.23 56C131.95 56 135.56 56.5 139 57.41V41.02C135.51 40.36 131.91 40 128.23 40C96.3301 40 70.3701 65.96 70.3701 97.86C70.3701 101.5 70.7201 105.06 71.3701 108.51H87.7501C86.8501 105.11 86.3701 101.54 86.3701 97.86Z" fill="#F3C345"/>
<path d="M113.24 100.93C113.24 90.34 121.86 81.72 132.45 81.72C134.75 81.72 136.96 82.15 139 82.9V68.38C136.88 67.95 134.69 67.73 132.45 67.73C114.14 67.73 99.24 82.63 99.24 100.94C99.24 103.55 99.55 106.08 100.12 108.52H114.8C113.8 106.18 113.24 103.62 113.24 100.93Z" fill="#F3C345"/>
</svg>
