<svg width="19" height="18" viewBox="0 0 19 18" fill="none" xmlns="http://www.w3.org/2000/svg">
<path d="M17.6138 12.2866C17.3673 12.1348 17.0952 12.019 16.8042 11.9464C16.6537 11.909 16.4974 11.8955 16.3442 11.8708C16.3275 11.868 16.3113 11.864 16.2951 11.8608H15.9342C15.8306 11.8753 15.7261 11.8861 15.6234 11.905C14.8584 12.0447 14.2461 12.4326 13.7848 13.0565C13.4622 13.4926 13.282 13.9851 13.2387 14.5275C13.2378 14.5419 13.2329 14.5563 13.2297 14.5712V14.9325C13.2442 15.0384 13.2545 15.1452 13.2743 15.2501C13.3307 15.5515 13.4244 15.8286 13.5546 16.0813C13.7753 16.5102 14.1015 16.8698 14.5299 17.1603C14.9422 17.4401 15.3999 17.5955 15.8968 17.6334C15.9094 17.6343 15.9221 17.6392 15.9342 17.6424H16.2951C16.4023 17.6275 16.5104 17.6154 16.6172 17.5974C17.7913 17.3982 18.7559 16.4219 18.9577 15.2456C19.1654 14.0378 18.5887 12.8849 17.6138 12.2866ZM17.5507 13.1466C17.5732 13.1466 17.5944 13.1511 17.6138 13.1588C17.6755 13.1836 17.7174 13.2435 17.7165 13.316C17.716 13.3863 17.6737 13.4458 17.6138 13.471C17.5935 13.4796 17.571 13.4845 17.5475 13.4841C17.4561 13.4827 17.3791 13.4043 17.38 13.3129C17.3809 13.2201 17.457 13.1457 17.5507 13.1466ZM15.9464 12.7164C15.9482 12.6213 16.0248 12.5488 16.1167 12.5497C16.2063 12.551 16.2793 12.6218 16.2829 12.7141C16.2856 12.7722 16.2834 12.8308 16.2834 12.8889C16.2838 12.9452 16.2852 13.0016 16.2834 13.0579C16.2807 13.1538 16.2077 13.2264 16.1158 13.2268C16.0239 13.2277 15.9482 13.1547 15.9464 13.0597C15.9441 12.9452 15.9441 12.8308 15.9464 12.7164ZM14.6777 13.1466C14.7723 13.1453 14.8476 13.2183 14.8494 13.312C14.8512 13.403 14.7746 13.4818 14.6827 13.4836C14.5903 13.4859 14.5142 13.4106 14.5128 13.3169C14.5115 13.2219 14.5836 13.1475 14.6777 13.1466ZM14.0875 14.5829C14.1997 14.5811 14.3123 14.5806 14.4245 14.5829C14.5205 14.5843 14.5926 14.6586 14.593 14.7509C14.5935 14.8433 14.5214 14.9176 14.4259 14.9203C14.3678 14.9226 14.3096 14.9208 14.2515 14.9208C14.1975 14.9208 14.1429 14.9221 14.0889 14.9208C13.9902 14.9181 13.9163 14.8438 13.9172 14.7496C13.9186 14.6577 13.9916 14.5843 14.0875 14.5829ZM14.675 16.3566C14.5813 16.3544 14.5106 16.2791 14.5128 16.1832C14.5137 16.1444 14.5281 16.1093 14.5507 16.0813C14.5827 16.0417 14.6322 16.0174 14.6858 16.0196C14.7354 16.0219 14.78 16.0457 14.8097 16.0813C14.8359 16.1124 14.8512 16.1521 14.8494 16.1944C14.8453 16.2886 14.7696 16.3589 14.675 16.3566ZM16.2829 16.7864C16.2811 16.8819 16.205 16.954 16.1135 16.9536C16.0216 16.9527 15.9486 16.8797 15.9459 16.7837C15.9446 16.7256 15.9459 16.6675 15.9459 16.6094C15.9459 16.5548 15.9446 16.5003 15.9459 16.4458C15.9486 16.3499 16.0212 16.2769 16.1131 16.2764C16.205 16.2755 16.2811 16.3481 16.2829 16.4431C16.2856 16.5575 16.2856 16.672 16.2829 16.7864ZM17.2912 15.8119C17.2696 15.8894 17.2047 15.9354 17.1349 15.9372C17.0997 15.9381 17.0628 15.9273 17.0299 15.9038C17.0132 15.8921 16.9988 15.8768 16.9839 15.8624C16.6641 15.5416 16.3447 15.2204 16.0234 14.9014C15.9689 14.8474 15.9428 14.7883 15.9446 14.7108C15.9482 14.555 15.9455 14.3986 15.9455 14.2423C15.9455 14.0806 15.9455 13.9188 15.9459 13.7571C15.9459 13.6431 16.0149 13.5656 16.1153 13.5661C16.2158 13.5665 16.2838 13.6436 16.2838 13.758C16.2838 14.0477 16.2847 14.3378 16.2829 14.6275C16.2825 14.6667 16.2946 14.6933 16.3221 14.7203C16.6258 15.0231 16.9281 15.3267 17.2308 15.6295C17.2822 15.6808 17.3115 15.7376 17.2912 15.811C17.2912 15.8115 17.2912 15.8115 17.2912 15.8119ZM17.5489 16.3566C17.4552 16.3566 17.38 16.2814 17.38 16.1886C17.38 16.0971 17.4579 16.0192 17.5494 16.0192C17.6422 16.0192 17.7169 16.0949 17.7165 16.189C17.7165 16.2841 17.6435 16.3566 17.5489 16.3566ZM18.1382 14.9208C18.0823 14.9217 18.026 14.9208 17.9697 14.9208C17.9156 14.9208 17.8611 14.9221 17.8066 14.9208C17.7084 14.9181 17.6345 14.8424 17.6363 14.7482C17.6381 14.6568 17.7115 14.5843 17.8075 14.5829C17.9179 14.5811 18.0287 14.5811 18.1391 14.5825C18.2387 14.5838 18.3125 14.6572 18.3121 14.7518C18.3121 14.8465 18.2382 14.9185 18.1382 14.9208Z" fill="#E1A917"/>
<path d="M17.6139 5.43498C17.5648 5.61789 17.531 5.80711 17.4634 5.98326C17.1625 6.76717 16.6043 7.28257 15.7929 7.49071C14.0966 7.92637 12.3959 8.34535 10.697 8.77065C10.6812 8.7747 10.6641 8.7711 10.6303 8.7711C10.6303 8.70487 10.6335 8.6382 10.6299 8.57197C10.6141 8.28318 10.4069 8.07369 10.119 8.07189C9.3603 8.06783 8.60162 8.06783 7.84294 8.07189C7.5555 8.07369 7.34736 8.28498 7.3325 8.57242C7.32889 8.63865 7.33204 8.70487 7.33204 8.78507C6.56075 8.59179 5.80973 8.40347 5.05916 8.21515C4.1063 7.97638 3.15299 7.7385 2.20014 7.49882C1.09275 7.21995 0.357948 6.28286 0.348937 5.13853C0.347135 4.89074 0.346685 4.64296 0.348937 4.39517C0.354344 3.80949 0.766122 3.38735 1.35225 3.36437C1.40271 3.36257 1.45317 3.36257 1.50408 3.36257C6.48957 3.36257 11.4746 3.36347 16.4601 3.35987C16.8151 3.35942 17.1377 3.42609 17.3638 3.71623C17.4711 3.85409 17.5328 4.02709 17.6152 4.18432C17.6139 4.60151 17.6139 5.01824 17.6139 5.43498Z" fill="#E1A917"/>
<path d="M11.5139 2.33845C11.176 2.33845 10.8529 2.33845 10.5038 2.33845C10.5038 2.14473 10.5047 1.95596 10.5033 1.76764C10.5015 1.50724 10.4074 1.41217 10.1474 1.41217C9.36712 1.41127 8.58636 1.41127 7.80606 1.41217C7.55602 1.41263 7.46006 1.50904 7.4578 1.75818C7.456 1.94785 7.45735 2.13752 7.45735 2.338C7.11631 2.338 6.79328 2.338 6.45674 2.338C6.43151 1.76043 6.37249 1.18241 6.86491 0.740895C7.10414 0.525996 7.38166 0.402102 7.70379 0.400751C8.55167 0.397146 9.39956 0.393092 10.2474 0.401201C10.9412 0.407959 11.4936 0.962553 11.5125 1.65726C11.5188 1.88027 11.5139 2.10418 11.5139 2.33845Z" fill="#E1A917"/>
<path d="M9.61886 9.09811C9.61886 9.41527 9.62247 9.71893 9.61481 10.0221C9.61345 10.0667 9.5657 10.133 9.52335 10.1496C9.36747 10.2118 9.20843 10.2762 9.04444 10.3024C8.94353 10.3186 8.82864 10.2776 8.72592 10.2442C8.34163 10.1203 8.34253 10.1176 8.34253 9.71803C8.34253 9.51574 8.34253 9.31346 8.34253 9.09766C8.76602 9.09811 9.18275 9.09811 9.61886 9.09811Z" fill="#E1A917"/>
<path d="M17.6139 7.59766V11.5731C17.1593 11.3582 16.6507 11.2379 16.1146 11.2379C14.1742 11.2379 12.6009 12.8111 12.6009 14.752C12.6009 15.2223 12.6933 15.6715 12.8618 16.0815C9.05487 16.0815 5.24795 16.0815 1.44148 16.081C0.764797 16.081 0.348063 15.6629 0.347612 14.9871C0.347162 12.5881 0.347612 10.1891 0.347612 7.79048V7.6328C0.370589 7.62829 0.377797 7.62469 0.380501 7.62649C0.406631 7.64721 0.433212 7.66839 0.45799 7.69091C0.857604 8.04953 1.31128 8.31399 1.83254 8.44644C3.30124 8.82038 4.77175 9.18755 6.24136 9.55743C6.60403 9.64889 6.96625 9.74034 7.33072 9.83225C7.33072 10.0485 7.32892 10.2454 7.33117 10.4423C7.33432 10.7189 7.45281 10.8887 7.71006 10.9766C8.07093 11.1005 8.43135 11.2271 8.79717 11.3347C8.90935 11.3676 9.04676 11.3708 9.15804 11.3379C9.52927 11.2293 9.89555 11.1018 10.2609 10.9739C10.511 10.8865 10.6263 10.7157 10.6304 10.449C10.6331 10.2472 10.6308 10.0449 10.6308 9.84036C10.6826 9.82369 10.7241 9.80837 10.7669 9.79756C12.259 9.42408 13.7489 9.04158 15.2442 8.68071C16.1069 8.47212 16.9593 8.25587 17.6139 7.59766Z" fill="#E1A917"/>
</svg>
