<svg width="11" height="13" viewBox="0 0 11 13" fill="none" xmlns="http://www.w3.org/2000/svg">
<path d="M7.84307 7.03397C7.84307 8.53537 7.84273 10.0368 7.84375 11.5382C7.84375 11.7017 7.82448 11.8582 7.72173 11.9928C7.58349 12.1736 7.39995 12.2503 7.17248 12.25C5.60754 12.2476 4.04261 12.2486 2.47767 12.2486C2.1444 12.2486 1.81113 12.2486 1.47787 12.2486C1.02258 12.2483 0.772123 11.9999 0.772123 11.5473C0.772123 9.39659 0.772123 7.24556 0.772123 5.09487C0.772123 4.23872 0.771785 3.38257 0.772123 2.52641C0.772461 2.08296 1.02765 1.82473 1.46874 1.82473C3.36255 1.82405 5.2567 1.82405 7.15051 1.82473C7.58653 1.82473 7.84206 2.07958 7.8424 2.51729C7.84409 4.02274 7.84307 5.52852 7.84307 7.03397ZM1.97067 5.17667C1.97337 6.47222 3.02827 7.51697 4.32957 7.51292C5.60214 7.50886 6.64554 6.45464 6.64453 5.17329C6.64351 3.89193 5.59571 2.83568 4.32686 2.83636C3.0232 2.83737 1.96763 3.88551 1.97067 5.17667ZM4.30253 10.2751C5.00219 10.2751 5.70185 10.2751 6.40117 10.2751C6.43902 10.2751 6.47755 10.2784 6.51473 10.2727C6.60498 10.2595 6.65974 10.2058 6.6665 10.1142C6.67326 10.0222 6.62661 9.9597 6.53839 9.93637C6.49445 9.92488 6.4468 9.92556 6.40083 9.92556C5.0059 9.92488 3.61098 9.92488 2.21606 9.92556C2.17009 9.92556 2.12243 9.92522 2.07849 9.93637C1.98892 9.95902 1.94498 10.0236 1.9514 10.1145C1.95783 10.2058 2.01123 10.2609 2.10283 10.2727C2.14034 10.2774 2.17854 10.2751 2.21639 10.2751C2.91166 10.2751 3.60726 10.2751 4.30253 10.2751ZM4.29915 9.03932C4.99441 9.03932 5.68968 9.03932 6.38528 9.03932C6.42753 9.03932 6.46978 9.04101 6.51169 9.03628C6.60937 9.02479 6.66514 8.96665 6.66717 8.86931C6.6692 8.77129 6.61411 8.71248 6.51778 8.69625C6.4806 8.69017 6.4424 8.69051 6.40455 8.69051C5.00557 8.69017 3.60625 8.69017 2.20727 8.69085C2.1613 8.69085 2.10046 8.68172 2.07241 8.70606C2.02137 8.75101 1.95614 8.81962 1.95918 8.87506C1.96222 8.93049 2.03455 8.99133 2.08998 9.03087C2.12142 9.05318 2.17989 9.03932 2.2262 9.03932C2.91707 9.03966 3.60828 9.03932 4.29915 9.03932ZM4.30658 11.5128C4.68616 11.5128 5.06573 11.5131 5.4453 11.5125C5.59267 11.5121 5.6765 11.4489 5.67819 11.3397C5.67988 11.2302 5.59436 11.1609 5.45004 11.1609C4.69089 11.1603 3.93174 11.1603 3.17293 11.1609C3.02117 11.1609 2.94411 11.2211 2.94309 11.3354C2.94174 11.4516 3.01745 11.5125 3.1682 11.5128C3.54744 11.5135 3.92701 11.5128 4.30658 11.5128Z" fill="white" fill-opacity="0.8"/>
<path d="M8.192 8.78691C8.192 8.74297 8.192 8.69869 8.192 8.65475C8.192 6.60951 8.19234 4.56394 8.19166 2.51871C8.19166 2.0357 7.94999 1.66729 7.53121 1.5331C7.40548 1.49288 7.26656 1.47801 7.13339 1.47767C5.85947 1.47361 4.58588 1.4753 3.31196 1.4753C3.26194 1.4753 3.21192 1.4753 3.16088 1.4753C3.15581 1.45468 3.14803 1.44184 3.15108 1.43238C3.2616 1.08322 3.36266 0.730689 3.48739 0.386606C3.60298 0.0675342 3.94571 -0.0730736 4.29284 0.0371143C5.04725 0.276418 5.80099 0.517749 6.55507 0.758405C7.61402 1.0964 8.67264 1.4344 9.73159 1.77274C10.147 1.90558 10.316 2.22667 10.1845 2.63971C9.54129 4.65723 8.89673 6.67407 8.2525 8.69125C8.24169 8.72539 8.22614 8.75784 8.21296 8.79096C8.20552 8.78961 8.19876 8.78826 8.192 8.78691Z" fill="white" fill-opacity="0.8"/>
<path d="M4.129 4.72832C4.129 5.03455 4.129 5.31982 4.129 5.6203C3.86367 5.6203 3.60341 5.62165 3.34348 5.6176C3.32253 5.61726 3.28501 5.57704 3.28467 5.55473C3.27994 5.30292 3.27893 5.05077 3.28332 4.79896C3.28366 4.77496 3.32658 4.73204 3.35058 4.73136C3.60679 4.72663 3.86333 4.72832 4.129 4.72832Z" fill="white" fill-opacity="0.8"/>
<path d="M4.49316 4.73535C4.76525 4.73535 5.02484 4.73535 5.3074 4.73535C5.3074 5.02975 5.3074 5.31637 5.3074 5.61246C5.02619 5.61246 4.76356 5.61246 4.49316 5.61246C4.49316 5.32043 4.49316 5.03245 4.49316 4.73535Z" fill="white" fill-opacity="0.8"/>
<path d="M5.66797 5.62094C5.66797 5.31675 5.66797 5.03147 5.66797 4.72863C5.83595 4.72863 6.01509 4.72592 6.19423 4.73201C6.21688 4.73268 6.25676 4.77899 6.2571 4.80468C6.26183 5.05142 6.26251 5.29816 6.25643 5.54456C6.25575 5.57058 6.20775 5.61621 6.18071 5.61723C6.00935 5.62432 5.83731 5.62094 5.66797 5.62094Z" fill="white" fill-opacity="0.8"/>
<path d="M2.91605 5.61441C2.74469 5.61441 2.56589 5.61441 2.37762 5.61441C2.29988 5.32509 2.30596 5.03643 2.37323 4.7373C2.55507 4.7373 2.73759 4.7373 2.91605 4.7373C2.91605 5.02731 2.91605 5.31731 2.91605 5.61441Z" fill="white" fill-opacity="0.8"/>
<path d="M3.39502 5.97852C3.64953 5.97852 3.8841 5.97852 4.12679 5.97852C4.12679 6.31483 4.12679 6.64539 4.12679 7.00299C3.78338 6.72516 3.54881 6.39223 3.39502 5.97852Z" fill="white" fill-opacity="0.8"/>
<path d="M4.12337 4.37164C3.88103 4.37164 3.64645 4.37164 3.396 4.37164C3.54134 3.96064 3.78233 3.63176 4.12337 3.34717C4.12337 3.69598 4.12337 4.02756 4.12337 4.37164Z" fill="white" fill-opacity="0.8"/>
<path d="M6.12707 5.97315C5.8729 6.50854 5.48859 6.85736 4.94678 7.03683C4.98294 6.99391 5.01945 6.95098 5.05561 6.90772C5.26483 6.65658 5.42674 6.37807 5.52915 6.06711C5.55247 5.99647 5.5856 5.96808 5.66232 5.97146C5.80868 5.97754 5.95503 5.97315 6.12707 5.97315Z" fill="white" fill-opacity="0.8"/>
<path d="M4.95654 3.30957C5.48923 3.49277 5.8732 3.84158 6.1267 4.37461C5.93809 4.37461 5.76909 4.3763 5.60009 4.37224C5.58117 4.3719 5.55413 4.33979 5.54635 4.31681C5.41859 3.94197 5.21951 3.60971 4.95654 3.30957Z" fill="white" fill-opacity="0.8"/>
<path d="M4.49121 6.97787C4.49121 6.62635 4.49121 6.30795 4.49121 5.98145C4.72139 5.98145 4.9465 5.98145 5.18918 5.98145C5.04857 6.37251 4.82144 6.69226 4.49121 6.97787Z" fill="white" fill-opacity="0.8"/>
<path d="M4.49097 4.36879C4.49097 4.03823 4.49097 3.72017 4.49097 3.37305C4.82085 3.65257 5.04393 3.97435 5.18961 4.36879C4.95065 4.36879 4.72621 4.36879 4.49097 4.36879Z" fill="white" fill-opacity="0.8"/>
<path d="M3.61987 7.03676C3.10036 6.83126 2.73329 6.48684 2.48926 5.97342C2.66468 5.97342 2.81847 5.97037 2.97192 5.97646C2.99727 5.97747 3.03039 6.01567 3.04391 6.04406C3.12503 6.21441 3.18959 6.39389 3.28356 6.5568C3.37718 6.71972 3.49886 6.86675 3.61987 7.03676Z" fill="white" fill-opacity="0.8"/>
<path d="M3.02255 4.37112C2.83901 4.37112 2.67576 4.37112 2.49121 4.37112C2.73322 3.86276 3.10096 3.51632 3.61641 3.32568C3.345 3.63428 3.14659 3.98242 3.02255 4.37112Z" fill="white" fill-opacity="0.8"/>
</svg>
